<svg width="40" height="40" viewBox="0 0 40 40" fill="none" xmlns="http://www.w3.org/2000/svg">
<g clip-path="url(#clip0_27:3132)">
<path d="M33.3694 22.7815C33.3104 30.4624 27.5288 36.6211 20.0791 36.6665C12.7097 36.7082 6.67606 30.6914 6.65192 22.8399C6.62868 15.1646 12.4692 9.03099 19.9289 8.94663C27.3035 8.86319 33.3104 15.0904 33.3694 22.7815ZM29.3338 22.827C29.3465 21.5482 29.1146 20.2794 28.6516 19.0941C28.1885 17.9088 27.5035 16.8304 26.6362 15.9213C25.7689 15.0121 24.7364 14.2903 23.5984 13.7974C22.4604 13.3046 21.2395 13.0505 20.0062 13.0499C18.773 13.0493 17.5519 13.3021 16.4134 13.7938C15.275 14.2856 14.2418 15.0064 13.3736 15.9147C12.5054 16.823 11.8195 17.9007 11.3553 19.0855C10.8912 20.2704 10.6581 21.5389 10.6696 22.8177C10.6633 28.2004 14.8366 32.4965 20.0639 32.4881C25.1829 32.4798 29.3383 28.1484 29.3338 22.827Z" fill="#683B72"/>
<path d="M16.867 6.60825C12.1976 7.70592 8.69127 10.3324 6.16927 14.6146C5.74908 13.8247 5.32175 13.1442 5.00705 12.4109C4.19351 10.5039 4.38125 8.68678 5.7017 7.08663C7.10708 5.39099 8.80212 4.1079 10.9102 3.5053C12.1851 3.14095 13.3875 3.36345 14.497 4.11069C15.4473 4.75037 16.1679 5.61998 16.867 6.60825Z" fill="#683B72"/>
<path d="M33.8348 14.6147C31.3065 10.327 27.7895 7.69312 23.196 6.62048C24.1222 4.63188 26.3582 3.22735 28.3876 3.3729C29.3075 3.43872 30.1496 3.80492 30.9462 4.2731C32.2246 5.02497 33.3913 5.92238 34.3291 7.11184C35.6183 8.74814 35.7962 10.542 34.9836 12.4472C34.6796 13.1611 34.2612 13.8193 33.8348 14.6147Z" fill="#683B72"/>
<path d="M21.2769 24.3438C20.3828 25.7288 19.4656 27.0972 18.543 28.4609C18.0826 29.1414 17.3727 29.2953 16.755 28.8874C16.1372 28.4795 15.9807 27.7842 16.3491 27.0648C16.9552 25.879 17.5891 24.7081 18.1737 23.5112C18.3527 23.1433 18.4593 22.7421 18.4875 22.3311C18.5769 20.6985 18.6279 19.0631 18.6923 17.4277C18.7343 16.3745 19.4602 15.7895 20.3998 16.0519C20.9362 16.2002 21.2795 16.6619 21.309 17.3378C21.3984 19.3412 21.4717 21.3465 21.5513 23.3509C21.5835 23.3592 21.4592 24.0619 21.2769 24.3438Z" fill="#683B72"/>
</g>
<defs>
<clipPath id="clip0_27:3132">
<rect width="30.9524" height="33.3333" fill="white" transform="translate(4.52319 3.33325)"/>
</clipPath>
</defs>
</svg>
