<svg xmlns="http://www.w3.org/2000/svg" width="56.702" height="58.429" viewBox="0 0 56.702 58.429">
  <g id="Group_11534" data-name="Group 11534" transform="translate(-4136.611 -906.272)">
    <g id="Group_11533" data-name="Group 11533" transform="translate(4138.111 907.772)">
      <path id="Path_27693" data-name="Path 27693" d="M4164.091,934.087v-7.241h-8.673c.212-.367.521-.824.878-1.345a6.04,6.04,0,0,0,1.188-3.484,5.533,5.533,0,0,0-5.437-5.441h-.077a5.513,5.513,0,0,0-5.515,5.509v0h0a6.034,6.034,0,0,0,1.186,3.408c.328.479.669.981.879,1.347h-8.093a2.317,2.317,0,0,0-2.315,2.314v0h0v23.087a2.314,2.314,0,0,0,2.313,2.314h23.661v-7.3" transform="translate(-4138.111 -899.131)" fill="none" stroke="#683b72" stroke-linejoin="round" stroke-width="3"/>
      <path id="Path_27694" data-name="Path 27694" d="M4156.284,921.759v10.159c-.3-.176-.876-.557-1.4-.919a5.912,5.912,0,0,0-3.363-1.145h-.075a5.515,5.515,0,0,0,.071,11.027,6.307,6.307,0,0,0,3.365-1.147c.605-.385,1.089-.741,1.4-.917v10.409h25.4a2.316,2.316,0,0,0,2.316-2.314h0V921.759" transform="translate(-4130.305 -894.044)" fill="none" stroke="#683b72" stroke-linejoin="round" stroke-width="3"/>
      <path id="Path_27695" data-name="Path 27695" d="M4176.623,907.772h-25.4V918.4s.932-.8,1.233-1.016a5.519,5.519,0,0,1,7.774.723,5.423,5.423,0,0,1,.747,1.175,5.363,5.363,0,0,1,.236,4.118,5.551,5.551,0,0,1-5.166,3.739h-.071a5.48,5.48,0,0,1-3.521-1.272c-.3-.21-1.233-1.017-1.233-1.017V935.49h10.409c-.081.164-.547.87-.926,1.4a5.8,5.8,0,0,0-1.139,3.426,5.532,5.532,0,0,0,5.435,5.441h.079a5.51,5.51,0,0,0,5.511-5.51v0h0a5.907,5.907,0,0,0-1.138-3.357c-.422-.614-.743-1.09-.907-1.385l-.012-.018h10.409V910.085a2.311,2.311,0,0,0-2.312-2.313h-.008Z" transform="translate(-4125.241 -907.772)" fill="none" stroke="#683b72" stroke-linejoin="round" stroke-width="3"/>
    </g>
  </g>
</svg>
