<svg width="24" height="24" viewBox="0 0 24 24" fill="none" xmlns="http://www.w3.org/2000/svg">
<path d="M19.6647 17.0275C19.3774 17.6563 19.0374 18.2352 18.6434 18.7674C18.1064 19.4929 17.6667 19.9952 17.3279 20.274C16.8026 20.7318 16.2398 20.9662 15.6371 20.9796C15.2045 20.9796 14.6827 20.8629 14.0753 20.6262C13.466 20.3907 12.906 20.274 12.394 20.274C11.857 20.274 11.281 20.3907 10.665 20.6262C10.048 20.8629 9.55099 20.9862 9.17098 20.9985C8.59305 21.0218 8.017 20.7807 7.44201 20.274C7.07501 19.9707 6.61598 19.4507 6.06607 18.7141C5.47607 17.9274 4.991 17.0152 4.61099 15.9753C4.20402 14.852 4 13.7642 4 12.7112C4 11.5049 4.27507 10.4644 4.82603 9.59258C5.25904 8.89227 5.83509 8.33984 6.55606 7.9343C7.27703 7.52875 8.05605 7.32209 8.89497 7.30887C9.35401 7.30887 9.95597 7.44342 10.704 7.70786C11.45 7.97318 11.9289 8.10774 12.1389 8.10774C12.2959 8.10774 12.828 7.95041 13.73 7.63675C14.583 7.34587 15.3029 7.22543 15.8927 7.27287C17.4908 7.39509 18.6915 7.99207 19.49 9.0676C18.0607 9.88824 17.3537 11.0376 17.3677 12.5122C17.3806 13.6607 17.8203 14.6164 18.6845 15.3753C19.0761 15.7275 19.5134 15.9997 20 16.193C19.8945 16.483 19.7831 16.7608 19.6647 17.0275ZM15.9994 3.3601C15.9994 4.26031 15.6524 5.10083 14.9606 5.8788C14.1258 6.80366 13.116 7.33809 12.021 7.25376C12.007 7.14576 11.9989 7.0321 11.9989 6.91266C11.9989 6.04846 12.396 5.1236 13.101 4.3674C13.453 3.98453 13.9006 3.66617 14.4435 3.41221C14.9852 3.16204 15.4976 3.02369 15.9795 3C15.9936 3.12034 15.9994 3.24069 15.9994 3.36009V3.3601Z" fill="white"/>
</svg>
