<svg width="24" height="16" viewBox="0 0 24 16" fill="none" xmlns="http://www.w3.org/2000/svg">
<path d="M23.5861 15.8623H0.413812C0.185297 15.8623 0 15.677 0 15.4485V0.551983C0 0.323483 0.185297 0.138184 0.413812 0.138184H23.5862C23.8147 0.138184 24 0.323483 24 0.551983V15.4485C24 15.6771 23.8147 15.8623 23.5861 15.8623Z" fill="#FF4B55"/>
<path d="M11.8814 6.58171L12.53 7.43011L13.5428 7.0911C13.5994 7.0722 13.6476 7.1362 13.6137 7.1854L13.0072 8.06441L13.6426 8.92291C13.6781 8.97091 13.6321 9.03641 13.5749 9.01941L12.5514 8.71421L11.9313 9.5837C11.8967 9.6323 11.82 9.6088 11.8186 9.5492L11.7925 8.4815L10.7739 8.16041C10.717 8.14251 10.7156 8.0624 10.772 8.0426L11.7794 7.68791L11.7699 6.62C11.7693 6.5602 11.8452 6.53421 11.8814 6.58171Z" fill="#F5F5F5"/>
<path d="M8.29475 11.312C6.46687 11.312 4.98412 9.82921 4.98412 7.99971C4.98412 6.17351 6.46691 4.68741 8.29475 4.68741C8.97481 4.68741 9.60195 4.89661 10.1246 5.25061C10.2046 5.30471 10.296 5.19961 10.229 5.12991C9.44788 4.31781 8.34238 3.82241 7.1166 3.86431C5.0107 3.93611 3.26732 5.62461 3.13275 7.72741C2.97867 10.1359 4.88582 12.1376 7.26032 12.1376C8.42999 12.1376 9.4812 11.6486 10.2319 10.8668C10.2982 10.7977 10.2066 10.6941 10.1274 10.7478C9.60416 11.1026 8.97599 11.312 8.29475 11.312Z" fill="#F5F5F5"/>
</svg>
