<svg width="24" height="16" viewBox="0 0 24 16" fill="none" xmlns="http://www.w3.org/2000/svg">
<path d="M23.5861 15.8623H0.413812C0.185297 15.8623 0 15.677 0 15.4485V0.551987C0 0.323487 0.185297 0.138184 0.413812 0.138184H23.5862C23.8147 0.138184 24 0.323487 24 0.551987V15.4485C24 15.6771 23.8147 15.8623 23.5861 15.8623Z" fill="#746378"/>
<path d="M8.36552 7.1017C8.41135 7.1246 8.46482 7.1567 8.52593 7.1979C8.59213 7.2391 8.65578 7.2826 8.71689 7.3284C8.78309 7.3742 8.8442 7.42 8.90021 7.4658C8.95623 7.507 8.99951 7.5413 9.03006 7.5688C9.09117 7.6283 9.15228 7.697 9.21339 7.7748C9.27959 7.8527 9.34069 7.9374 9.39671 8.029L8.84674 9.3409C8.66342 9.4737 8.42663 9.6043 8.13637 9.7325C7.84611 9.8607 7.52529 9.9752 7.17392 10.0759C6.82765 10.1812 6.461 10.2637 6.07399 10.3232C5.68698 10.3873 5.3076 10.4194 4.93586 10.4194C4.44191 10.4194 4.03198 10.3598 3.70607 10.2408C3.38017 10.1263 3.12046 9.9752 2.92695 9.7874C2.73345 9.6043 2.59596 9.3936 2.51448 9.1555C2.43809 8.9219 2.3999 8.6884 2.3999 8.4549C2.3999 8.1755 2.43046 7.9099 2.49156 7.6581C2.55776 7.4062 2.63924 7.1704 2.73599 6.9506C2.83784 6.7262 2.94987 6.5179 3.07208 6.3255C3.1943 6.1332 3.31397 5.9523 3.43109 5.7829L3.66024 5.8653C3.58386 6.0256 3.51002 6.1813 3.43873 6.3324C3.37253 6.4789 3.31397 6.6278 3.26305 6.7789C3.21722 6.9254 3.17902 7.0765 3.14847 7.2322C3.11792 7.3879 3.10264 7.555 3.10264 7.7336C3.10264 7.9901 3.15865 8.219 3.27068 8.4205C3.38271 8.622 3.53294 8.7914 3.72135 8.9288C3.90977 9.0708 4.12874 9.1784 4.37826 9.2517C4.63287 9.3295 4.90276 9.3684 5.18793 9.3684C5.63096 9.3684 6.04853 9.3432 6.44063 9.2929C6.83783 9.2425 7.19684 9.1761 7.51765 9.0937C7.83847 9.0112 8.116 8.9174 8.35024 8.812C8.58449 8.7113 8.76527 8.606 8.89257 8.4961C8.86711 8.3999 8.78309 8.3015 8.6405 8.2007C8.49792 8.1046 8.3146 8.0153 8.09054 7.9328C7.87157 7.8504 7.61695 7.7817 7.32669 7.7268C7.04153 7.6764 6.74363 7.6512 6.433 7.6512C6.51447 7.4543 6.59086 7.278 6.66215 7.1223C6.73853 6.962 6.8251 6.8018 6.92186 6.6415H8.36552V7.1017ZM6.78436 11.9992L5.86011 11.5046L5.44 11.9992L4.46992 11.484L5.12682 10.6941L6.04344 11.2024L6.47119 10.6941L7.44127 11.2299L6.78436 11.9992Z" fill="white"/>
<path d="M8.37316 7.65119C8.31714 7.65119 8.25858 7.64429 8.19748 7.63059C8.13128 7.61689 8.07017 7.59849 8.01415 7.57569C7.95305 7.54819 7.90467 7.51609 7.86902 7.47949C7.82828 7.43829 7.80792 7.39249 7.80792 7.34209V6.95059C7.80792 6.89559 7.82828 6.84979 7.86902 6.81319C7.90467 6.77199 7.95305 6.7399 8.01415 6.717C8.07017 6.6896 8.13128 6.67129 8.19748 6.66209C8.25858 6.64839 8.31714 6.64149 8.37316 6.64149H10.4966C10.4966 6.50409 10.4865 6.353 10.4661 6.1881C10.4457 6.0233 10.4024 5.84469 10.3362 5.65239C10.2751 5.45549 10.186 5.24709 10.0689 5.02729C9.95177 4.80749 9.799 4.57399 9.61059 4.32669L10.1529 3.2002C10.3006 3.3925 10.433 3.60549 10.5501 3.83899C10.6723 4.06799 10.7742 4.3084 10.8557 4.5602C10.9422 4.8121 11.0084 5.06849 11.0543 5.32949C11.1001 5.59059 11.123 5.8447 11.123 6.092C11.123 6.2248 11.1103 6.36219 11.0848 6.50409C11.0593 6.64149 11.0237 6.77889 10.9779 6.91619C10.9371 7.04899 10.8913 7.17949 10.8404 7.30779C10.7945 7.43139 10.7487 7.54589 10.7029 7.65119H8.37316ZM10.0994 11.7519L9.06826 11.1887L9.72516 10.3988L10.7564 10.9757L10.0994 11.7519Z" fill="white"/>
<path d="M15.8512 7.65118C15.7086 7.65118 15.5635 7.63519 15.4158 7.60309C15.2732 7.56649 15.151 7.49548 15.0492 7.39018L14.9346 7.44508C14.9244 7.67868 14.8786 7.91678 14.7971 8.15948C14.7207 8.40678 14.6163 8.64489 14.4839 8.87389C14.3515 9.10279 14.1987 9.31809 14.0256 9.51949C13.8525 9.72559 13.6666 9.90418 13.468 10.0553C13.2694 10.2064 13.0632 10.3255 12.8493 10.4125C12.6354 10.5041 12.4241 10.5499 12.2153 10.5499C11.8945 10.5499 11.5431 10.4926 11.1612 10.3781C10.7844 10.2682 10.3286 10.0851 9.79391 9.82858L9.88557 9.62258C10.0434 9.66838 10.1784 9.70729 10.2904 9.73929C10.4075 9.77139 10.5145 9.79659 10.6112 9.81489C10.708 9.83779 10.7971 9.85378 10.8786 9.86298C10.9651 9.87208 11.0568 9.87669 11.1536 9.87669C11.4031 9.87669 11.6602 9.83319 11.925 9.74619C12.1949 9.66379 12.4546 9.55388 12.7042 9.41648C12.9537 9.28368 13.1905 9.13259 13.4145 8.96319C13.6386 8.79369 13.8346 8.62198 14.0027 8.44798C14.1707 8.27858 14.3031 8.11598 14.3999 7.96028C14.4966 7.80918 14.545 7.68328 14.545 7.58248C14.545 7.54128 14.5297 7.49088 14.4992 7.43138C14.4737 7.36728 14.4355 7.29859 14.3846 7.22529C14.3388 7.14749 14.2853 7.06958 14.2242 6.99178C14.1631 6.90938 14.0994 6.82688 14.0332 6.74448C13.9263 6.61628 13.8245 6.48809 13.7277 6.35989C13.6309 6.23159 13.5342 6.10338 13.4374 5.97518L13.9034 4.99298C13.9645 5.07538 14.0205 5.15778 14.0714 5.24018C14.1274 5.32268 14.1886 5.40738 14.2548 5.49438C14.3515 5.62718 14.4559 5.76228 14.5679 5.89968C14.6851 6.03248 14.8098 6.15379 14.9422 6.26369C15.0797 6.37359 15.2248 6.46518 15.3776 6.53848C15.5304 6.60708 15.6908 6.64149 15.8588 6.64149H16.2942V7.65118H15.8512Z" fill="white"/>
<path d="M22.0154 7.11541C21.8626 7.14291 21.6615 7.17501 21.412 7.21161C21.1624 7.24821 20.8875 7.28721 20.587 7.32841C20.2917 7.36501 19.981 7.40391 19.6551 7.44511C19.3292 7.48181 19.016 7.51841 18.7156 7.55501C18.5374 7.57791 18.3413 7.59631 18.1274 7.61001C17.9136 7.61921 17.6971 7.6283 17.4782 7.6375C17.2592 7.6421 17.0479 7.64661 16.8442 7.65121C16.6405 7.65121 16.4597 7.65121 16.3019 7.65121C16.2458 7.65121 16.1873 7.64431 16.1262 7.63061C16.06 7.61691 15.9989 7.59851 15.9428 7.57571C15.8817 7.54821 15.8334 7.51611 15.7977 7.47951C15.757 7.43831 15.7366 7.39251 15.7366 7.34211V6.95061C15.7366 6.89561 15.757 6.84981 15.7977 6.81321C15.8334 6.77201 15.8817 6.73991 15.9428 6.71701C15.9989 6.68961 16.06 6.67131 16.1262 6.66211C16.1873 6.64841 16.2458 6.64151 16.3019 6.64151C16.4546 6.64151 16.6176 6.64151 16.7907 6.64151C16.9689 6.63691 17.1395 6.63231 17.3025 6.62781C17.4705 6.61861 17.6259 6.60941 17.7684 6.60031C17.911 6.58651 18.0281 6.57051 18.1198 6.55221C18.074 6.49271 18.0256 6.4263 17.9747 6.353C17.9237 6.2752 17.8754 6.19271 17.8295 6.10571C17.7888 6.01871 17.7532 5.92941 17.7226 5.83781C17.6921 5.74171 17.6768 5.64551 17.6768 5.54931C17.6768 5.35241 17.7379 5.1349 17.8601 4.8968C17.9823 4.6587 18.1427 4.43661 18.3413 4.23051C18.5399 4.01991 18.7614 3.84591 19.0059 3.70851C19.2554 3.56651 19.5024 3.49561 19.7468 3.49561C19.9556 3.49561 20.1465 3.53221 20.3197 3.60551C20.4979 3.67871 20.6583 3.77031 20.8009 3.88021C20.9435 3.98551 21.0682 4.10231 21.1752 4.23051C21.2872 4.35871 21.3814 4.47781 21.4578 4.58771L21.3356 4.66331C21.1879 4.54881 21.03 4.46181 20.862 4.40221C20.694 4.34271 20.5132 4.3129 20.3197 4.3129C20.1924 4.3129 20.0447 4.32441 19.8766 4.34731C19.7086 4.36561 19.5355 4.39541 19.3572 4.43661C19.179 4.47781 19.0059 4.53281 18.8378 4.60141C18.6698 4.66561 18.5221 4.74571 18.3948 4.84191C18.4457 5.03421 18.5348 5.21961 18.6621 5.39821C18.7945 5.57221 18.9397 5.72791 19.0975 5.86531C19.2605 6.00271 19.426 6.11721 19.594 6.20881C19.7621 6.29581 19.9072 6.3507 20.0294 6.3736C20.0549 6.3736 20.1262 6.36901 20.2433 6.35991C20.3604 6.34611 20.503 6.33011 20.671 6.31181C20.8391 6.29351 21.0199 6.27291 21.2134 6.25001C21.4069 6.22711 21.5902 6.20651 21.7633 6.18811C21.9416 6.16981 22.0969 6.15381 22.2293 6.14011C22.3668 6.12171 22.461 6.11031 22.5119 6.10571L22.0154 7.11541Z" fill="white"/>
</svg>
