<svg xmlns="http://www.w3.org/2000/svg" xmlns:xlink="http://www.w3.org/1999/xlink" viewBox="0 0 759.78 867.65"><defs><style>.cls-1,.cls-14,.cls-15,.cls-16{fill:none;}.cls-2{fill:#fff;}.cls-3{fill:#27a8e0;}.cls-4{fill:#ffcc03;}.cls-5{clip-path:url(#clip-path);}.cls-6{fill:#720030;}.cls-7{fill:#ff9218;}.cls-8{fill:#ff7b22;}.cls-9{fill:#fcccaa;}.cls-10{fill:#f7a78e;}.cls-11{fill:#0d72b9;}.cls-12{fill:#095cb5;}.cls-13{fill:#001f48;}.cls-14,.cls-15,.cls-16{stroke:#0059c5;stroke-linecap:round;stroke-linejoin:round;stroke-width:3px;}.cls-14{stroke-dasharray:9.62;}.cls-16{stroke-dasharray:16.95 16.95;}.cls-17{fill:#c7d7ff;}.cls-18{fill:#0071bc;}.cls-19{fill:#ffc043;}.cls-20{fill:#574943;}.cls-21{fill:#352b27;}.cls-22{fill:#ffaa16;}.cls-23{fill:#e17f6c;}.cls-24{fill:#3f3431;}.cls-25{fill:#daecff;}.cls-26{fill:#abceef;}.cls-27{fill:#8da1db;}.cls-28{fill:#c80020;}.cls-29{fill:#a30028;}.cls-30{fill:#003249;}.cls-31{fill:#ee3e2d;}.cls-32{fill:#c90028;}.cls-33{fill:#33110a;}.cls-34{fill:#d31c1c;}.cls-35{fill:#e5d8bd;}.cls-36{fill:#c9ad8d;}.cls-37{fill:#823f1d;}.cls-38{fill:#673213;}.cls-39{fill:#a6002d;}.cls-40{fill:#ff255a;}.cls-41{fill:#0a7f40;}</style><clipPath id="clip-path"><path class="cls-1" d="M402.17,677.7c296.7,0,338.7-60.12,333.52-125.28C733.17,520.7,767.41,451,766.47,423.27c-3.56-105.43-15.73-129.78-46.2-173.63-36.58-52.65-95.18-23.56-138.72-34.51-59.08-14.87-20.48-35.1-115.57-52C391.72,149.85,363,175,327.9,196.53c-25.8,15.82-85-100-138.43-104.72C-17.49,145.52-55.08,381.48,103,408.25,98,456.24,37.3,522.46,47,585S152.26,677.7,402.17,677.7Z"/></clipPath></defs><g id="Layer_2" data-name="Layer 2"><g id="Layer_1-2" data-name="Layer 1"><path class="cls-2" d="M654.18,186.14C608.64,225.71,521.6,188.35,496.35,138S699.72,146.56,654.18,186.14Z"/><path class="cls-2" d="M402.17,677.7C843.29,677.7,721.4,544.81,718.54,460c-3.56-105.43,32.2-166.54,1.73-210.39C683.69,197,625.41,224.7,581.55,215.13c-83.49-18.24-97.35-72.36-163.83-66.49S310,182.73,233.11,229.36C86.91,318,108.89,350.24,103,408.25,98,456.24,37.3,522.46,47,585S152.26,677.7,402.17,677.7Z"/><path class="cls-3" d="M147.52,39.66c0,1.44-45.28,124.32-45.28,124.32l-58.9-18.12-7.59,68.7,98.83,11.18Z"/><path class="cls-4" d="M42.65,214c-48.53,7.43-58.86-60.45-14.21-70.8S91.18,206.56,42.65,214Z"/><polygon class="cls-3" points="256.95 107.49 260.52 173.16 488.17 58.73 452.66 12.33 272.49 145.62 256.95 107.49"/><path class="cls-4" d="M483.21,59.94c-40.46,7-50.18-49.6-13-59S523.66,53,483.21,59.94Z"/><g class="cls-5"><path class="cls-6" d="M386.54,867.65a42.85,42.85,0,0,1-14.25-2.88c-5.19-2-14.16-8-26.68-17.78a265,265,0,0,1-45.89,4.29c-5.48,0-8.81-1.46-10.84-3.19h-.05c-2.83.22-5.92.33-9.18.33-1.72,0-3.47,0-5.24-.09-11.65,9-20,14.57-25,16.44a42.85,42.85,0,0,1-14.25,2.88c-7.72,0-11.45-3.33-13.22-6.12-3.16-5-2.61-11.84,1.69-21,.24-.52.49-1,.76-1.53l-.44-.14a5.84,5.84,0,0,1-3.62-3.56c-.71-2-1.52-4.25,12.35-115.11,7.74-61.86,17.49-136.47,24.84-190.08l.53-3.9c-8-.21-32.86-1.84-35.4-13.58-1-4.69-.07-10,2.28-18.19-34.58-29.75-55.5-49.3-62.18-58.14-7.67-10.14-14.43-46.08-20.11-106.87-2,.1-3.9.15-5.83.15-24.93,0-48.32-8.22-69.51-24.42l0,0c-2.58-1.71-5.11-3.51-7.54-5.37a5.82,5.82,0,0,1-2.27-4.19c-5.13-69.36,29.14-115.1,58.79-141.26,31.89-28.14,64.56-39.86,65.94-40.34a5.85,5.85,0,0,1,5.31.74l7.57,5.39a5.82,5.82,0,0,1,2.43,5.26c0,.3-2.47,30.87,12.63,49,6.27,5,14.84,7.74,25.47,8a5.79,5.79,0,0,1,3.05.94c4.16,2.73,7.8,5.54,7.95,5.66a5.81,5.81,0,0,1,2.21,5.33c-3.89,30.85,1.74,45.34,7.54,52.12a4.08,4.08,0,0,0,.48.14c14.72-8.38,34.07-14.41,53.91-16.72A184,184,0,0,1,332,228.69c29,0,65.21,6.95,75.46,18.58,6.95,7.88,10.62,26,9.61,95.33a32.66,32.66,0,0,1,8-6.77l-.4-.38-.72-.68-.12-.11-.61-.62-.14-.15c-.25-.25-.44-.46-.63-.66l-.15-.17c-.22-.24-.44-.5-.66-.76l-.13-.16-.54-.69-.2-.27c-.18-.24-.38-.54-.57-.83l0,0c-.2-.3-.38-.6-.55-.9l-.17-.32c-.11-.21-.25-.48-.37-.75l-.12-.26c-.15-.34-.29-.7-.42-1.05l-.08-.27c-.1-.28-.18-.58-.26-.88l-.08-.34c-.09-.36-.16-.76-.22-1.16-.65-4.69,1.66-12.39,6.34-21.1.27-.52.56-1,.86-1.57.88-1.57,1.83-3.15,2.82-4.72.71-1.12,1.46-2.26,2.22-3.39.53-.77,1.07-1.55,1.64-2.35.41-.58.84-1.17,1.28-1.77C434,287.13,435,284.6,436,282c8.58-22,13.11-32.73,17.64-36.16,4.22-3.2,16.15-6.9,35.3-12.61,3.25-1,6.45-1.92,9.45-2.84l1.32-.84c1.15-.72,2.26-1.41,3.34-2.06l2.12-1.25c1.34-.77,2.67-1.52,4-2.22l1.84-1,1.76-.9c1.14-.57,2.22-1.08,3.24-1.55l1.48-.66.69-.3c1.77-.74,3.41-1.37,4.92-1.87l.51-.16a29.36,29.36,0,0,1,3.8-1,30.44,30.44,0,0,1,5-.38h.41a38.51,38.51,0,0,1,11,1.75c.55.17,1.1.36,1.65.56a34.48,34.48,0,0,1,3.26,1.43,28.31,28.31,0,0,1,3.18,1.88c.36.24.71.51,1.06.78l.25.2c.31.24.63.51,1,.79,3.64,3.21,6.42,7.49,8.87,11.26a43.59,43.59,0,0,0,4.72,6.5c1.26,1.07,8,4.22,13.27,5.66,7.78,2.15,11.54,5.29,13.19,7.15l.47.34c.4.3.8.61,1.18.93l0,0c.4.33.78.67,1.16,1l.07.07c.38.35.73.7,1.08,1.06l0,0c.35.37.7.75,1,1.14l.07.08c.32.36.63.74,1,1.12l0,.06c2,2.53,3.94,5.44,6.34,9.11a271.67,271.67,0,0,0,19,26.09c11,13.38,23.94,26.09,35.39,37.3,20.23,19.83,34.85,34.16,34.85,46.69,0,4.48-1.14,9.94-3.38,16.26,2.24-3.09,6-5.55,10.75-6.93l2.07-5.26c12.29-31.34,15.26-36.44,21.18-36.44a6.3,6.3,0,0,1,2.28.41,12.79,12.79,0,0,1,7.26,6.89c2.65,5.85,2,14.75-2,27.08a11.69,11.69,0,0,1,4.42,7.86,13.43,13.43,0,0,1,2-.16,10.62,10.62,0,0,1,5.76,1.66c3.59,2.33,5.29,6.55,5,11.59a10.52,10.52,0,0,1,5.91,3.17c3.49,3.79,3.62,9.66.45,15.59a5.74,5.74,0,0,1-.55,1.34c-8.27,14.67-16.1,23.37-23.9,26.52a8.23,8.23,0,0,1,1.21,1.5c3.33,5.23.94,24.34.14,30.07-1.21,8.53-20.51,61.72-25.58,68.9h0c-2.9,4.07-9.55,8.74-16.57,11.64l0,0-1.16.46-.11,0-1.09.4-.26.09-1,.32-.26.08-1,.3-.35.1-.9.24-.42.1-.86.2-.45.1-.86.16-.5.1-.83.12-.49.08-.86.09-.53.06-.76.06-.58,0-.93,0h-.47c-.5,0-.93,0-1.37,0-.88,0-3.44-.16-12.84-2,3.85,7,7.45,13.89,10.77,20.5q1.7,3.38,3.3,6.68l.95,2,.79,1.67c.75,1.59,1.49,3.16,2.2,4.7l.81,1.8.78,1.73,1.38,3.14c.32.73.64,1.49,1,2.24l.94,2.24,1,2.48.61,1.55.77,2,.62,1.67.55,1.52.51,1.48.49,1.43c.15.45.49,1.53.49,1.53.14.44.27.85.39,1.25l.39,1.35.38,1.34.13.5.32,1.27c.1.43.2.84.29,1.25.37,1.68.71,3.54,1,5.52l.21,1.46c.55,4.13,1,8.92,1.18,14.25,0,.55,0,1.11.07,1.67.17,4.71.22,9.92.16,15.47l-.06,3.44c0,2.28-.11,4.55-.19,6.77l-.06,1.66c0,1.1-.08,2.19-.13,3.26s-.1,2.14-.15,3.18-.11,2.07-.16,3.08-.11,2-.17,3l-.09,1.43c-.06.94-.11,1.86-.17,2.76-.15,2.23-.3,4.3-.44,6.17l-.17,2.14c-.22,2.73-.41,4.88-.54,6.3l-.18,2a5.87,5.87,0,0,1-1.66,3.51c-10.13,10.24-20.77,20.42-31,30.27-29,27.77-56.53,54.11-68.24,77.21a69.71,69.71,0,0,1,12.32,7.56l.84.69a22.83,22.83,0,0,1,7,8.95,14.35,14.35,0,0,1,.54,1.73,12.48,12.48,0,0,1,.31,3.68c0,.32-.06.63-.11.93a11.6,11.6,0,0,1-2.08,5,14.14,14.14,0,0,1-3,3.07c-.44.33-.91.65-1.4,1-3.51,2.18-8.29,3.6-14.2,4.23-.68.08-1.37.14-2.07.2l-2.11.14c-1.41.08-2.87.14-4.35.16h-2.22c-2.93,0-6-.13-9.06-.35l-2.28-.19c-2.65-.23-5.31-.55-7.9-.93-1.12-.16-2.22-.34-3.31-.53-.72-.12-1.44-.25-2.15-.39l-2.13-.43c-1.81-.38-3.59-.81-5.27-1.26-.82-.22-1.61-.45-2.38-.68l-.57-.18c-.43-.13-.84-.27-1.25-.41l-.52-.17c-.83-.29-1.63-.58-2.39-.88-1.23-.49-2.4-1-3.47-1.55a27.79,27.79,0,0,1-3.71-2.25l-.26-.2c-.32.16-.64.33-1,.49l-.78.35a55.92,55.92,0,0,1-7.32,2.46l-1,.28-2.2.55-2.31.52c-1.94.43-4,.85-6.19,1.24l-1.31.24c-1.74.3-3.55.59-5.4.87l-1.39.21c-3.76.54-7.65,1-11.54,1.41-6.08.62-12,1-17.66,1.21-2.32.08-4.59.12-6.75.12h-.32c-2.8,0-5.48-.07-8-.21-8.36-.47-14.85-2.88-18.75-7-.24-.25-.47-.5-.69-.77-4.56-5.45-4.36-12.89.54-19.39l.64-.81a29.8,29.8,0,0,1,3.81-3.81c.58-.49,1.18-1,1.8-1.42a54,54,0,0,1,15-7.41c-3.59-26.71-13.22-51-21-70.65-4.27-10.77-8-20.07-9.87-27.78,0-.08-.08-.35-.09-.38l-.08-.37s-.1-.52-.1-.54l-.15-.91-.09-.62-.16-1.28-.15-1.43-.17-1.76-.14-1.78-.15-2.15-.13-2.35-.11-2.46-.1-2.73-.08-2.92-.06-3.3,0-3.54v-3.75l0-4,0-1.91.08-4.31.06-2.55.06-2.12.09-2.63.08-2.29.11-2.67.11-2.48.12-2.71.14-2.75s.13-2.46.13-2.48c1.12-20.11,3.1-42.51,5.91-66.64l-8.51-7c-9.1-7.53-24.37-20.2-37.25-31,.21,50.32.32,115,.27,172.37C393,826,392.6,830,392,831.58a33.9,33.9,0,0,1,6.1,9c4.29,9.13,4.85,16,1.69,21C398,864.32,394.26,867.65,386.54,867.65ZM643.79,469.13l17.6,6.62c5-8.44,12.16-18.73,17.74-26.28,7.63-10.34,12-15.37,14.66-17.88-3.73-7.95-4.62-15.82-3.64-29.16,0-.38,0-.76.05-1.14-.18.43-.36.85-.55,1.28q-2.1,4.76-4.74,9.76l-.84,1.55L683,415.93l-1,1.77c-.27.48-1,1.76-1,1.76-.3.52-1,1.78-1,1.78-1.66,2.78-3.44,5.63-5.3,8.47l-1.6,2.41-1.33,2-1.36,2-1.4,2-1.59,2.23L666,442.1l-.86,1.17c-.81,1.08-1.57,2.1-2.35,3.12l-1.47,1.91-.71.93-1.62,2-1.65,2.06-1.67,2.07-.85,1-1.7,2.05-1.74,2.06-1.78,2.07-1.64,1.89L646,466.7ZM415.54,396.69c-1.22,23.51-3.47,44.25-8.29,60.55a216.56,216.56,0,0,0,45.61-19.47,15.88,15.88,0,0,1,.56-1.5l-.07-.62.38,0,.06-.12-.45,0c-.12-1.06-.24-2.25-.37-3.56v0c-.81-7.93-1.86-19.7-2.68-33.92-.25.14-.52.28-.79.41l-.12.06-.86.42-1,.45-.32.14-.89.37-.09,0-1,.39-1,.35-.35.11L443,401l-.3.08-1,.28-.2,0-.88.2-.32.07-.76.14-.38.07-.95.14h-.1c-.36.05-.73.09-1.09.12l-1.1.08-.35,0-.89,0h-1.57l-.93-.05-.38,0-.79-.08-.29,0-1.2-.17A35.61,35.61,0,0,1,415.54,396.69ZM200.13,313.47c8.4,74.83,11.47,86.78,12.22,88.67.39.92,3.61,6.35,29.44,25.65-6.11-32-12.5-94.09-10.58-133.08A222.16,222.16,0,0,1,200.13,313.47Z"/><path class="cls-7" d="M580.18,451.53c45.38,16.94,92.47,34.64,103.3,38.84s23.9,50.94,20.59,55.59-16.2,12.89-27.57,12.36-89-19.25-110.82-28.38S555,442.13,580.18,451.53Z"/><path class="cls-8" d="M686.52,551a65,65,0,0,1-13.2-5.21A85.32,85.32,0,0,1,663,539.47q-3.42-2-6.72-4.23C643.92,527.07,633.38,517,623,506.6c-9.69-9.74-19.9-19.06-29.1-29.28a214.64,214.64,0,0,1-13.5-17.15c-2.22-3.05-4.46-6.09-6.67-9.15-20.45,4.77-27.91,70.62-8,78.92,21.84,9.13,99.45,27.84,110.82,28.38,6,.28,12.39-1.87,17.59-4.65C691.54,552.85,689,552,686.52,551Z"/><path class="cls-9" d="M711.58,457.13c1.63,1.46,3.28,2.92,4.93,4.37,4.64-8.4,9.09-16.73,13.08-23.68,1-1.8-21.66-11.45-22.85-9.76-3,4.31-7,9.32-11.45,14.7C700.89,447.35,706.19,452.29,711.58,457.13Z"/><path class="cls-9" d="M706.79,395.34c5.79-14.17,16.47-43.85,19.9-42.56,10.15,3.82,2.93,25.18-2.71,38.57-.61,1.47-1.18,2.79-1.72,4,11.65,8.33,22.7,20.89,29.62,24.1-9.22,16.35-16.54,22.56-21.93,24.32a24.8,24.8,0,0,1-28.94-11c-4.71-8.09-6.28-14.94-4.94-31.38C698.73,400.06,703.6,398.46,706.79,395.34Z"/><path class="cls-10" d="M715.4,428.26c12.1,10.16,26.58,4.5,32-6.77-2.88-1.29-19.18-20.5-20.85-36-10.94,0-16.24,22.3-19.86,21.17C713.76,410.74,718.33,419.1,715.4,428.26Z"/><path class="cls-9" d="M716.83,395.73c3.49-7.35,9.35-11.88,13.07-10.11,3.36,1.6,3.81,7.76,1.32,14.34,4.07-4.34,8.83-6.31,11.76-4.41,3.15,2,3.11,7.85.23,13.79,3.93-1.88,7.66-2,9.55,0,2.79,3,.53,9.65-5,14.77s-12.35,6.82-15.14,3.78c-1.53-1.66-1.5-4.41-.28-7.39-2.06.77-4,.8-5.42-.14-2.71-1.76-3.06-6.31-1.27-11.33-2.89,2.95-6,4.3-8.37,3.2C713.52,410.48,713.33,403.08,716.83,395.73Z"/><path class="cls-10" d="M725.26,399.36c.52,4.59-3.35,11.85-10.51,12.12-6.61.25-15.33-3.93-15.85-8.52s4.83-8.95,11.94-9.75S724.74,394.78,725.26,399.36Z"/><path class="cls-9" d="M723.2,399.81c.49,4.36-5.2,8.58-12.71,9.43s-14-2-14.49-6.36,5.2-8.58,12.71-9.43S722.71,395.45,723.2,399.81Z"/><path class="cls-7" d="M661.46,488.25c5.14-13.22,34.39-52.92,38-53.62s28.27,16.26,29.92,18.86.46,17.83-.71,26.13-21,62-24.56,66.34S656.31,501.48,661.46,488.25Z"/><path class="cls-7" d="M550.28,437.56c27,15.68,52.1,39.21,75.47,73.58s56.12,94,61.76,119.51,0,81.63,0,81.63-63.19,41.11-141.15,36.81c-56.77-3.14-105.14-20.77-107.34-29-1.15-4.28-5-43.23,5.73-133.47S455,458,458.17,440.51,517.52,418.49,550.28,437.56Z"/><path class="cls-7" d="M464.71,437.2c-10.74,7.64-46.19,27-81.28,30.8s3.94,68.74,38.49,58.54c21.9-6.47,39.7-13.08,54.54-21.11C483.13,501.82,469.12,434.06,464.71,437.2Z"/><path class="cls-8" d="M436,514q-4.89-6.12-9.6-12.35c-1.51-2-3-4-4.51-6l-2-2.7-1.11-1.5c-.18-.24-.83-1.11-.64-.87-4-5.07-8.58-9.91-11.2-15.9A21.63,21.63,0,0,1,404.83,464a144.66,144.66,0,0,1-21.4,4.05c-35.09,3.76,3.94,68.74,38.49,58.54q10.21-3,19.28-6.12Q438.56,517.25,436,514Z"/><path class="cls-8" d="M522.48,612.79c4.59,22,27.21,20.77,24.35-1.43s-33.9-120.31-48.1-149.91-34.26-27.22-24.11-4.06S501.47,512.17,522.48,612.79Z"/><path class="cls-8" d="M627.29,609c7.17,19.7,29.77,15.71,24.3-4.41s-48.09-106.7-65.81-132.2-37.59-20.76-24.7-.68S594.45,518.8,627.29,609Z"/><path class="cls-8" d="M583.52,534.12c5.26.72,23.5-21.36,24.57-32.58s-51.54,3.27-51.54,3.27S579.08,533.52,583.52,534.12Z"/><path class="cls-8" d="M563,504.54S553.33,529.6,544.5,531c-4.38.71-33.66-13.72-50.85-31s-31.51-42-29.84-50.77C466.78,433.66,563,504.54,563,504.54Z"/><path class="cls-11" d="M547.87,725.17S532,835.55,536.32,843.6s35.45,13.43,55.59,11.28,23.9-14.5-7.25-28.2c13.87-33.74,62-73.13,102.85-114.4C649.41,671,547.87,725.17,547.87,725.17Z"/><path class="cls-12" d="M552.79,777.27c2.46-5,4.47-10.25,7.71-14.79,6.26-8.76,14.83-15.37,23.84-21.11s18.28-10.89,27.71-15.71,19.13-9.35,28.6-14.22a8.3,8.3,0,0,1,2.44-2.7c4.74-3.34,9.43-7.22,14.25-11.12-45.45-6.6-109.47,27.55-109.47,27.55s-7.1,49.43-10.5,84.55c2.1-5,4.31-10,6.68-14.94C546.89,788.91,549.9,783.12,552.79,777.27Z"/><path class="cls-13" d="M584.66,826.68c-9.73,14.4-48.5-2.91-48.5-2.91-.75,10.41-.85,17.94.16,19.83,4.3,8.06,35.45,13.43,55.59,11.28S615.81,840.38,584.66,826.68Z"/><path class="cls-11" d="M439,720.07c5.37,21.84,27,59.8,31.63,104.08C440,832,436.51,853.27,462.29,854.7s68.49-4.91,72.66-11S547.51,734,547.51,734Z"/><path class="cls-12" d="M525.34,731.18a165.58,165.58,0,0,1,7.72,21.48,211.81,211.81,0,0,1,7.33,35.53q.69,5.92,1,12c3.22-30.65,6.09-66.11,6.09-66.11Z"/><path class="cls-13" d="M470.65,824.15C440,832,436.51,853.27,462.29,854.7s68.49-4.91,72.66-11c1-1.46,2.77-11.46,4.08-21.37C534.43,830.25,480.82,840.2,470.65,824.15Z"/><path class="cls-11" d="M687.51,712.28s5.64-56.12,0-81.63c-2.35-10.65-9.42-27.23-18.57-45.43-123.32,17.87-145.63.32-161.8,9.11-22.38,12.18-37.06,67.68-54.25,67.41a26.44,26.44,0,0,1-14.46-5.12c-2.28,41.16-.2,60.51.59,63.45,2.2,8.25,50.57,25.88,107.34,29C624.32,753.39,687.51,712.28,687.51,712.28Z"/><path class="cls-12" d="M599.58,745.91a1.41,1.41,0,0,0-1.69-1A242.06,242.06,0,0,1,565,748.26a229,229,0,0,1-33-1.46q-4.54-.52-9.06-1.23c-1.44-.22-2.88-.35-4.32-.65-.69-.14-1.41-.15-2.1-.33a10.42,10.42,0,0,1-2.07-.8.82.82,0,0,0-.81,1.42,24.92,24.92,0,0,0,3.52,1.72,22.4,22.4,0,0,0,3.91,1c2.74.63,5.55,1,8.33,1.39,5.59.76,11.2,1.33,16.83,1.65.74,0,1.49.08,2.23.11a96.83,96.83,0,0,1-2.09,11.82c-1,4.48-2.17,9-2.85,13.5s-1,9.39-1.5,14.08-1.1,9.5-1.78,14.24l-1.11,7.93c-.19,1.32-.39,2.64-.59,4a13.43,13.43,0,0,0-.21,2c0,.71-.06,1.4-.13,2.11a.69.69,0,0,0,1.35.27c.3-1.16.76-2.3,1-3.49s.43-2.36.65-3.55c.42-2.37.84-4.74,1.18-7.12q1-7.07,1.76-14.15c.51-4.76.83-9.55,1.42-14.3.57-4.55,1.58-9,2.47-13.53.49-2.51,1-5,1.32-7.57a50.67,50.67,0,0,0,.51-6.13,222.39,222.39,0,0,0,30-.81q9.46-.9,18.79-2.73A1.39,1.39,0,0,0,599.58,745.91Z"/><path class="cls-12" d="M680,680.64c-9.54-11.51-11-27-15.47-40.77a1.1,1.1,0,0,0-2.1.13C658,645.86,676.46,693.5,680,680.64Z"/><path class="cls-12" d="M539,656.59c1.66-8.47-9.05-29.77-6.22-8.84,3.3,16.53-3.92,36.36-19.14,44.47-2,.64-6.65,2-3,4.2C529.25,698.54,539,672,539,656.59Z"/><path class="cls-14" d="M448.13,670.25c-5.95-1.38-8.87-3.6-8.87-3.6"/><path class="cls-15" d="M672,595.18l-8.4,1.36"/><path class="cls-16" d="M646.8,599c-93.11,12.86-119.37.86-132.74,5.37-10.5,3.54-22.13,32.79-33.79,50.92"/><path class="cls-15" d="M475.34,662.19A27.23,27.23,0,0,1,469.2,668"/><path class="cls-17" d="M527.67,611.94c4.59,22,27.21,20.77,24.35-1.43s-33.9-120.31-48.1-149.91-34.26-27.21-24.11-4.06S506.66,511.32,527.67,611.94Z"/><path class="cls-18" d="M542.71,621c7.87-1.2,5.52-16.69-2.87-15.91S534.83,622.21,542.71,621Z"/><path class="cls-12" d="M454.73,684.88c4.84,0,6.44-15.92,1.09-15.92S449.88,684.88,454.73,684.88Z"/><path class="cls-17" d="M632.48,608.12c7.17,19.69,29.77,15.7,24.3-4.42S608.69,497,591,471.5s-37.59-20.76-24.7-.68S599.64,518,632.48,608.12Z"/><path class="cls-18" d="M648,613.47c9-1.78,4.71-17.6-4.84-16.83S640,615,648,613.47Z"/><path class="cls-19" d="M583.52,528.13c5.26.72,23.5-21.36,24.57-32.58S563,505.17,563,505.17,579.08,527.53,583.52,528.13Z"/><path class="cls-19" d="M556.55,504.81s-8,18.43-12,20.22-33.66-13.73-50.85-31-31.51-42-29.84-50.77C466.78,427.67,556.55,504.81,556.55,504.81Z"/><path class="cls-9" d="M459.87,441.32s34.92,42.25,96.14,65.53c10.16,3.86,40.93-2.07,49.06-8.78C655.45,456.52,690,401.4,690,379.29c0-16.56-40.37-45.48-68.93-80.3-22-26.87-22.65-36.52-33.39-41.89C575.42,251,459.91,254.9,455.94,318,452,380.45,459.87,441.32,459.87,441.32Z"/><path class="cls-10" d="M461,362.81c10.92-16.86,23.64-32.74,38.44-46.37C515,302.15,532.63,291,551.59,281.89c10.17-4.9,20.6-9.29,31.15-13.33,4.31-1.66,8.67-3.21,13-4.81a23.12,23.12,0,0,0-8-6.65C575.42,251,459.91,254.9,455.94,318c-1.19,18.84-1.3,37.54-.88,54.46Q457.94,367.56,461,362.81Z"/><path class="cls-10" d="M457.19,319.22c-1.23,17.9-1.43,35.67-1.09,52,7-14.89,7,20.87,24.9,20.87,8.64,0,13.86-10.89,24.31-83.77,3.28-22.9-6.57-30.93-19.1-31.18C470,287,458.47,300.58,457.19,319.22Z"/><path class="cls-10" d="M613,365.71c-1.68-8.93-17-25.16-26.4-22.27,7.58,4.9,16.8,8.06,20,21.63s-21.7,16.69-29.5,10.36a4.5,4.5,0,0,0-1-.56c-1-.53-2.31.14-1.94,1.35C582.26,388.23,615.85,380.78,613,365.71Z"/><path class="cls-10" d="M683.47,394.15c-4.88,5.35-11.58,7.91-18.65,8.56s-14.3-.94-21.23-2.22c-4-.73-7.58-1.38-10.7-1.66a54.53,54.53,0,0,0-6.13-.24c-1,0-2,.07-2.93.15-.47,0-.94.08-1.41.14l-.49.09A116.07,116.07,0,0,0,601,405.35c-3.37,1.3-6.71,2.68-10,4.08l-.57.24-1.25.53-2.5,1.06q-3,1.28-6,2.52c-13.56,5.63-27.75,10.66-42.6,11a51.32,51.32,0,0,1-31.95-10.27l-.74-.38c-7-3.79-12.13-9.91-16.8-16.26a98.86,98.86,0,0,1-6.67-10.49c-2-3.6-3.73-7.37-5.94-10.85-.37-.58-.75-1.14-1.14-1.69,0-.06-.19-.25-.31-.39-.49-.59-1-1.16-1.54-1.72-1.16-1.23-2.4-2.39-3.66-3.52a102.31,102.31,0,0,1-7.55-7,37.69,37.69,0,0,1-6.89-11,755,755,0,0,0,5,90.11s34.92,42.25,96.14,65.53c10.16,3.86,40.93-2.07,49.06-8.78C650.46,460.64,683,412.19,689,386.79A50.06,50.06,0,0,1,683.47,394.15Z"/><path class="cls-20" d="M597.07,297.41c-3.23,1.87-5.48,7.53-3.82,9.66s8.6,1.54,14.52,5.09c3.66,2.2,2.72,8.21,5.61,7.65s3.25-9.77-.64-15.72S600.31,295.54,597.07,297.41Z"/><path class="cls-20" d="M565,309.28c3.74-1,2.15-8.42-.65-10.14-13-8.18-20.24,38.25-12,17.13C553.8,312.8,561.3,310.29,565,309.28Z"/><path class="cls-2" d="M596.92,341.52c12.26,0,12.81-25.25,1.09-25.25S582,341.52,596.92,341.52Z"/><path class="cls-2" d="M562.28,341.52c13.61,0,12.44-25.78.72-25.78S548.67,341.52,562.28,341.52Z"/><path class="cls-20" d="M656.49,422.61c-2.28-11.34-7.47-32.51-16.24-44.11a3.64,3.64,0,0,0-3.92-1.25c-33.35,9.58-73.18,10.12-89,2.78a3.65,3.65,0,0,0-3.78.35c-12.36,9.46-23.81,34.32-28.92,54.62a3.67,3.67,0,0,0,6.14,3.51c7.25-7.32,11.16-5.75,11.16-5.75s66.83,10.79,105.45-9.64a3.67,3.67,0,0,1,2.64-.32,77.49,77.49,0,0,1,11.36,3.86A3.65,3.65,0,0,0,656.49,422.61Z"/><path class="cls-21" d="M656.49,422.61c-2.27-11.3-7.43-32.35-16.15-44a14.33,14.33,0,0,1,1,2.32,17.08,17.08,0,0,1-.34,9.71,31,31,0,0,1-9.26,14.19,51.91,51.91,0,0,1-30.42,13c-11.89,1-23.5,1.18-35.12-2.05-10.74-3-22.8-7.48-27-18.74a16.27,16.27,0,0,1,1.12-13.7c-11,11-20.93,33.22-25.57,51.67a3.67,3.67,0,0,0,6.14,3.51c7.25-7.32,11.16-5.75,11.16-5.75s66.83,10.79,105.45-9.64a3.67,3.67,0,0,1,2.64-.32,77.49,77.49,0,0,1,11.36,3.86A3.65,3.65,0,0,0,656.49,422.61Z"/><path class="cls-20" d="M455.94,318c-1.1,17.37-1.28,34.61-1,50.46,6.27-14.45,18.31-20.82,17.63-6.8-.89,18.62-.1,27.06,4.55,27.06,7.7,0,12.35-10.57,21.66-81.28,2.93-22.23-5.85-30-17-30.26C467.39,286.66,457.08,299.89,455.94,318Z"/><path class="cls-21" d="M455.94,318c-1.1,17.37-1.28,34.61-1,50.46,6.27-14.45,18.31-20.82,17.63-6.8-.89,18.62-.16,23.91,2,23.91,7.7,0,9.51-6.5,18.82-77.21,2.93-22.23-.51-30.94-11.67-31.18C467.39,286.66,457.08,299.89,455.94,318Z"/><path class="cls-22" d="M512.69,231.85c-13.59,5-49.59,14.15-55.5,18.62s-18.8,43.87-23.81,53S526.28,226.81,512.69,231.85Z"/><path class="cls-7" d="M454.85,360.22s23.55-30.35,63.84-60.69,71.46-41,71.46-41-2.22-3.5-10.73-5.84c-5.48-1.52-13.83-5.15-15.84-7.16-4.66-4.66-8.58-14.43-15-18.85s-15.27-5.13-20.17-4.29-25.78,8-62.18,40.22-43.24,55.62-42.49,61c.81,5.85,8.12,9.55,16.47,18A133.77,133.77,0,0,1,454.85,360.22Z"/><path class="cls-19" d="M520.56,245.4c6.52-2.83,7.81-8.14,6.85-14.09a23.18,23.18,0,0,0,21.82-2.54c.37-.25.71-.51,1-.77a19.74,19.74,0,0,0-1.71-1.34c-6.44-4.41-15.27-5.13-20.17-4.29s-25.78,8-62.18,40.22-43.24,55.62-42.49,61c.57,4.08,4.3,7.12,9.34,11.46a20.63,20.63,0,0,0,14.07-11.58,22.52,22.52,0,0,0-2.39-23,25.61,25.61,0,0,0,23.38-10.86,28.18,28.18,0,0,0,5.25-15.38,11.37,11.37,0,0,0-.54-3.86c7,2.5,13.56,1.63,19.71-4.94,4.61-4.91,7.38-11.7,5.84-17.94C505.17,250.18,514.4,248.07,520.56,245.4Z"/><path class="cls-9" d="M470.85,357.35c-1.79-15-21.84-22.31-39.14-18s-35.93,51-1.2,56.81C451.51,399.68,472.64,372.39,470.85,357.35Z"/><path class="cls-10" d="M430.9,346.69c-17.31,4.29-35.12,43.61-.39,49.45,16.29,2.75,32.67-13.07,38.35-27.32C470.51,364.71,448.21,342.39,430.9,346.69Z"/><path class="cls-23" d="M443.15,360.54a14.61,14.61,0,0,0-12.68,1,8.09,8.09,0,0,0-3.72,5.56c-.15,1,1.36,1.66,1.8.62,1.28-3.1,4.51-4.82,7.71-5.14a12.34,12.34,0,0,1,5.15.48,7.15,7.15,0,0,1,1,.4,9.12,9.12,0,0,1,1.23.67l.12.08.2.15c.14.1.27.22.41.33a7.94,7.94,0,0,1,.87.87l.08.1.23.3c.13.19.25.38.37.57a5.71,5.71,0,0,1,.35.64l0,.09c0,.09.07.18.11.28s.16.46.23.69a12.17,12.17,0,0,0-2.83.14,10.91,10.91,0,0,0-4.63,1.73,4.32,4.32,0,0,0-1.86,4.62,4.51,4.51,0,0,0,3.2,2.82,9.63,9.63,0,0,0,5.55-.16,1.46,1.46,0,1,0-.92-2.77,8.78,8.78,0,0,1-2.4.3,5.07,5.07,0,0,1-.94-.09l-.39-.08-.22-.07a3,3,0,0,1-.41-.18l-.2-.11a1.05,1.05,0,0,0-.26-.22l0,0a.83.83,0,0,1-.08-.12l0,0,0-.08a.41.41,0,0,0,0-.1c0-.06,0-.12,0-.19a.82.82,0,0,0,.06-.24s.15-.29.17-.33h0l.21-.24.07-.1s0,0,.11-.07a4.53,4.53,0,0,1,.46-.3l.32-.19a9.7,9.7,0,0,1,2.17-.72,10.54,10.54,0,0,1,4.33,0,1.52,1.52,0,0,0,1.79-1.56C450,365.74,446.92,362,443.15,360.54Z"/><path class="cls-21" d="M573.62,456.83c-40.34,3.51-57.78,15.75-69.17,23.07a251.81,251.81,0,0,0,51.56,27c10.16,3.86,40.93-2.07,49.06-8.78a334.44,334.44,0,0,0,33.83-32.22C638.46,465.76,614,453.31,573.62,456.83Z"/><path class="cls-24" d="M595,343.5c10.59,0,11.1-16.92,0-16.92S584.41,343.5,595,343.5Z"/><path class="cls-24" d="M561.24,343.5c10.6,0,11.1-16.92,0-16.92S550.64,343.5,561.24,343.5Z"/><path class="cls-2" d="M564.82,333.63c5.93,0,6.22-9.47,0-9.47S558.88,333.63,564.82,333.63Z"/><path class="cls-2" d="M598.64,333.63c5.94,0,6.22-9.47,0-9.47S592.71,333.63,598.64,333.63Z"/><path class="cls-25" d="M184.16,119.5l7.57,5.38s-12.06,62,43.77,63.34c4,2.62,7.57,5.38,7.57,5.38S234.21,202,234.19,207C234,250.5,257,252.56,257,252.56S155.8,365.89,63.31,295.18C53.72,165.53,184.16,119.5,184.16,119.5Z"/><path class="cls-26" d="M191.73,124.88s-6.19,69.72,51.34,68.72c-7.79,61.73,21.5,64.34,21.5,64.34S163.37,371.28,70.88,300.56C61.29,170.91,191.73,124.88,191.73,124.88Z"/><path class="cls-27" d="M199.43,226.27q.76,1.92,1.35,3.87l4.64-2.94c3.84-2.45-.75-14.26-5.85-12.25-.74.29-2.75,1.34-5.59,2.89C196.59,220,198.15,223.05,199.43,226.27Z"/><path class="cls-10" d="M147.16,272.88s-9-4.23-11.88-8.57-3.74-13.59-3-21.44,3.48-14.22,4.54-15.6,26.46-14.22,30.95-13.28c2.62.55,8.06,10.83,8.75,13.68S186.93,296,186.93,296l-36.18.86Z"/><path class="cls-28" d="M136.81,271.27c13.05-7.89,59.16-37,62.65-39.22,4.59-2.93-.89-17.05-7-14.64-4.89,1.93-56.06,31.32-65.93,38.33C113.12,265.29,123.77,279.15,136.81,271.27Z"/><path class="cls-29" d="M189.58,238.16a17.43,17.43,0,0,0-1.6-7.49,30.36,30.36,0,0,0-5.64-7.92c-11.74,6.51-30.8,17.52-43.72,25.34,6.62,2.68,8.88,10.78,7.74,17.31,12.65-7.85,31.62-19.79,43.19-27.09C189.56,238.26,189.57,238.2,189.58,238.16Z"/><path class="cls-29" d="M190.36,232.27c-22.31,13.23-44.51,26.62-67.09,39.37,3,2.42,8.08,2.93,13.54-.37,13.05-7.89,59.16-37,62.65-39.22,1.61-1,2-3.43,1.52-6Q195.66,229.14,190.36,232.27Z"/><path class="cls-9" d="M167.76,214c4.88,2.67,17.76,15.61,17.58,18.91s-5.63,8.54-6.8,9.34c-.67,1.78-2.71,7-7.38,5.34-2.89,4.61-6,7.36-8.68,6.93-2.56,9.28-7.74,10.35-11.55,9.55s-2-13.5-2-13.5l-10.44-6.71s-.66-9.06,2.56-14.6S167.76,214,167.76,214Z"/><path class="cls-10" d="M185.34,232.9c.06-1.08-1.28-3.19-3.28-5.63a12.37,12.37,0,0,1-5,4.89l-.36.19-.06.11h0a5.18,5.18,0,0,1-1.11,2.45,3.46,3.46,0,0,1-1.17,1.29,5.13,5.13,0,0,1-2.22,1.32l-1.73.34a5.09,5.09,0,0,1-2.68-.44,4.94,4.94,0,0,1-.68-.23,5.06,5.06,0,0,1-1.07,1.63L164.66,240a5.18,5.18,0,0,1-2.43.93,5.11,5.11,0,0,1-2.69,0l-.12,0h0a5.12,5.12,0,0,1-.56-.15.32.32,0,0,1-.14,0l-.46-.16a8.61,8.61,0,0,1-2.07,2.06c-3.44,2.4-7.59,1.88-10.76-.74a23.1,23.1,0,0,1-2.94-3.15c-.92-.79-.78-.74-.46-.47l-.21-.23a13.85,13.85,0,0,1-2.41-3.11l-.25-.38a37.67,37.67,0,0,0-.65,9.31l10.44,6.71s-1.78,12.7,2,13.5,9-.27,11.55-9.55c2.66.43,5.79-2.32,8.68-6.93,4.67,1.71,6.71-3.56,7.38-5.34C179.71,241.44,185.16,236.19,185.34,232.9Z"/><path class="cls-10" d="M179.6,239.22a12.55,12.55,0,0,0-.16-4.69,7,7,0,0,0-2.58-3.7,30,30,0,0,0-4.05-2.74l-2.47-1.49a6.68,6.68,0,0,0-2.68-1,.31.31,0,0,0-.29.47,7,7,0,0,0,2.2,2c.81.51,1.62,1,2.41,1.57A31.66,31.66,0,0,1,176.6,233a4,4,0,0,1,1.16,1.93,10.89,10.89,0,0,1,.31,2.67c0,1.82-.56,3.54-.7,5.33,0,.19.21.38.38.23A6.36,6.36,0,0,0,179.6,239.22Z"/><path class="cls-10" d="M171.81,245.19a24.49,24.49,0,0,0-.36-2.95,10.78,10.78,0,0,0-2.26-5.05,18.09,18.09,0,0,0-4.31-3.68,31.29,31.29,0,0,0-5.26-2.89c-.93-.38-1.84,1-.94,1.57,2.87,1.95,6.28,3.42,8.56,6.12a8.54,8.54,0,0,1,2,4.19c.16.91.3,1.83.42,2.75.05.43.1.86.11,1.29a9.88,9.88,0,0,0,0,1.44.9.9,0,0,0,1.71.25A6,6,0,0,0,171.81,245.19Z"/><path class="cls-10" d="M163.09,252.76a7.54,7.54,0,0,0,0-2.37,14.5,14.5,0,0,0-1.36-4.64,23.73,23.73,0,0,0-2.49-4.13,22.17,22.17,0,0,0-3.51-3.54,30.67,30.67,0,0,0-4.81-3.61c-.85-.45-1.75.75-1.17,1.47a33.48,33.48,0,0,0,4.67,4.23,19,19,0,0,1,3.75,4.2,17.17,17.17,0,0,1,2.32,5A23.15,23.15,0,0,1,161,252c.06.46.17.91.22,1.37a1.85,1.85,0,0,0,.13.7c.12.26.26.34.29.63a.33.33,0,0,0,.62.09c0-.05.18-.37.08-.28.18-.18.34-.22.46-.46A5.15,5.15,0,0,0,163.09,252.76Z"/><path class="cls-9" d="M192.38,247.77c-10,4.3-16,1.49-16.92-2.17s15.62-13.93,18.33-12.9,8.91,5.06,9.38,9.37,3.07,15.09-15.51,25.2c1.61,5.84-.2,23.84-.64,27.87-.05.52-25-16.4-25.64-18.94a64.67,64.67,0,0,1-1.52-12.5c-.44-9.7,8-19.42,19.17-16.61A55.79,55.79,0,0,1,192.38,247.77Z"/><path class="cls-10" d="M201.54,254.79a43.85,43.85,0,0,1-3.62,3.31,40.76,40.76,0,0,1-19.19,8.84c-5.71,1-12.81.12-16.37-5a10.57,10.57,0,0,1-1.71-4.07,16.88,16.88,0,0,0-.79,5.83,64.67,64.67,0,0,0,1.52,12.5c.6,2.54,25.59,19.46,25.64,18.94.44-4,2.25-22,.64-27.87C195.41,263.05,199.47,258.72,201.54,254.79Z"/><path class="cls-10" d="M194.52,247a1.26,1.26,0,0,0-1.66-.15,17.8,17.8,0,0,1-1.71,1.29c-.29.19-.58.39-.87.57a6.64,6.64,0,0,1-.78.43,13.34,13.34,0,0,1-1.93.76L187,250l-.27.06c-.36.07-.73.13-1.1.18a10.64,10.64,0,0,1-4.15-.25,9.68,9.68,0,0,1-2.07-.84,7.77,7.77,0,0,1-.81-.55A5.74,5.74,0,0,1,178,248a8,8,0,0,1-1.23-1.94,4.23,4.23,0,0,1-.41-1,2.29,2.29,0,0,0-.22-.67l-.15-.19,0-.21a.51.51,0,0,0-1-.14,1.53,1.53,0,0,0-.11.27c0-.06.12-.12,0,0a1.45,1.45,0,0,0-.4.7,6.22,6.22,0,0,0,0,1.22,5.1,5.1,0,0,0,.83,2.7,9.13,9.13,0,0,0,4.31,3.54,13.51,13.51,0,0,0,10.3-.12,11.21,11.21,0,0,0,4.73-3.51A1.29,1.29,0,0,0,194.52,247Z"/><path class="cls-30" d="M341,835.79s24,20,33.38,23.54S403.64,866,392.8,843s-42.43-16.83-42.43-16.83Z"/><path class="cls-30" d="M280.77,835.79s-24,20-33.39,23.54S218.11,866,228.94,843s42.43-16.83,42.43-16.83Z"/><path class="cls-31" d="M450,538.57l-64-77.94c-1.43-5.55-108.85-4.66-111.71-1.79s-50.41,368.72-48.34,374.53c37.51,12.71,65.7,8.59,65.7,8.59s.36,3.5,8.15,3.49c33.4,0,67.76-7.78,86.86-16,.76-1.77.83-182.72.3-290.49,20.76,17.72,57.81,48.25,57.81,48.25Z"/><circle class="cls-32" cx="324.93" cy="626.45" r="7.61"/><circle class="cls-33" cx="323.68" cy="623.6" r="7.61"/><circle class="cls-32" cx="319.56" cy="703.84" r="7.61"/><circle class="cls-33" cx="318.31" cy="700.99" r="7.61"/><circle class="cls-32" cx="314.19" cy="781.23" r="7.61"/><circle class="cls-33" cx="312.94" cy="778.39" r="7.61"/><path class="cls-34" d="M448.23,536.48c-.48,2.79-1,5.57-1.68,8.32-2.7,11.54-6.75,23.11-12.82,33.34,6.58,5.45,10.95,9.05,10.95,9.05L450,538.57Z"/><path class="cls-31" d="M275.93,459.08s-64.33-43.09-69-54.79-16.69-127.94-16.69-127.94a75.05,75.05,0,0,0-22.42-3.59c-12.43,0-23.34,5.48-23.34,5.48s8.15,135,22.95,154.58,103.12,92.5,103.12,92.5Z"/><path class="cls-34" d="M242.27,435.4c-.28,1.64-.62,3.24-1,4.79a129.43,129.43,0,0,1-13.92,36.18c-1.6,2.72-3.33,5.4-5.21,8,24.83,21.5,48.39,41,48.39,41l5.37-66.24S259.25,447.91,242.27,435.4Z"/><path class="cls-34" d="M274.72,528.78a404.23,404.23,0,0,0,40.66-10.36q9.86-3.07,19.52-6.73,4.77-1.81,9.48-3.78l.78-.32.94-.41c.85-.36,1.68-.73,2.52-1.1q2.19-1,4.37-2a164.93,164.93,0,0,0,17.08-9.18q3.93-2.42,7.7-5.06,2.09-1.47,4.12-3l.65-.5.24-.19,1.74-1.39a128.65,128.65,0,0,0,12.07-11.16c-5.33-6.48-9.29-11.31-10.68-13-1.43-5.55-108.85-4.66-111.71-1.79-.81.8-5.12,30.14-10.87,72.09Q269,529.92,274.72,528.78Z"/><path class="cls-34" d="M309.08,563.57q3.74-43.2,8.11-86.35c.12-1.24-1.8-1.64-1.93-.38,0,.19,0,.38-.05.57a.85.85,0,0,0-1.22.7q-7.82,77.26-13.63,154.73Q294.57,710,290.8,787.33q-1.33,27.46-2.42,54.95c2.07-.16,3.18-.32,3.18-.32a.1.1,0,0,0,0,0q2.43-61.92,6.15-123.77Q302.39,640.83,309.08,563.57Z"/><circle class="cls-32" cx="330.26" cy="548.3" r="7.61"/><circle class="cls-33" cx="329.01" cy="545.46" r="7.61"/><path class="cls-35" d="M228.39,511.43c1.78,8.23,34.73,10.92,43.32,7.7s111.18-25.34,123.71-48.07,14.5-63.92,15.58-113.24c1.64-75.23-1.35-99.29-7.88-106.7-9.31-10.56-53.17-19.94-91.66-15.46-31,3.6-58.4,16.39-68.39,29.42-14.68,19.16-.54,152.54,8.23,177.24s21.31,37.42,30.44,39.93l7.16-34.38-23.63,3.94-21.84-15.57a139.34,139.34,0,0,1-5.91,37.23C231.43,493.88,227,504.8,228.39,511.43Z"/><path class="cls-36" d="M318.18,472.67a54.06,54.06,0,0,1-13.94,2.25,53.21,53.21,0,0,1-13.89-1.5,50.93,50.93,0,0,1-13.14-5.22,52.54,52.54,0,0,1-6.64-4.53c-.08-.08-.16-.17-.25-.25a.88.88,0,0,0-.28-.18q-2.39-1.94-4.61-4.07c-1-1-2.05-2-3.05-3s-2-2.06-3-3-2-2-2.95-3.07-2.22-2-3.1-3.24c0,0-.05,0,0,0,1,1,1.62,2.25,2.49,3.31s1.65,1.94,2.4,3a72.44,72.44,0,0,0,11.07,11.42c.39.62.86,1.2,1.3,1.79s1,1.4,1.6,2.07c1.06,1.24,2.14,2.48,3.28,3.65a81.33,81.33,0,0,0,7.38,6.75,100.82,100.82,0,0,0,8.74,6,92.27,92.27,0,0,0,8.25,4.85,37.16,37.16,0,0,0,5.06,2.09c.82.27,1.65.5,2.49.7a9.62,9.62,0,0,0,2.83.18c.75-.05,1.08-1.21.31-1.51a19.73,19.73,0,0,0-2.26-.84c-.71-.19-1.41-.4-2.1-.64-1.44-.52-2.85-1.15-4.23-1.81a85.45,85.45,0,0,1-8.15-4.68c-2.83-1.77-5.68-3.54-8.35-5.55a82.93,82.93,0,0,1-7.49-6.4c-.68-.66-1.36-1.32-2-2a53.89,53.89,0,0,0,26.76,7.53,49.47,49.47,0,0,0,16.11-2.33A.94.94,0,0,0,318.18,472.67Z"/><path class="cls-36" d="M379,431.68c14.66-11.71,18.11-138,3.05-155.84-16.3-19.34-100-17-114-1.43C251.3,292.85,250.59,403.31,274.4,435,286.76,451.45,360.69,446.28,379,431.68Z"/><path class="cls-9" d="M386.69,410.91c7.55-39.6,7.18-121-4.69-135.07-16.3-19.34-100-17-114-1.43-13.87,15.36-16.68,94.6-3.46,138.94,1.38,4.64,12.8,17.87,65.44,16.2C369.66,428.29,385.73,416,386.69,410.91Z"/><path class="cls-10" d="M326.18,383.81a1.16,1.16,0,0,0-2.28-.43c-.85,2.57-1.92,5.62-4.49,6.92a6.14,6.14,0,0,1-4.59.33c-12.42-6.14,7.34-27.25,3.42-36.42a6.94,6.94,0,0,0-.64-1.35c-.34-.57-1.31-.11-1.06.51a3.26,3.26,0,0,1,.34,1.75c.08,3-1.23,5.87-2.36,8.64-2.92,7.88-8.66,16.73-5.46,25.28C314,397.83,326,393.19,326.18,383.81Z"/><path class="cls-10" d="M391.74,341.84c-.17-30.25-3.23-58.27-9.74-66-16.3-19.34-100-17-114-1.43-7.4,8.19-11.65,34.56-12,64.11,25.83,9.13,91.92-1.16,92.32-44.58C353,327.7,375.51,342.14,391.74,341.84Z"/><path class="cls-10" d="M387.58,395.34a19.22,19.22,0,0,1-5.7,5.37A80.22,80.22,0,0,1,367,408.64c-8.58,3.56-17.47,5.17-26.62,6.41a192.33,192.33,0,0,1-28.86,2.13c-17.71-.27-35.09-4.32-48.79-16-.54-.46-1.06-.93-1.58-1.4,1,4.78,2.09,9.33,3.35,13.57,1.38,4.64,12.8,17.87,65.44,16.2,39.73-1.26,55.8-13.55,56.76-18.64,1.12-5.84,2.06-12.6,2.82-19.92A18.66,18.66,0,0,1,387.58,395.34Z"/><path class="cls-37" d="M391.74,333.77c-.11-30.68-3.16-59.3-9.76-67.13-16.29-19.34-100-17-114-1.44-7.39,8.19-11.64,34.5-12,64,29,14.26,91.79,4.34,91.79-51.54C352.58,312.38,370.67,338.85,391.74,333.77Z"/><path class="cls-38" d="M387.15,279.47a18.56,18.56,0,0,1-5.89,4.19,23.79,23.79,0,0,1-20.15-.31c-5.39-2.49-9.79-6.74-14.44-10.34a5,5,0,0,1-1.47-1.9,39.37,39.37,0,0,1-12.67,13.42c-6.74,4.63-14.55,7.74-22.27,10.35-11,3.7-23.27,6-34.16.84a20.75,20.75,0,0,1-10-9.36c-2.21-4.61-2.45-9.44-1.69-14.43.08-.55.18-1.09.29-1.63-5.4,11.38-8.47,34-8.78,58.9,29,14.26,91.8,4.34,91.8-51.54,4.85,34.72,22.93,61.19,44,56.11C391.67,312.66,390.21,292.53,387.15,279.47Z"/><path class="cls-2" d="M361.79,359.82c.08,8.33-3.47,15.48-11.17,14.7-6.37-.64-10.56-6.5-12.52-13.43-3.41-12.07-.07-27.42,10.24-24.32,4,1.21,7.14,4.19,9.39,8a28.61,28.61,0,0,1,2.94,7A31.78,31.78,0,0,1,361.79,359.82Z"/><path class="cls-2" d="M308.08,359.23c-1.7,7.72-6.05,14.59-13,15.29-9.84,1-12.89-11-10.28-21.78,1.75-7.26,6.06-14,12.57-16C307.16,333.83,310.67,347.51,308.08,359.23Z"/><path class="cls-39" d="M301.57,405c1.93,5,7.58,15.18,21.76,15.18,15.25,0,22.35-11,24.51-15.18,0,0-10.9.84-24,.84S301.57,405,301.57,405Z"/><path class="cls-40" d="M333.4,417.21a42.31,42.31,0,0,0-4.81-1.46,100.48,100.48,0,0,0-9.9-1.74,68.75,68.75,0,0,0-12.07-.76c3.43,3.72,8.71,6.95,16.71,6.95a27,27,0,0,0,11.58-2.48C334.33,417.52,333.77,417.35,333.4,417.21Z"/><path class="cls-2" d="M345.47,408.85a28.58,28.58,0,0,0,2.37-3.83s-10.9.84-24,.84-22.27-.84-22.27-.84a27.41,27.41,0,0,0,1.45,3.13C316.89,411,338.61,410.33,345.47,408.85Z"/><path class="cls-41" d="M361.79,359.82c.08,8.33-3.47,15.48-11.17,14.7-6.37-.64-10.56-6.5-12.52-13.43.69-6.21,4.93-11.89,12.94-12.21.24,0,.49,0,.74,0a13.66,13.66,0,0,1,8.89,2.94A31.78,31.78,0,0,1,361.79,359.82Z"/><path class="cls-2" d="M361.79,359.82a7.69,7.69,0,0,1-3.86,1c-6.72,0-9.16-7.17-6.89-11.91a7.18,7.18,0,0,1,6.69-4.11,28.61,28.61,0,0,1,2.94,7A31.78,31.78,0,0,1,361.79,359.82Z"/><path class="cls-41" d="M308.08,359.23c-1.7,7.72-6.05,14.59-13,15.29-9.84,1-12.89-11-10.28-21.78a13.07,13.07,0,0,1,9.18-3.86c.24,0,.49,0,.73,0,6.67,0,10.87,3.61,12.7,8.26A15.19,15.19,0,0,1,308.08,359.23Z"/><path class="cls-2" d="M300.88,360.79c10,0,10.52-16,0-16S290.84,360.79,300.88,360.79Z"/><path class="cls-33" d="M340.29,329.3c1.18,2.74,18.16,9.09,21.93,8S339.35,320.35,340.29,329.3Z"/><path class="cls-33" d="M309,320.92c-1.19,2.74-18.17,9.08-21.93,8S310,312,309,320.92Z"/><path class="cls-27" d="M124.7,276.92c2.16-1.54,3.88-2.94,4.37-3.32,3.62-2.76-1.95-14.14-6.86-11.71-.71.36-3.06,1.9-5.32,3.35C112.51,268,120.52,279.88,124.7,276.92Z"/></g><path class="cls-9" d="M731.71,467.24l.08.08-.08-.08Z"/><path class="cls-26" d="M111.58,543.43q-.52-2.89-1-5.58c-3.17-16.88-5.46-29.08,1.8-38.6,6.24-8.19,17.07-10,24.67-10.59,15.65-1.29,27,2.81,34.68,12.53,6.87,8.67,10,21.09,12.92,34.12l-20,4.44c-2.26-10.19-4.82-20.59-9-25.85-2.4-3-6.11-5.72-16.94-4.83-8.53.7-10,2.52-10.07,2.6s-.77,1.14-.57,5.23c.21,4.35,1.33,10.29,2.62,17.16.34,1.82.7,3.72,1.06,5.69Z"/><path class="cls-27" d="M180.2,518.3a9,9,0,0,1-.8.69c-4.61,3.56-10.17,2.2-14.37-1.17-3-2.41-4.69-5.71-6.31-9.1-.37-.77-.8-1.51-1.21-2.25a4.4,4.4,0,0,0-.26-.36l-.53-.54c-.2-.19-1.26-1.07-1.14-1-.53-.37-1.07-.72-1.63-1s-.94-.5-1.41-.76l-.48-.23c-.56-.21-1.13-.41-1.71-.59-1.44-.44-2.9-.69-4.36-1l-.12,0-.23,0c-.31,0-.63-.07-.95-.09-.74-.07-1.48-.11-2.22-.14-1.16-.05-2.31-.07-3.47-.05s-2.4.1-3.59.22l-.24,0h-.06c-.55.12-1.11.18-1.67.3a31.56,31.56,0,0,0-3.71,1c-.48.16-.94.35-1.41.51l-.37.19c-.55.27-1.08.56-1.6.88l-.75.49,0,0c-.1.25-.3.29-.23.18l-.39.36-1,1.09,0,.06c-.11.17-.22.34-.32.52s-1.09,1.69-.46.78l0-.07c.11-.29.36-.52,0,0a.32.32,0,0,0,0,.09c-.09.3-.2.6-.29.91,0,.11-.09.37-.16.63s-.12.83-.13,1,0,.56,0,.84,0,.68,0,1c.06,1.09.23,2.18.36,3.26.8,6.32.74,12.72-5,16.75a10.43,10.43,0,0,1-8.23,1.66c.27,1.49.56,3,.85,4.58q.51,2.68,1,5.58l20.15-3.68c-.36-2-.72-3.87-1.06-5.69-1.29-6.87-2.41-12.81-2.62-17.16-.2-4.09.49-5.13.57-5.23s1.54-1.9,10.07-2.6c10.83-.89,14.54,1.79,16.94,4.83,4.17,5.26,6.73,15.66,9,25.85l20-4.44C183.31,529.42,181.94,523.65,180.2,518.3Z"/><path class="cls-26" d="M115.51,618.42c8.08,4.29,90.19-8.8,94.1-15.23S200.36,534.3,191.73,531s-87.12,4.21-91.43,12.69S107.43,614.13,115.51,618.42Z"/><path class="cls-27" d="M159.7,581.46a23.61,23.61,0,0,0-.89-6.81c-.31-1.31-.55-2.45-.76-3.7s-.21-2.39-.36-3.57l.31-.46a10.33,10.33,0,0,0,1.64-5.23,7.37,7.37,0,0,0-.71-5.26,8.1,8.1,0,0,0-6-3.83,9.88,9.88,0,0,0-7.26,2.22l-.21.17c-3.09,1.34-5.56,4-5.35,7.51a8.82,8.82,0,0,0,4.09,6.71,9.42,9.42,0,0,0,2,1.52c0,.42.09.83.14,1.25.24,1.92.54,3.84.94,5.74a51,51,0,0,0,1.25,5.16,5.87,5.87,0,0,0,3.48,3.85c2.21.82,4.39.46,6.63,0a1.78,1.78,0,0,0,1.23-1.4A13.39,13.39,0,0,0,159.7,581.46Z"/></g></g></svg>