<svg xmlns="http://www.w3.org/2000/svg" width="586.854" height="455.235" viewBox="0 0 586.854 455.235">
  <g id="Group_14951" data-name="Group 14951" transform="translate(-70.428 -148.632)">
    <g id="Group_14925" data-name="Group 14925" transform="translate(3836.931 2346.946)">
      <path id="Subtraction_1" data-name="Subtraction 1" d="M622.58,2593.023h-.026c-87.4,0-200.928-1.163-289.236-2.962-50.616-1.029-90.845-2.21-119.57-3.51-15.716-.712-27.869-1.458-36.122-2.218-12.85-1.182-16.422-2.05-17.074-5.9-1.018-6.033-2.266-113.358-2.1-210.754.349-205.1,5.8-210.048,8.418-212.427,2.145-1.943,5.735-5.2,138.269-5.2,69.992,0,164.2,1,252,2.672h-371.2v384.983H731.787v-69.538c.128,19.4.176,36.671.145,51.338-.143,68.112-1.64,69.226-3.905,70.912C726.39,2591.641,724.535,2593.023,622.58,2593.023Z" transform="translate(-3924.436 -4336.602)" fill="#ffae12" stroke="rgba(0,0,0,0)" stroke-miterlimit="10" stroke-width="1"/>
      <g id="Front" transform="translate(-3752.263 -2199)">
        <g id="Group_14924" data-name="Group 14924" transform="translate(0 0)">
          <g id="Group_14923" data-name="Group 14923">
            <path id="Path_34464" data-name="Path 34464" d="M2057.106,223.564c-.754-51.429-1.8-104.029-2.868-144.31-1.781-66.981-2.615-68.2-3.582-69.619-1.524-2.233-1.934-2.833-46.1-4.374-26-.907-62.114-1.841-104.443-2.7C1809.253.726,1706.826-.417,1632.8-.417c-132.129,0-135.7,3.243-137.839,5.181-2.611,2.37-8.044,7.3-8.393,211.768-.165,97.085,1.079,204.077,2.093,210.1.651,3.839,4.212,4.7,17.021,5.883,8.248.759,20.364,1.5,36.012,2.211,28.632,1.3,68.735,2.473,119.2,3.5,88.074,1.793,201.254,2.951,288.339,2.951h.026c101.626,0,103.487-1.378,105.12-2.593,2.258-1.682,3.749-2.792,3.893-70.691C2058.35,331.466,2057.937,280.209,2057.106,223.564Zm-14.533,174.557H1502.186V15.232h540.387Z" transform="translate(-1485.667 1.104)" fill="#683b72"/>
            <g id="Group_14902" data-name="Group 14902" transform="translate(4.125 4.125)">
              <path id="Path_34465" data-name="Path 34465" d="M2047.878,10.866c-3.074-4.5-540.839-13.594-551.241-4.156s-6.766,409.093-5.023,419.438c1.618,9.564,554.914,13.862,560.945,9.37S2050.951,15.369,2047.878,10.866Zm-9.718,379.091c-5.178,3.861-532.82,2.556-534.209-5.655-1.5-8.881-2.945-356.434,5.982-364.54s522.813-.168,525.453,3.693S2043.34,386.1,2038.16,389.956Z" transform="translate(-1489.557 -2.583)" fill="#fff"/>
            </g>
          </g>
        </g>
        <path id="Path_34466" data-name="Path 34466" d="M47.589,0C94.774,0,95.178,1.338,95.178,47.589A47.589,47.589,0,1,1,47.589,0Z" transform="translate(464.59 15.001)" fill="#fff"/>
      </g>
    </g>
  </g>
</svg>
