<svg width="32" height="32" viewBox="0 0 32 32" fill="none" xmlns="http://www.w3.org/2000/svg">
<path d="M31.4482 26.4828H0.551749C0.247062 26.4828 0 26.2357 0 25.931V6.06902C0 5.76433 0.247062 5.51727 0.551749 5.51727H31.4483C31.7529 5.51727 32 5.76433 32 6.06902V25.931C31.9999 26.2358 31.7529 26.4828 31.4482 26.4828Z" fill="#FF4B55"/>
<path d="M15.8421 14.1092L16.7069 15.2406L18.0573 14.7886C18.1328 14.7633 18.197 14.8487 18.1518 14.9142L17.3431 16.0862L18.1903 17.2309C18.2377 17.2949 18.1763 17.3823 18.1 17.3595L16.7354 16.9526L15.9087 18.112C15.8625 18.1768 15.7602 18.1455 15.7583 18.0659L15.7236 16.6424L14.3655 16.2143C14.2895 16.1904 14.2877 16.0835 14.3628 16.0571L15.706 15.5842L15.6934 14.1603C15.6927 14.0807 15.7938 14.046 15.8421 14.1092Z" fill="#F5F5F5"/>
<path d="M11.0598 20.4163C8.62259 20.4163 6.64559 18.4393 6.64559 15.9999C6.64559 13.5651 8.62265 11.5836 11.0598 11.5836C11.9665 11.5836 12.8027 11.8624 13.4996 12.3344C13.6063 12.4067 13.7281 12.2665 13.6388 12.1736C12.5973 11.0908 11.1233 10.4303 9.4889 10.4861C6.68103 10.5819 4.35653 12.8331 4.1771 15.6369C3.97166 18.8483 6.51453 21.5172 9.68052 21.5172C11.2401 21.5172 12.6417 20.8652 13.6426 19.8227C13.731 19.7307 13.609 19.5925 13.5033 19.6642C12.8056 20.1372 11.9681 20.4163 11.0598 20.4163Z" fill="#F5F5F5"/>
</svg>
