<svg xmlns="http://www.w3.org/2000/svg" width="57.905" height="42.866" viewBox="0 0 57.905 42.866">
  <g id="Group_14953" data-name="Group 14953" transform="translate(-3.5 -1.5)">
    <g id="Group_11549" data-name="Group 11549">
      <g id="Rectangle_11741" data-name="Rectangle 11741">
        <rect id="Rectangle_349" data-name="Rectangle 349" width="54.905" height="39.866" rx="5.053" transform="translate(5 3)" fill="none" stroke="#683b72" stroke-linecap="round" stroke-linejoin="round" stroke-width="3"/>
      </g>
    </g>
    <path id="Path_27725" data-name="Path 27725" d="M112.768,866.985a.877.877,0,0,1,.474-.526,1.423,1.423,0,0,1,1.309-.045q2.753,1.17,5.513,2.348,4.234,1.809,8.481,3.6a2.062,2.062,0,0,1,.985.737,1.18,1.18,0,0,1,.141.983,1.206,1.206,0,0,1-.641.752,16.879,16.879,0,0,1-1.656.859q-6.252,3.083-12.5,6.155a1.455,1.455,0,0,1-1.358.075.843.843,0,0,1-.511-.5C112.914,881.2,112.69,867.22,112.768,866.985Z" transform="translate(-86.636 -851.096)" fill="#683b72"/>
  </g>
</svg>
