<svg width="24" height="16" viewBox="0 0 24 16" fill="none" xmlns="http://www.w3.org/2000/svg">
<path d="M23.5861 15.8667H0.413812C0.185297 15.8667 0 15.6814 0 15.4529V0.556388C0 0.327868 0.185297 0.142578 0.413812 0.142578H23.5862C23.8147 0.142578 24 0.327868 24 0.556388V15.4529C24 15.6815 23.8147 15.8667 23.5861 15.8667Z" fill="#F5F5F5"/>
<path d="M24 1.35219H0V0.556388C0 0.327868 0.185297 0.142578 0.413812 0.142578H23.5862C23.8147 0.142578 24 0.327868 24 0.556388V1.35219Z" fill="#FF4B55"/>
<path d="M24 4.98242H0V6.192H24V4.98242Z" fill="#FF4B55"/>
<path d="M24 2.5625H0V3.77206H24V2.5625Z" fill="#FF4B55"/>
<path d="M24 8.61191H0.413812C0.185297 8.61191 0 8.42661 0 8.19811V7.40231H24V8.61191Z" fill="#FF4B55"/>
<path d="M24 12.2363H0V13.4459H24V12.2363Z" fill="#FF4B55"/>
<path d="M23.5861 15.8717H0.413812C0.185297 15.8717 0 15.6864 0 15.4579V14.6621H24V15.4579C24 15.6864 23.8147 15.8717 23.5861 15.8717Z" fill="#FF4B55"/>
<path d="M24 9.81641H0V11.026H24V9.81641Z" fill="#FF4B55"/>
<path d="M10.7586 0.142578H0.413812C0.185297 0.142578 0 0.327828 0 0.556338V8.1955C0 8.4241 0.185297 8.6094 0.413812 8.6094H10.7586C10.9872 8.6094 11.1724 8.4241 11.1724 8.1955V0.556338C11.1724 0.327828 10.9871 0.142578 10.7586 0.142578Z" fill="#41479B"/>
<path d="M1.16186 1.08918L1.25345 1.36386L1.543 1.36607C1.5805 1.3664 1.59601 1.41421 1.56587 1.43647L1.33295 1.6085L1.42033 1.88455C1.43167 1.92027 1.39094 1.94989 1.36042 1.92805L1.12487 1.75972L0.889328 1.9281C0.858813 1.94989 0.818172 1.92031 0.829422 1.8846L0.916797 1.60855L0.683876 1.43652C0.653736 1.41421 0.669251 1.36644 0.706751 1.36611L0.996297 1.36391L1.08789 1.08922C1.0997 1.0536 1.14995 1.0536 1.16186 1.08918Z" fill="#F5F5F5"/>
<path d="M1.16186 2.52469L1.25345 2.79938L1.543 2.80158C1.5805 2.80191 1.59601 2.84972 1.56587 2.87199L1.33295 3.04402L1.42033 3.32007C1.43167 3.35578 1.39094 3.38541 1.36042 3.36357L1.12487 3.19524L0.889328 3.36361C0.858813 3.38541 0.818172 3.35583 0.829422 3.32011L0.916797 3.04407L0.683876 2.87203C0.653736 2.84972 0.669251 2.80196 0.706751 2.80163L0.996297 2.79942L1.08789 2.52474C1.0997 2.48916 1.14995 2.48916 1.16186 2.52469Z" fill="#F5F5F5"/>
<path d="M1.16186 3.9661L1.25345 4.24078L1.543 4.24299C1.5805 4.24332 1.59601 4.29113 1.56587 4.31339L1.33295 4.48543L1.42033 4.76147C1.43167 4.79719 1.39094 4.82682 1.36042 4.80497L1.12487 4.63664L0.889328 4.80502C0.858813 4.82682 0.818172 4.79724 0.829422 4.76152L0.916797 4.48547L0.683876 4.31344C0.653736 4.29113 0.669251 4.24336 0.706751 4.24303L0.996297 4.24083L1.08789 3.96614C1.0997 3.93056 1.14995 3.93056 1.16186 3.9661Z" fill="#F5F5F5"/>
<path d="M1.16186 5.39582L1.25345 5.67051L1.543 5.67271C1.5805 5.67304 1.59601 5.72085 1.56587 5.74312L1.33295 5.91515L1.42033 6.1912C1.43167 6.2269 1.39094 6.2565 1.36042 6.2347L1.12487 6.0664L0.889328 6.2347C0.858813 6.2565 0.818172 6.227 0.829422 6.1912L0.916797 5.9152L0.683876 5.74316C0.653736 5.72085 0.669251 5.67309 0.706751 5.67276L0.996297 5.67055L1.08789 5.39587C1.0997 5.36024 1.14995 5.36024 1.16186 5.39582Z" fill="#F5F5F5"/>
<path d="M1.16186 6.83729L1.25345 7.11199L1.543 7.11419C1.5805 7.11449 1.59601 7.16229 1.56587 7.18459L1.33295 7.35659L1.42033 7.63259C1.43167 7.66839 1.39094 7.69799 1.36042 7.67609L1.12487 7.50779L0.889328 7.67619C0.858813 7.69799 0.818172 7.66839 0.829422 7.63269L0.916797 7.35659L0.683876 7.18459C0.653736 7.16229 0.669251 7.11449 0.706751 7.11419L0.996297 7.11199L1.08789 6.83729C1.0997 6.80159 1.14995 6.80159 1.16186 6.83729Z" fill="#F5F5F5"/>
<path d="M2.27807 1.79813L2.36966 2.07282L2.65921 2.07502C2.69671 2.07535 2.71222 2.12316 2.68208 2.14543L2.44916 2.31746L2.53654 2.59351C2.54788 2.62922 2.50715 2.65885 2.47663 2.63701L2.24109 2.46863L2.00554 2.63701C1.97502 2.6588 1.93438 2.62922 1.94563 2.59351L2.03301 2.31746L1.80009 2.14543C1.76995 2.12312 1.78546 2.07535 1.82296 2.07502L2.11251 2.07282L2.2041 1.79813C2.21587 1.7626 2.26621 1.7626 2.27807 1.79813Z" fill="#F5F5F5"/>
<path d="M2.27807 3.22786L2.36966 3.50254L2.65921 3.50474C2.69671 3.50507 2.71222 3.55288 2.68208 3.57515L2.44916 3.74717L2.53654 4.02322C2.54788 4.05893 2.50715 4.08856 2.47663 4.06672L2.24109 3.89834L2.00554 4.06672C1.97502 4.08851 1.93438 4.05898 1.94563 4.02322L2.03301 3.74717L1.80009 3.57515C1.76995 3.55283 1.78546 3.50507 1.82296 3.50474L2.11251 3.50254L2.2041 3.22786C2.21587 3.19228 2.26621 3.19228 2.27807 3.22786Z" fill="#F5F5F5"/>
<path d="M2.27807 4.66926L2.36966 4.94395L2.65921 4.94615C2.69671 4.94648 2.71222 4.99429 2.68208 5.01656L2.44916 5.18859L2.53654 5.46463C2.54788 5.50035 2.50715 5.52997 2.47663 5.50813L2.24109 5.33976L2.00554 5.50813C1.97502 5.52993 1.93438 5.50035 1.94563 5.46463L2.03301 5.18859L1.80009 5.01656C1.76995 4.99424 1.78546 4.94648 1.82296 4.94615L2.11251 4.94395L2.2041 4.66926C2.21587 4.63368 2.26621 4.63368 2.27807 4.66926Z" fill="#F5F5F5"/>
<path d="M2.27807 6.10479L2.36966 6.37949L2.65921 6.38169C2.69671 6.38199 2.71222 6.42979 2.68208 6.45209L2.44916 6.62409L2.53654 6.90009C2.54788 6.93589 2.50715 6.96549 2.47663 6.94359L2.24109 6.77529L2.00554 6.94359C1.97502 6.96539 1.93438 6.93589 1.94563 6.90009L2.03301 6.62409L1.80009 6.45209C1.76995 6.42979 1.78546 6.38199 1.82296 6.38169L2.11251 6.37949L2.2041 6.10479C2.21587 6.06919 2.26621 6.06919 2.27807 6.10479Z" fill="#F5F5F5"/>
<path d="M3.39136 1.08918L3.48295 1.36387L3.7725 1.36607C3.81 1.3664 3.82551 1.41421 3.79537 1.43648L3.56245 1.60851L3.64983 1.88455C3.66117 1.92027 3.62043 1.94989 3.58992 1.92805L3.35437 1.75968L3.11882 1.92805C3.08831 1.94985 3.04767 1.92027 3.05892 1.88455L3.14629 1.60851L2.91337 1.43648C2.88323 1.41416 2.89874 1.3664 2.93624 1.36607L3.22579 1.36387L3.31739 1.08918C3.3292 1.05361 3.3795 1.05361 3.39136 1.08918Z" fill="#F5F5F5"/>
<path d="M3.39136 2.53055L3.48295 2.80524L3.7725 2.80744C3.81 2.80777 3.82551 2.85558 3.79537 2.87785L3.56245 3.04988L3.64983 3.32593C3.66117 3.36165 3.62043 3.39127 3.58992 3.36943L3.35437 3.20105L3.11882 3.36943C3.08831 3.39122 3.04767 3.36165 3.05892 3.32593L3.14629 3.04988L2.91337 2.87785C2.88323 2.85554 2.89874 2.80777 2.93624 2.80744L3.22579 2.80524L3.31739 2.53055C3.3292 2.49502 3.3795 2.49502 3.39136 2.53055Z" fill="#F5F5F5"/>
<path d="M3.39136 3.96024L3.48295 4.23493L3.7725 4.23714C3.81 4.23747 3.82551 4.28528 3.79537 4.30755L3.56245 4.47958L3.64983 4.75563C3.66117 4.79135 3.62043 4.82098 3.58992 4.79913L3.35437 4.63075L3.11882 4.79913C3.08831 4.82093 3.04767 4.79135 3.05892 4.75563L3.14629 4.47958L2.91337 4.30755C2.88323 4.28523 2.89874 4.23747 2.93624 4.23714L3.22579 4.23493L3.31739 3.96024C3.3292 3.92471 3.3795 3.92471 3.39136 3.96024Z" fill="#F5F5F5"/>
<path d="M3.39136 5.40168L3.48295 5.67637L3.7725 5.67857C3.81 5.6789 3.82551 5.72671 3.79537 5.74898L3.56245 5.92101L3.64983 6.1971C3.66117 6.2328 3.62043 6.2624 3.58992 6.2406L3.35437 6.0722L3.11882 6.2406C3.08831 6.2623 3.04767 6.2328 3.05892 6.1971L3.14629 5.92101L2.91337 5.74898C2.88323 5.72667 2.89874 5.6789 2.93624 5.67857L3.22579 5.67637L3.31739 5.40168C3.3292 5.36611 3.3795 5.36611 3.39136 5.40168Z" fill="#F5F5F5"/>
<path d="M3.39136 6.83729L3.48295 7.11199L3.7725 7.11419C3.81 7.11449 3.82551 7.16229 3.79537 7.18459L3.56245 7.35659L3.64983 7.63259C3.66117 7.66839 3.62043 7.69799 3.58992 7.67609L3.35437 7.50779L3.11882 7.67609C3.08831 7.69789 3.04767 7.66839 3.05892 7.63259L3.14629 7.35659L2.91337 7.18459C2.88323 7.16229 2.89874 7.11449 2.93624 7.11419L3.22579 7.11199L3.31739 6.83729C3.3292 6.80159 3.3795 6.80159 3.39136 6.83729Z" fill="#F5F5F5"/>
<path d="M4.50756 1.79813L4.59916 2.07282L4.8887 2.07502C4.9262 2.07535 4.94172 2.12316 4.91158 2.14543L4.67866 2.31746L4.76603 2.59351C4.77737 2.62922 4.73664 2.65885 4.70612 2.63701L4.47058 2.46863L4.23503 2.63701C4.20452 2.6588 4.16388 2.62922 4.17513 2.59351L4.2625 2.31746L4.02958 2.14543C3.99944 2.12312 4.01495 2.07535 4.05245 2.07502L4.342 2.07282L4.43359 1.79813C4.44536 1.7626 4.4957 1.7626 4.50756 1.79813Z" fill="#F5F5F5"/>
<path d="M4.50756 3.22786L4.59916 3.50254L4.8887 3.50474C4.9262 3.50507 4.94172 3.55288 4.91158 3.57515L4.67866 3.74717L4.76603 4.02322C4.77737 4.05893 4.73664 4.08856 4.70612 4.06672L4.47058 3.89834L4.23503 4.06672C4.20452 4.08851 4.16388 4.05898 4.17513 4.02322L4.2625 3.74717L4.02958 3.57515C3.99944 3.55283 4.01495 3.50507 4.05245 3.50474L4.342 3.50254L4.43359 3.22786C4.44536 3.19228 4.4957 3.19228 4.50756 3.22786Z" fill="#F5F5F5"/>
<path d="M4.50756 4.66926L4.59916 4.94395L4.8887 4.94615C4.9262 4.94648 4.94172 4.99429 4.91158 5.01656L4.67866 5.18859L4.76603 5.46463C4.77737 5.50035 4.73664 5.52997 4.70612 5.50813L4.47058 5.33976L4.23503 5.50813C4.20452 5.52993 4.16388 5.50035 4.17513 5.46463L4.2625 5.18859L4.02958 5.01656C3.99944 4.99424 4.01495 4.94648 4.05245 4.94615L4.342 4.94395L4.43359 4.66926C4.44536 4.63368 4.4957 4.63368 4.50756 4.66926Z" fill="#F5F5F5"/>
<path d="M4.50756 6.10479L4.59916 6.37949L4.8887 6.38169C4.9262 6.38199 4.94172 6.42979 4.91158 6.45209L4.67866 6.62409L4.76603 6.90009C4.77737 6.93589 4.73664 6.96549 4.70612 6.94359L4.47058 6.77529L4.23503 6.94359C4.20452 6.96539 4.16388 6.93589 4.17513 6.90009L4.2625 6.62409L4.02958 6.45209C3.99944 6.42979 4.01495 6.38199 4.05245 6.38169L4.342 6.37949L4.43359 6.10479C4.44536 6.06919 4.4957 6.06919 4.50756 6.10479Z" fill="#F5F5F5"/>
<path d="M5.62089 1.08918L5.71249 1.36387L6.00203 1.36607C6.03953 1.3664 6.05505 1.41421 6.02491 1.43648L5.79199 1.60851L5.87936 1.88455C5.8907 1.92027 5.84997 1.94989 5.81945 1.92805L5.58386 1.75968L5.34831 1.92805C5.3178 1.94985 5.27716 1.92027 5.28841 1.88455L5.37578 1.60851L5.14286 1.43648C5.11272 1.41416 5.12824 1.3664 5.16574 1.36607L5.45528 1.36387L5.54688 1.08918C5.55874 1.05361 5.60903 1.05361 5.62089 1.08918Z" fill="#F5F5F5"/>
<path d="M5.62089 2.53055L5.71249 2.80524L6.00203 2.80744C6.03953 2.80777 6.05505 2.85558 6.02491 2.87785L5.79199 3.04988L5.87936 3.32593C5.8907 3.36165 5.84997 3.39127 5.81945 3.36943L5.58386 3.20105L5.34831 3.36943C5.3178 3.39122 5.27716 3.36165 5.28841 3.32593L5.37578 3.04988L5.14286 2.87785C5.11272 2.85554 5.12824 2.80777 5.16574 2.80744L5.45528 2.80524L5.54688 2.53055C5.55874 2.49502 5.60903 2.49502 5.62089 2.53055Z" fill="#F5F5F5"/>
<path d="M5.62089 3.96024L5.71249 4.23493L6.00203 4.23714C6.03953 4.23747 6.05505 4.28528 6.02491 4.30755L5.79199 4.47958L5.87936 4.75563C5.8907 4.79135 5.84997 4.82098 5.81945 4.79913L5.58386 4.63075L5.34831 4.79913C5.3178 4.82093 5.27716 4.79135 5.28841 4.75563L5.37578 4.47958L5.14286 4.30755C5.11272 4.28523 5.12824 4.23747 5.16574 4.23714L5.45528 4.23493L5.54688 3.96024C5.55874 3.92471 5.60903 3.92471 5.62089 3.96024Z" fill="#F5F5F5"/>
<path d="M5.62089 5.40168L5.71249 5.67637L6.00203 5.67857C6.03953 5.6789 6.05505 5.72671 6.02491 5.74898L5.79199 5.92101L5.87936 6.1971C5.8907 6.2328 5.84997 6.2624 5.81945 6.2406L5.58386 6.0722L5.34831 6.2406C5.3178 6.2623 5.27716 6.2328 5.28841 6.1971L5.37578 5.92101L5.14286 5.74898C5.11272 5.72667 5.12824 5.6789 5.16574 5.67857L5.45528 5.67637L5.54688 5.40168C5.55874 5.36611 5.60903 5.36611 5.62089 5.40168Z" fill="#F5F5F5"/>
<path d="M5.62089 6.83729L5.71249 7.11199L6.00203 7.11419C6.03953 7.11449 6.05505 7.16229 6.02491 7.18459L5.79199 7.35659L5.87936 7.63259C5.8907 7.66839 5.84997 7.69799 5.81945 7.67609L5.58386 7.50779L5.34831 7.67609C5.3178 7.69789 5.27716 7.66839 5.28841 7.63259L5.37578 7.35659L5.14286 7.18459C5.11272 7.16229 5.12824 7.11449 5.16574 7.11419L5.45528 7.11199L5.54688 6.83729C5.55874 6.80159 5.60903 6.80159 5.62089 6.83729Z" fill="#F5F5F5"/>
<path d="M6.73999 1.79813L6.83158 2.07282L7.12113 2.07502C7.15863 2.07535 7.17414 2.12316 7.144 2.14543L6.91108 2.31746L6.99846 2.59351C7.0098 2.62922 6.96906 2.65885 6.93855 2.63701L6.703 2.46863L6.46745 2.63701C6.43694 2.6588 6.3963 2.62922 6.40755 2.59351L6.49492 2.31746L6.262 2.14543C6.23186 2.12312 6.24738 2.07535 6.28488 2.07502L6.57442 2.07282L6.66602 1.79813C6.67788 1.7626 6.72813 1.7626 6.73999 1.79813Z" fill="#F5F5F5"/>
<path d="M6.73999 3.22786L6.83158 3.50254L7.12113 3.50474C7.15863 3.50507 7.17414 3.55288 7.144 3.57515L6.91108 3.74717L6.99846 4.02322C7.0098 4.05893 6.96906 4.08856 6.93855 4.06672L6.703 3.89834L6.46745 4.06672C6.43694 4.08851 6.3963 4.05898 6.40755 4.02322L6.49492 3.74717L6.262 3.57515C6.23186 3.55283 6.24738 3.50507 6.28488 3.50474L6.57442 3.50254L6.66602 3.22786C6.67788 3.19228 6.72813 3.19228 6.73999 3.22786Z" fill="#F5F5F5"/>
<path d="M6.73999 4.66926L6.83158 4.94395L7.12113 4.94615C7.15863 4.94648 7.17414 4.99429 7.144 5.01656L6.91108 5.18859L6.99846 5.46463C7.0098 5.50035 6.96906 5.52997 6.93855 5.50813L6.703 5.33976L6.46745 5.50813C6.43694 5.52993 6.3963 5.50035 6.40755 5.46463L6.49492 5.18859L6.262 5.01656C6.23186 4.99424 6.24738 4.94648 6.28488 4.94615L6.57442 4.94395L6.66602 4.66926C6.67788 4.63368 6.72813 4.63368 6.73999 4.66926Z" fill="#F5F5F5"/>
<path d="M6.73999 6.10479L6.83158 6.37949L7.12113 6.38169C7.15863 6.38199 7.17414 6.42979 7.144 6.45209L6.91108 6.62409L6.99846 6.90009C7.0098 6.93589 6.96906 6.96549 6.93855 6.94359L6.703 6.77529L6.46745 6.94359C6.43694 6.96539 6.3963 6.93589 6.40755 6.90009L6.49492 6.62409L6.262 6.45209C6.23186 6.42979 6.24738 6.38199 6.28488 6.38169L6.57442 6.37949L6.66602 6.10479C6.67788 6.06919 6.72813 6.06919 6.73999 6.10479Z" fill="#F5F5F5"/>
<path d="M7.85327 1.08918L7.94487 1.36387L8.23441 1.36607C8.27191 1.3664 8.28743 1.41421 8.25729 1.43648L8.02437 1.60851L8.11174 1.88455C8.12309 1.92027 8.08235 1.94989 8.05184 1.92805L7.81629 1.75968L7.58074 1.92805C7.55022 1.94985 7.50958 1.92027 7.52083 1.88455L7.60821 1.60851L7.37528 1.43648C7.34514 1.41416 7.36066 1.3664 7.39816 1.36607L7.68771 1.36387L7.7793 1.08918C7.79107 1.05361 7.84141 1.05361 7.85327 1.08918Z" fill="#F5F5F5"/>
<path d="M7.85327 2.53055L7.94487 2.80524L8.23441 2.80744C8.27191 2.80777 8.28743 2.85558 8.25729 2.87785L8.02437 3.04988L8.11174 3.32593C8.12309 3.36165 8.08235 3.39127 8.05184 3.36943L7.81629 3.20105L7.58074 3.36943C7.55022 3.39122 7.50958 3.36165 7.52083 3.32593L7.60821 3.04988L7.37528 2.87785C7.34514 2.85554 7.36066 2.80777 7.39816 2.80744L7.68771 2.80524L7.7793 2.53055C7.79107 2.49502 7.84141 2.49502 7.85327 2.53055Z" fill="#F5F5F5"/>
<path d="M7.85327 3.96024L7.94487 4.23493L8.23441 4.23714C8.27191 4.23747 8.28743 4.28528 8.25729 4.30755L8.02437 4.47958L8.11174 4.75563C8.12309 4.79135 8.08235 4.82098 8.05184 4.79913L7.81629 4.63075L7.58074 4.79913C7.55022 4.82093 7.50958 4.79135 7.52083 4.75563L7.60821 4.47958L7.37528 4.30755C7.34514 4.28523 7.36066 4.23747 7.39816 4.23714L7.68771 4.23493L7.7793 3.96024C7.79107 3.92471 7.84141 3.92471 7.85327 3.96024Z" fill="#F5F5F5"/>
<path d="M7.85327 5.40168L7.94487 5.67637L8.23441 5.67857C8.27191 5.6789 8.28743 5.72671 8.25729 5.74898L8.02437 5.92101L8.11174 6.1971C8.12309 6.2328 8.08235 6.2624 8.05184 6.2406L7.81629 6.0722L7.58074 6.2406C7.55022 6.2623 7.50958 6.2328 7.52083 6.1971L7.60821 5.92101L7.37528 5.74898C7.34514 5.72667 7.36066 5.6789 7.39816 5.67857L7.68771 5.67637L7.7793 5.40168C7.79107 5.36611 7.84141 5.36611 7.85327 5.40168Z" fill="#F5F5F5"/>
<path d="M7.85327 6.83729L7.94487 7.11199L8.23441 7.11419C8.27191 7.11449 8.28743 7.16229 8.25729 7.18459L8.02437 7.35659L8.11174 7.63259C8.12309 7.66839 8.08235 7.69799 8.05184 7.67609L7.81629 7.50779L7.58074 7.67609C7.55022 7.69789 7.50958 7.66839 7.52083 7.63259L7.60821 7.35659L7.37528 7.18459C7.34514 7.16229 7.36066 7.11449 7.39816 7.11419L7.68771 7.11199L7.7793 6.83729C7.79107 6.80159 7.84141 6.80159 7.85327 6.83729Z" fill="#F5F5F5"/>
<path d="M8.96654 1.79813L9.05814 2.07282L9.34768 2.07502C9.38518 2.07535 9.4007 2.12316 9.37056 2.14543L9.13764 2.31746L9.22501 2.59351C9.23636 2.62922 9.19562 2.65885 9.16511 2.63701L8.92956 2.46863L8.69402 2.63701C8.6635 2.6588 8.62286 2.62922 8.63411 2.59351L8.72148 2.31746L8.48856 2.14543C8.45842 2.12312 8.47394 2.07535 8.51144 2.07502L8.80098 2.07282L8.89258 1.79813C8.90439 1.7626 8.95473 1.7626 8.96654 1.79813Z" fill="#F5F5F5"/>
<path d="M8.96654 3.22786L9.05814 3.50254L9.34768 3.50474C9.38518 3.50507 9.4007 3.55288 9.37056 3.57515L9.13764 3.74717L9.22501 4.02322C9.23636 4.05893 9.19562 4.08856 9.16511 4.06672L8.92956 3.89834L8.69402 4.06672C8.6635 4.08851 8.62286 4.05898 8.63411 4.02322L8.72148 3.74717L8.48856 3.57515C8.45842 3.55283 8.47394 3.50507 8.51144 3.50474L8.80098 3.50254L8.89258 3.22786C8.90439 3.19228 8.95473 3.19228 8.96654 3.22786Z" fill="#F5F5F5"/>
<path d="M8.96654 4.66926L9.05814 4.94395L9.34768 4.94615C9.38518 4.94648 9.4007 4.99429 9.37056 5.01656L9.13764 5.18859L9.22501 5.46463C9.23636 5.50035 9.19562 5.52997 9.16511 5.50813L8.92956 5.33976L8.69402 5.50813C8.6635 5.52993 8.62286 5.50035 8.63411 5.46463L8.72148 5.18859L8.48856 5.01656C8.45842 4.99424 8.47394 4.94648 8.51144 4.94615L8.80098 4.94395L8.89258 4.66926C8.90439 4.63368 8.95473 4.63368 8.96654 4.66926Z" fill="#F5F5F5"/>
<path d="M8.96654 6.10479L9.05814 6.37949L9.34768 6.38169C9.38518 6.38199 9.4007 6.42979 9.37056 6.45209L9.13764 6.62409L9.22501 6.90009C9.23636 6.93589 9.19562 6.96549 9.16511 6.94359L8.92956 6.77529L8.69402 6.94359C8.6635 6.96539 8.62286 6.93589 8.63411 6.90009L8.72148 6.62409L8.48856 6.45209C8.45842 6.42979 8.47394 6.38199 8.51144 6.38169L8.80098 6.37949L8.89258 6.10479C8.90439 6.06919 8.95473 6.06919 8.96654 6.10479Z" fill="#F5F5F5"/>
<path d="M10.0857 1.08918L10.1773 1.36387L10.4668 1.36607C10.5043 1.3664 10.5198 1.41421 10.4897 1.43648L10.2568 1.60851L10.3442 1.88455C10.3555 1.92027 10.3148 1.94989 10.2843 1.92805L10.0487 1.75968L9.81316 1.92805C9.78264 1.94985 9.742 1.92027 9.75325 1.88455L9.84063 1.60851L9.6077 1.43648C9.57756 1.41416 9.59308 1.3664 9.63058 1.36607L9.92013 1.36387L10.0117 1.08918C10.0235 1.05361 10.0738 1.05361 10.0857 1.08918Z" fill="#F5F5F5"/>
<path d="M10.0857 2.53055L10.1773 2.80524L10.4668 2.80744C10.5043 2.80777 10.5198 2.85558 10.4897 2.87785L10.2568 3.04988L10.3442 3.32593C10.3555 3.36165 10.3148 3.39127 10.2843 3.36943L10.0487 3.20105L9.81316 3.36943C9.78264 3.39122 9.742 3.36165 9.75325 3.32593L9.84063 3.04988L9.6077 2.87785C9.57756 2.85554 9.59308 2.80777 9.63058 2.80744L9.92013 2.80524L10.0117 2.53055C10.0235 2.49502 10.0738 2.49502 10.0857 2.53055Z" fill="#F5F5F5"/>
<path d="M10.0857 3.96024L10.1773 4.23493L10.4668 4.23714C10.5043 4.23747 10.5198 4.28528 10.4897 4.30755L10.2568 4.47958L10.3442 4.75563C10.3555 4.79135 10.3148 4.82098 10.2843 4.79913L10.0487 4.63075L9.81316 4.79913C9.78264 4.82093 9.742 4.79135 9.75325 4.75563L9.84063 4.47958L9.6077 4.30755C9.57756 4.28523 9.59308 4.23747 9.63058 4.23714L9.92013 4.23493L10.0117 3.96024C10.0235 3.92471 10.0738 3.92471 10.0857 3.96024Z" fill="#F5F5F5"/>
<path d="M10.0857 5.40168L10.1773 5.67637L10.4668 5.67857C10.5043 5.6789 10.5198 5.72671 10.4897 5.74898L10.2568 5.92101L10.3442 6.1971C10.3555 6.2328 10.3148 6.2624 10.2843 6.2406L10.0487 6.0722L9.81316 6.2406C9.78264 6.2623 9.742 6.2328 9.75325 6.1971L9.84063 5.92101L9.6077 5.74898C9.57756 5.72667 9.59308 5.6789 9.63058 5.67857L9.92013 5.67637L10.0117 5.40168C10.0235 5.36611 10.0738 5.36611 10.0857 5.40168Z" fill="#F5F5F5"/>
<path d="M10.0857 6.83729L10.1773 7.11199L10.4668 7.11419C10.5043 7.11449 10.5198 7.16229 10.4897 7.18459L10.2568 7.35659L10.3442 7.63259C10.3555 7.66839 10.3148 7.69799 10.2843 7.67609L10.0487 7.50779L9.81316 7.67609C9.78264 7.69789 9.742 7.66839 9.75325 7.63259L9.84063 7.35659L9.6077 7.18459C9.57756 7.16229 9.59308 7.11449 9.63058 7.11419L9.92013 7.11199L10.0117 6.83729C10.0235 6.80159 10.0738 6.80159 10.0857 6.83729Z" fill="#F5F5F5"/>
</svg>
