<svg xmlns="http://www.w3.org/2000/svg" width="179.454" height="121.505" viewBox="0 0 179.454 121.505">
  <g id="Group_14897" data-name="Group 14897" transform="translate(-1918.765 -11.659)">
    <g id="Path_34439" data-name="Path 34439">
      <path id="Path_34467" data-name="Path 34467" d="M1923.959,129.824c-1.488-2.578-2.547-7.292-3.148-14.011a174.3,174.3,0,0,1-.429-20.469,192.044,192.044,0,0,1,1.654-20.222c.93-6.485,2.083-10.941,3.429-13.245l.107-.182.152-.145c7.732-7.39,21.13-16.341,37.724-25.206a321.1,321.1,0,0,1,47.535-20.81l.05-.017.05-.013a91.547,91.547,0,0,1,16.938-2.045c6.7-.335,14.623-.387,22.916-.152,16.9.479,33.28,2.082,42.737,4.184l3.045.676-2.429,1.956c-12.234,9.848-47.654,34.906-82.392,58.288-19.13,12.876-36.693,24.329-50.791,33.121-16.517,10.3-28.21,16.925-34.752,19.688l-1.05.444-.709-.893A7.929,7.929,0,0,1,1923.959,129.824Z" fill="#ee4035" stroke="#683b72" stroke-linejoin="round" stroke-width="3"/>
    </g>
    <path id="Path_34440" data-name="Path 34440" d="M1991.49,89.342c-20.372,12.571-46.332,29.1-62.353,35.865-8.968-12.206-3.83-55.319-.631-61.326,1.592-2.42,17.017-13.215,21.257-16.4C1932.3,68.242,1938.629,118.139,1991.49,89.342Z" fill="#bf1e2e"/>
  </g>
</svg>
