<svg width="32" height="32" viewBox="0 0 32 32" fill="none" xmlns="http://www.w3.org/2000/svg">
<path d="M31.4482 26.4887H0.551749C0.247062 26.4887 0 26.2417 0 25.937V6.07494C0 5.77026 0.247062 5.52319 0.551749 5.52319H31.4483C31.7529 5.52319 32 5.77026 32 6.07494V25.937C31.9999 26.2417 31.7529 26.4887 31.4482 26.4887Z" fill="#F5F5F5"/>
<path d="M31.9999 7.136H0V6.07494C0 5.77026 0.247062 5.52319 0.551749 5.52319H31.4483C31.7529 5.52319 32 5.77026 32 6.07494L31.9999 7.136Z" fill="#FF4B55"/>
<path d="M31.9999 11.9764H0V13.5891H31.9999V11.9764Z" fill="#FF4B55"/>
<path d="M31.9999 8.74988H0V10.3626H31.9999V8.74988Z" fill="#FF4B55"/>
<path d="M31.9999 16.8155H0.551749C0.247062 16.8155 0 16.5685 0 16.2638V15.2028H31.9999V16.8155Z" fill="#FF4B55"/>
<path d="M31.9999 21.6483H0V23.261H31.9999V21.6483Z" fill="#FF4B55"/>
<path d="M31.4482 26.4951H0.551749C0.247062 26.4951 0 26.2481 0 25.9434V24.8824H31.9999V25.9434C31.9999 26.2481 31.7529 26.4951 31.4482 26.4951Z" fill="#FF4B55"/>
<path d="M31.9999 18.4217H0V20.0344H31.9999V18.4217Z" fill="#FF4B55"/>
<path d="M14.3448 5.52325H0.551749C0.247062 5.52325 0 5.77025 0 6.07494V16.2605C0 16.5652 0.247062 16.8123 0.551749 16.8123H14.3448C14.6495 16.8123 14.8966 16.5652 14.8966 16.2605V6.07494C14.8965 5.77025 14.6495 5.52325 14.3448 5.52325Z" fill="#41479B"/>
<path d="M1.54921 6.78575L1.67133 7.152L2.05739 7.15494C2.10739 7.15538 2.12808 7.21913 2.08789 7.24881L1.77733 7.47819L1.89383 7.84625C1.90895 7.89387 1.85464 7.93337 1.81395 7.90425L1.49989 7.67981L1.18583 7.90431C1.14514 7.93337 1.09096 7.89394 1.10596 7.84631L1.22246 7.47825L0.911896 7.24888C0.871709 7.21913 0.892396 7.15544 0.942396 7.155L1.32846 7.15206L1.45058 6.78582C1.46633 6.73832 1.53333 6.73832 1.54921 6.78575Z" fill="#F5F5F5"/>
<path d="M1.54921 8.69959L1.67133 9.06584L2.05739 9.06877C2.10739 9.06921 2.12808 9.13296 2.08789 9.16265L1.77733 9.39202L1.89383 9.76009C1.90895 9.80771 1.85464 9.84721 1.81395 9.81809L1.49989 9.59365L1.18583 9.81815C1.14514 9.84721 1.09096 9.80777 1.10596 9.76015L1.22246 9.39209L0.911896 9.16271C0.871709 9.13296 0.892396 9.06927 0.942396 9.06884L1.32846 9.0659L1.45058 8.69965C1.46633 8.65221 1.53333 8.65221 1.54921 8.69959Z" fill="#F5F5F5"/>
<path d="M1.54921 10.6213L1.67133 10.9876L2.05739 10.9905C2.10739 10.991 2.12808 11.0547 2.08789 11.0844L1.77733 11.3138L1.89383 11.6818C1.90895 11.7295 1.85464 11.769 1.81395 11.7398L1.49989 11.5154L1.18583 11.7399C1.14514 11.769 1.09096 11.7295 1.10596 11.6819L1.22246 11.3138L0.911896 11.0845C0.871709 11.0547 0.892396 10.991 0.942396 10.9906L1.32846 10.9877L1.45058 10.6214C1.46633 10.574 1.53333 10.574 1.54921 10.6213Z" fill="#F5F5F5"/>
<path d="M1.54921 12.528L1.67133 12.8943L2.05739 12.8972C2.10739 12.8976 2.12808 12.9614 2.08789 12.9911L1.77733 13.2204L1.89383 13.5885C1.90895 13.6361 1.85464 13.6756 1.81395 13.6465L1.49989 13.4221L1.18583 13.6466C1.14514 13.6756 1.09096 13.6362 1.10596 13.5886L1.22246 13.2205L0.911896 12.9911C0.871709 12.9614 0.892396 12.8977 0.942396 12.8973L1.32846 12.8943L1.45058 12.5281C1.46633 12.4806 1.53333 12.4806 1.54921 12.528Z" fill="#F5F5F5"/>
<path d="M1.54921 14.4496L1.67133 14.8158L2.05739 14.8187C2.10739 14.8192 2.12808 14.8829 2.08789 14.9126L1.77733 15.142L1.89383 15.5101C1.90895 15.5577 1.85464 15.5972 1.81395 15.5681L1.49989 15.3436L1.18583 15.5681C1.14514 15.5972 1.09096 15.5578 1.10596 15.5101L1.22246 15.1421L0.911896 14.9127C0.871709 14.8829 0.892396 14.8192 0.942396 14.8188L1.32846 14.8159L1.45058 14.4496C1.46633 14.4021 1.53333 14.4021 1.54921 14.4496Z" fill="#F5F5F5"/>
<path d="M3.03743 7.73066L3.15955 8.09691L3.54561 8.09985C3.59561 8.10028 3.6163 8.16403 3.57611 8.19372L3.26555 8.4231L3.38205 8.79116C3.39717 8.83878 3.34286 8.87828 3.30217 8.84916L2.98811 8.62466L2.67405 8.84916C2.63337 8.87822 2.57918 8.83878 2.59418 8.79116L2.71068 8.4231L2.40012 8.19372C2.35993 8.16397 2.38062 8.10028 2.43062 8.09985L2.81668 8.09691L2.9388 7.73066C2.95449 7.68329 3.02161 7.68329 3.03743 7.73066Z" fill="#F5F5F5"/>
<path d="M3.03743 9.63726L3.15955 10.0035L3.54561 10.0064C3.59561 10.0069 3.6163 10.0706 3.57611 10.1003L3.26555 10.3297L3.38205 10.6977C3.39717 10.7454 3.34286 10.7849 3.30217 10.7557L2.98811 10.5312L2.67405 10.7557C2.63337 10.7848 2.57918 10.7454 2.59418 10.6977L2.71068 10.3297L2.40012 10.1003C2.35993 10.0706 2.38062 10.0069 2.43062 10.0064L2.81668 10.0035L2.9388 9.63726C2.95449 9.58983 3.02161 9.58983 3.03743 9.63726Z" fill="#F5F5F5"/>
<path d="M3.03743 11.5591L3.15955 11.9253L3.54561 11.9283C3.59561 11.9287 3.6163 11.9924 3.57611 12.0221L3.26555 12.2515L3.38205 12.6196C3.39717 12.6672 3.34286 12.7067 3.30217 12.6776L2.98811 12.4531L2.67405 12.6776C2.63337 12.7066 2.57918 12.6672 2.59418 12.6196L2.71068 12.2515L2.40012 12.0221C2.35993 11.9924 2.38062 11.9287 2.43062 11.9283L2.81668 11.9253L2.9388 11.5591C2.95449 11.5116 3.02161 11.5116 3.03743 11.5591Z" fill="#F5F5F5"/>
<path d="M3.03743 13.4728L3.15955 13.8391L3.54561 13.842C3.59561 13.8425 3.6163 13.9062 3.57611 13.9359L3.26555 14.1653L3.38205 14.5333C3.39717 14.581 3.34286 14.6205 3.30217 14.5913L2.98811 14.3668L2.67405 14.5913C2.63337 14.6204 2.57918 14.581 2.59418 14.5333L2.71068 14.1653L2.40012 13.9359C2.35993 13.9062 2.38062 13.8425 2.43062 13.842L2.81668 13.8391L2.9388 13.4728C2.95449 13.4255 3.02161 13.4255 3.03743 13.4728Z" fill="#F5F5F5"/>
<path d="M4.52199 6.78564L4.64412 7.15189L5.03018 7.15482C5.08018 7.15526 5.10087 7.21901 5.06068 7.2487L4.75012 7.47807L4.86662 7.84613C4.88174 7.89375 4.82743 7.93325 4.78674 7.90413L4.47268 7.67963L4.15861 7.90413C4.11793 7.93319 4.06374 7.89375 4.07874 7.84613L4.19524 7.47807L3.88467 7.2487C3.84449 7.21895 3.86517 7.15526 3.91517 7.15482L4.30124 7.15189L4.42336 6.78564C4.43911 6.7382 4.50618 6.7382 4.52199 6.78564Z" fill="#F5F5F5"/>
<path d="M4.52199 8.70722L4.64412 9.07347L5.03018 9.07641C5.08018 9.07685 5.10087 9.1406 5.06068 9.17028L4.75012 9.39966L4.86662 9.76772C4.88174 9.81535 4.82743 9.85485 4.78674 9.82572L4.47268 9.60122L4.15861 9.82572C4.11793 9.85478 4.06374 9.81535 4.07874 9.76772L4.19524 9.39966L3.88467 9.17028C3.84449 9.14053 3.86517 9.07685 3.91517 9.07641L4.30124 9.07347L4.42336 8.70722C4.43911 8.65985 4.50618 8.65985 4.52199 8.70722Z" fill="#F5F5F5"/>
<path d="M4.52199 10.614L4.64412 10.9802L5.03018 10.9832C5.08018 10.9836 5.10087 11.0473 5.06068 11.077L4.75012 11.3064L4.86662 11.6745C4.88174 11.7221 4.82743 11.7616 4.78674 11.7325L4.47268 11.508L4.15861 11.7325C4.11793 11.7615 4.06374 11.7221 4.07874 11.6745L4.19524 11.3064L3.88467 11.077C3.84449 11.0473 3.86517 10.9836 3.91517 10.9832L4.30124 10.9802L4.42336 10.614C4.43911 10.5666 4.50618 10.5666 4.52199 10.614Z" fill="#F5F5F5"/>
<path d="M4.52199 12.5356L4.64412 12.9019L5.03018 12.9048C5.08018 12.9053 5.10087 12.969 5.06068 12.9987L4.75012 13.2281L4.86662 13.5961C4.88174 13.6438 4.82743 13.6833 4.78674 13.6541L4.47268 13.4296L4.15861 13.6541C4.11793 13.6832 4.06374 13.6438 4.07874 13.5961L4.19524 13.2281L3.88467 12.9987C3.84449 12.9689 3.86517 12.9053 3.91517 12.9048L4.30124 12.9019L4.42336 12.5356C4.43911 12.4882 4.50618 12.4882 4.52199 12.5356Z" fill="#F5F5F5"/>
<path d="M4.52199 14.4499L4.64412 14.8161L5.03018 14.8191C5.08018 14.8195 5.10087 14.8832 5.06068 14.9129L4.75012 15.1423L4.86662 15.5104C4.88174 15.558 4.82743 15.5975 4.78674 15.5684L4.47268 15.3439L4.15861 15.5684C4.11793 15.5974 4.06374 15.558 4.07874 15.5104L4.19524 15.1423L3.88467 14.9129C3.84449 14.8832 3.86517 14.8195 3.91517 14.8191L4.30124 14.8161L4.42336 14.4499C4.43911 14.4024 4.50618 14.4024 4.52199 14.4499Z" fill="#F5F5F5"/>
<path d="M6.01014 7.73066L6.13227 8.09691L6.51833 8.09985C6.56833 8.10028 6.58902 8.16403 6.54883 8.19372L6.23827 8.4231L6.35477 8.79116C6.36989 8.83878 6.31558 8.87828 6.27489 8.84916L5.96083 8.62466L5.64677 8.84916C5.60608 8.87822 5.5519 8.83878 5.5669 8.79116L5.6834 8.4231L5.37283 8.19372C5.33265 8.16397 5.35333 8.10028 5.40333 8.09985L5.7894 8.09691L5.91152 7.73066C5.92721 7.68329 5.99433 7.68329 6.01014 7.73066Z" fill="#F5F5F5"/>
<path d="M6.01014 9.63726L6.13227 10.0035L6.51833 10.0064C6.56833 10.0069 6.58902 10.0706 6.54883 10.1003L6.23827 10.3297L6.35477 10.6977C6.36989 10.7454 6.31558 10.7849 6.27489 10.7557L5.96083 10.5312L5.64677 10.7557C5.60608 10.7848 5.5519 10.7454 5.5669 10.6977L5.6834 10.3297L5.37283 10.1003C5.33265 10.0706 5.35333 10.0069 5.40333 10.0064L5.7894 10.0035L5.91152 9.63726C5.92721 9.58983 5.99433 9.58983 6.01014 9.63726Z" fill="#F5F5F5"/>
<path d="M6.01014 11.5591L6.13227 11.9253L6.51833 11.9283C6.56833 11.9287 6.58902 11.9924 6.54883 12.0221L6.23827 12.2515L6.35477 12.6196C6.36989 12.6672 6.31558 12.7067 6.27489 12.6776L5.96083 12.4531L5.64677 12.6776C5.60608 12.7066 5.5519 12.6672 5.5669 12.6196L5.6834 12.2515L5.37283 12.0221C5.33265 11.9924 5.35333 11.9287 5.40333 11.9283L5.7894 11.9253L5.91152 11.5591C5.92721 11.5116 5.99433 11.5116 6.01014 11.5591Z" fill="#F5F5F5"/>
<path d="M6.01014 13.4728L6.13227 13.8391L6.51833 13.842C6.56833 13.8425 6.58902 13.9062 6.54883 13.9359L6.23827 14.1653L6.35477 14.5333C6.36989 14.581 6.31558 14.6205 6.27489 14.5913L5.96083 14.3668L5.64677 14.5913C5.60608 14.6204 5.5519 14.581 5.5669 14.5333L5.6834 14.1653L5.37283 13.9359C5.33265 13.9062 5.35333 13.8425 5.40333 13.842L5.7894 13.8391L5.91152 13.4728C5.92721 13.4255 5.99433 13.4255 6.01014 13.4728Z" fill="#F5F5F5"/>
<path d="M7.49464 6.78564L7.61677 7.15189L8.00283 7.15482C8.05283 7.15526 8.07352 7.21901 8.03333 7.2487L7.72277 7.47807L7.83927 7.84613C7.8544 7.89375 7.80008 7.93325 7.7594 7.90413L7.44527 7.67963L7.13121 7.90413C7.09052 7.93319 7.03633 7.89375 7.05133 7.84613L7.16783 7.47807L6.85727 7.2487C6.81708 7.21895 6.83777 7.15526 6.88777 7.15482L7.27383 7.15189L7.39596 6.78564C7.41177 6.7382 7.47883 6.7382 7.49464 6.78564Z" fill="#F5F5F5"/>
<path d="M7.49464 8.70722L7.61677 9.07347L8.00283 9.07641C8.05283 9.07685 8.07352 9.1406 8.03333 9.17028L7.72277 9.39966L7.83927 9.76772C7.8544 9.81535 7.80008 9.85485 7.7594 9.82572L7.44527 9.60122L7.13121 9.82572C7.09052 9.85478 7.03633 9.81535 7.05133 9.76772L7.16783 9.39966L6.85727 9.17028C6.81708 9.14053 6.83777 9.07685 6.88777 9.07641L7.27383 9.07347L7.39596 8.70722C7.41177 8.65985 7.47883 8.65985 7.49464 8.70722Z" fill="#F5F5F5"/>
<path d="M7.49464 10.614L7.61677 10.9802L8.00283 10.9832C8.05283 10.9836 8.07352 11.0473 8.03333 11.077L7.72277 11.3064L7.83927 11.6745C7.8544 11.7221 7.80008 11.7616 7.7594 11.7325L7.44527 11.508L7.13121 11.7325C7.09052 11.7615 7.03633 11.7221 7.05133 11.6745L7.16783 11.3064L6.85727 11.077C6.81708 11.0473 6.83777 10.9836 6.88777 10.9832L7.27383 10.9802L7.39596 10.614C7.41177 10.5666 7.47883 10.5666 7.49464 10.614Z" fill="#F5F5F5"/>
<path d="M7.49464 12.5356L7.61677 12.9019L8.00283 12.9048C8.05283 12.9053 8.07352 12.969 8.03333 12.9987L7.72277 13.2281L7.83927 13.5961C7.8544 13.6438 7.80008 13.6833 7.7594 13.6541L7.44527 13.4296L7.13121 13.6541C7.09052 13.6832 7.03633 13.6438 7.05133 13.5961L7.16783 13.2281L6.85727 12.9987C6.81708 12.9689 6.83777 12.9053 6.88777 12.9048L7.27383 12.9019L7.39596 12.5356C7.41177 12.4882 7.47883 12.4882 7.49464 12.5356Z" fill="#F5F5F5"/>
<path d="M7.49464 14.4499L7.61677 14.8161L8.00283 14.8191C8.05283 14.8195 8.07352 14.8832 8.03333 14.9129L7.72277 15.1423L7.83927 15.5104C7.8544 15.558 7.80008 15.5975 7.7594 15.5684L7.44527 15.3439L7.13121 15.5684C7.09052 15.5974 7.03633 15.558 7.05133 15.5104L7.16783 15.1423L6.85727 14.9129C6.81708 14.8832 6.83777 14.8195 6.88777 14.8191L7.27383 14.8161L7.39596 14.4499C7.41177 14.4024 7.47883 14.4024 7.49464 14.4499Z" fill="#F5F5F5"/>
<path d="M8.98665 7.73066L9.10877 8.09691L9.49484 8.09985C9.54484 8.10028 9.56552 8.16403 9.52534 8.19372L9.21477 8.4231L9.33127 8.79116C9.3464 8.83878 9.29209 8.87828 9.2514 8.84916L8.93734 8.62466L8.62327 8.84916C8.58259 8.87822 8.5284 8.83878 8.5434 8.79116L8.6599 8.4231L8.34933 8.19372C8.30915 8.16397 8.32984 8.10028 8.37984 8.09985L8.7659 8.09691L8.88802 7.73066C8.90384 7.68329 8.97084 7.68329 8.98665 7.73066Z" fill="#F5F5F5"/>
<path d="M8.98665 9.63726L9.10877 10.0035L9.49484 10.0064C9.54484 10.0069 9.56552 10.0706 9.52534 10.1003L9.21477 10.3297L9.33127 10.6977C9.3464 10.7454 9.29209 10.7849 9.2514 10.7557L8.93734 10.5312L8.62327 10.7557C8.58259 10.7848 8.5284 10.7454 8.5434 10.6977L8.6599 10.3297L8.34933 10.1003C8.30915 10.0706 8.32984 10.0069 8.37984 10.0064L8.7659 10.0035L8.88802 9.63726C8.90384 9.58983 8.97084 9.58983 8.98665 9.63726Z" fill="#F5F5F5"/>
<path d="M8.98665 11.5591L9.10877 11.9253L9.49484 11.9283C9.54484 11.9287 9.56552 11.9924 9.52534 12.0221L9.21477 12.2515L9.33127 12.6196C9.3464 12.6672 9.29209 12.7067 9.2514 12.6776L8.93734 12.4531L8.62327 12.6776C8.58259 12.7066 8.5284 12.6672 8.5434 12.6196L8.6599 12.2515L8.34933 12.0221C8.30915 11.9924 8.32984 11.9287 8.37984 11.9283L8.7659 11.9253L8.88802 11.5591C8.90384 11.5116 8.97084 11.5116 8.98665 11.5591Z" fill="#F5F5F5"/>
<path d="M8.98665 13.4728L9.10877 13.8391L9.49484 13.842C9.54484 13.8425 9.56552 13.9062 9.52534 13.9359L9.21477 14.1653L9.33127 14.5333C9.3464 14.581 9.29209 14.6205 9.2514 14.5913L8.93734 14.3668L8.62327 14.5913C8.58259 14.6204 8.5284 14.581 8.5434 14.5333L8.6599 14.1653L8.34933 13.9359C8.30915 13.9062 8.32984 13.8425 8.37984 13.842L8.7659 13.8391L8.88802 13.4728C8.90384 13.4255 8.97084 13.4255 8.98665 13.4728Z" fill="#F5F5F5"/>
<path d="M10.471 6.78564L10.5932 7.15189L10.9792 7.15482C11.0292 7.15526 11.0499 7.21901 11.0097 7.2487L10.6992 7.47807L10.8157 7.84613C10.8308 7.89375 10.7765 7.93325 10.7358 7.90413L10.4217 7.67963L10.1076 7.90413C10.067 7.93319 10.0128 7.89375 10.0278 7.84613L10.1443 7.47807L9.83371 7.2487C9.79352 7.21895 9.81421 7.15526 9.86421 7.15482L10.2503 7.15189L10.3724 6.78564C10.3881 6.7382 10.4552 6.7382 10.471 6.78564Z" fill="#F5F5F5"/>
<path d="M10.471 8.70722L10.5932 9.07347L10.9792 9.07641C11.0292 9.07685 11.0499 9.1406 11.0097 9.17028L10.6992 9.39966L10.8157 9.76772C10.8308 9.81535 10.7765 9.85485 10.7358 9.82572L10.4217 9.60122L10.1076 9.82572C10.067 9.85478 10.0128 9.81535 10.0278 9.76772L10.1443 9.39966L9.83371 9.17028C9.79352 9.14053 9.81421 9.07685 9.86421 9.07641L10.2503 9.07347L10.3724 8.70722C10.3881 8.65985 10.4552 8.65985 10.471 8.70722Z" fill="#F5F5F5"/>
<path d="M10.471 10.614L10.5932 10.9802L10.9792 10.9832C11.0292 10.9836 11.0499 11.0473 11.0097 11.077L10.6992 11.3064L10.8157 11.6745C10.8308 11.7221 10.7765 11.7616 10.7358 11.7325L10.4217 11.508L10.1076 11.7325C10.067 11.7615 10.0128 11.7221 10.0278 11.6745L10.1443 11.3064L9.83371 11.077C9.79352 11.0473 9.81421 10.9836 9.86421 10.9832L10.2503 10.9802L10.3724 10.614C10.3881 10.5666 10.4552 10.5666 10.471 10.614Z" fill="#F5F5F5"/>
<path d="M10.471 12.5356L10.5932 12.9019L10.9792 12.9048C11.0292 12.9053 11.0499 12.969 11.0097 12.9987L10.6992 13.2281L10.8157 13.5961C10.8308 13.6438 10.7765 13.6833 10.7358 13.6541L10.4217 13.4296L10.1076 13.6541C10.067 13.6832 10.0128 13.6438 10.0278 13.5961L10.1443 13.2281L9.83371 12.9987C9.79352 12.9689 9.81421 12.9053 9.86421 12.9048L10.2503 12.9019L10.3724 12.5356C10.3881 12.4882 10.4552 12.4882 10.471 12.5356Z" fill="#F5F5F5"/>
<path d="M10.471 14.4499L10.5932 14.8161L10.9792 14.8191C11.0292 14.8195 11.0499 14.8832 11.0097 14.9129L10.6992 15.1423L10.8157 15.5104C10.8308 15.558 10.7765 15.5975 10.7358 15.5684L10.4217 15.3439L10.1076 15.5684C10.067 15.5974 10.0128 15.558 10.0278 15.5104L10.1443 15.1423L9.83371 14.9129C9.79352 14.8832 9.81421 14.8195 9.86421 14.8191L10.2503 14.8161L10.3724 14.4499C10.3881 14.4024 10.4552 14.4024 10.471 14.4499Z" fill="#F5F5F5"/>
<path d="M11.9556 7.73066L12.0777 8.09691L12.4638 8.09985C12.5138 8.10028 12.5344 8.16403 12.4943 8.19372L12.1837 8.4231L12.3002 8.79116C12.3153 8.83878 12.261 8.87828 12.2203 8.84916L11.9063 8.62466L11.5922 8.84916C11.5515 8.87822 11.4973 8.83878 11.5123 8.79116L11.6288 8.4231L11.3183 8.19372C11.2781 8.16397 11.2988 8.10028 11.3488 8.09985L11.7348 8.09691L11.857 7.73066C11.8727 7.68329 11.9398 7.68329 11.9556 7.73066Z" fill="#F5F5F5"/>
<path d="M11.9556 9.63726L12.0777 10.0035L12.4638 10.0064C12.5138 10.0069 12.5344 10.0706 12.4943 10.1003L12.1837 10.3297L12.3002 10.6977C12.3153 10.7454 12.261 10.7849 12.2203 10.7557L11.9063 10.5312L11.5922 10.7557C11.5515 10.7848 11.4973 10.7454 11.5123 10.6977L11.6288 10.3297L11.3183 10.1003C11.2781 10.0706 11.2988 10.0069 11.3488 10.0064L11.7348 10.0035L11.857 9.63726C11.8727 9.58983 11.9398 9.58983 11.9556 9.63726Z" fill="#F5F5F5"/>
<path d="M11.9556 11.5591L12.0777 11.9253L12.4638 11.9283C12.5138 11.9287 12.5344 11.9924 12.4943 12.0221L12.1837 12.2515L12.3002 12.6196C12.3153 12.6672 12.261 12.7067 12.2203 12.6776L11.9063 12.4531L11.5922 12.6776C11.5515 12.7066 11.4973 12.6672 11.5123 12.6196L11.6288 12.2515L11.3183 12.0221C11.2781 11.9924 11.2988 11.9287 11.3488 11.9283L11.7348 11.9253L11.857 11.5591C11.8727 11.5116 11.9398 11.5116 11.9556 11.5591Z" fill="#F5F5F5"/>
<path d="M11.9556 13.4728L12.0777 13.8391L12.4638 13.842C12.5138 13.8425 12.5344 13.9062 12.4943 13.9359L12.1837 14.1653L12.3002 14.5333C12.3153 14.581 12.261 14.6205 12.2203 14.5913L11.9063 14.3668L11.5922 14.5913C11.5515 14.6204 11.4973 14.581 11.5123 14.5333L11.6288 14.1653L11.3183 13.9359C11.2781 13.9062 11.2988 13.8425 11.3488 13.842L11.7348 13.8391L11.857 13.4728C11.8727 13.4255 11.9398 13.4255 11.9556 13.4728Z" fill="#F5F5F5"/>
<path d="M13.4476 6.78564L13.5697 7.15189L13.9558 7.15482C14.0058 7.15526 14.0265 7.21901 13.9863 7.2487L13.6757 7.47807L13.7922 7.84613C13.8073 7.89375 13.753 7.93325 13.7123 7.90413L13.3983 7.67963L13.0842 7.90413C13.0435 7.93319 12.9893 7.89375 13.0043 7.84613L13.1208 7.47807L12.8103 7.2487C12.7701 7.21895 12.7908 7.15526 12.8408 7.15482L13.2268 7.15189L13.349 6.78564C13.3647 6.7382 13.4317 6.7382 13.4476 6.78564Z" fill="#F5F5F5"/>
<path d="M13.4476 8.70722L13.5697 9.07347L13.9558 9.07641C14.0058 9.07685 14.0265 9.1406 13.9863 9.17028L13.6757 9.39966L13.7922 9.76772C13.8073 9.81535 13.753 9.85485 13.7123 9.82572L13.3983 9.60122L13.0842 9.82572C13.0435 9.85478 12.9893 9.81535 13.0043 9.76772L13.1208 9.39966L12.8103 9.17028C12.7701 9.14053 12.7908 9.07685 12.8408 9.07641L13.2268 9.07347L13.349 8.70722C13.3647 8.65985 13.4317 8.65985 13.4476 8.70722Z" fill="#F5F5F5"/>
<path d="M13.4476 10.614L13.5697 10.9802L13.9558 10.9832C14.0058 10.9836 14.0265 11.0473 13.9863 11.077L13.6757 11.3064L13.7922 11.6745C13.8073 11.7221 13.753 11.7616 13.7123 11.7325L13.3983 11.508L13.0842 11.7325C13.0435 11.7615 12.9893 11.7221 13.0043 11.6745L13.1208 11.3064L12.8103 11.077C12.7701 11.0473 12.7908 10.9836 12.8408 10.9832L13.2268 10.9802L13.349 10.614C13.3647 10.5666 13.4317 10.5666 13.4476 10.614Z" fill="#F5F5F5"/>
<path d="M13.4476 12.5356L13.5697 12.9019L13.9558 12.9048C14.0058 12.9053 14.0265 12.969 13.9863 12.9987L13.6757 13.2281L13.7922 13.5961C13.8073 13.6438 13.753 13.6833 13.7123 13.6541L13.3983 13.4296L13.0842 13.6541C13.0435 13.6832 12.9893 13.6438 13.0043 13.5961L13.1208 13.2281L12.8103 12.9987C12.7701 12.9689 12.7908 12.9053 12.8408 12.9048L13.2268 12.9019L13.349 12.5356C13.3647 12.4882 13.4317 12.4882 13.4476 12.5356Z" fill="#F5F5F5"/>
<path d="M13.4476 14.4499L13.5697 14.8161L13.9558 14.8191C14.0058 14.8195 14.0265 14.8832 13.9863 14.9129L13.6757 15.1423L13.7922 15.5104C13.8073 15.558 13.753 15.5975 13.7123 15.5684L13.3983 15.3439L13.0842 15.5684C13.0435 15.5974 12.9893 15.558 13.0043 15.5104L13.1208 15.1423L12.8103 14.9129C12.7701 14.8832 12.7908 14.8195 12.8408 14.8191L13.2268 14.8161L13.349 14.4499C13.3647 14.4024 13.4317 14.4024 13.4476 14.4499Z" fill="#F5F5F5"/>
</svg>
