<svg width="24" height="24" viewBox="0 0 24 24" fill="none" xmlns="http://www.w3.org/2000/svg">
<g clip-path="url(#clip0_15:437)">
<path d="M7.1029 2.01603C6.70948 2.01669 6.32318 2.11896 5.98281 2.31255C5.64245 2.50615 5.36002 2.78425 5.1639 3.11891L0.298678 11.42C0.102622 11.7546 -0.000244244 12.134 0.000399734 12.52C0.00104371 12.906 0.105179 13.2851 0.30235 13.6191L5.19603 21.9042C5.39326 22.2381 5.6766 22.5152 6.01757 22.7076C6.35854 22.9 6.74512 23.0009 7.13845 23.0002L16.8974 22.9842C17.2909 22.9837 17.6772 22.8816 18.0177 22.6881C18.3581 22.4946 18.6407 22.2166 18.8369 21.882L23.7025 13.5804C23.8985 13.2458 24.0014 12.8665 24.0007 12.4805C24.0001 12.0946 23.8959 11.7156 23.6986 11.3817L18.8052 3.09643C18.608 2.76247 18.3246 2.48534 17.9836 2.29288C17.6427 2.10043 17.2561 1.99943 16.8627 2.00003L7.1029 2.01603Z" fill="#FFCE11"/>
<path d="M14.2602 22.9733C14.0622 22.9734 13.865 22.9481 13.6737 22.8982L5.28439 20.7073C4.89588 20.605 4.5415 20.4046 4.25661 20.126C3.97172 19.8473 3.76629 19.5002 3.66082 19.1194L1.39987 10.895C1.29582 10.5138 1.29551 10.1125 1.39896 9.73109C1.5024 9.34973 1.70599 9.00166 1.9894 8.72165L8.11807 2.68799C8.40251 2.40898 8.75656 2.20807 9.14488 2.10531C9.53319 2.00256 9.94217 2.00155 10.331 2.10239L18.7203 4.29359C19.1088 4.39569 19.4631 4.59603 19.748 4.87459C20.0329 5.15315 20.2382 5.50018 20.3436 5.88101L22.6046 14.1059C22.7086 14.4871 22.7089 14.8884 22.6054 15.2697C22.5019 15.651 22.2984 15.9991 22.015 16.2791L15.8863 22.3126C15.6728 22.5221 15.4193 22.6884 15.1403 22.8018C14.8613 22.9151 14.5622 22.9734 14.2602 22.9733V22.9733ZM2.41253 9.13516C2.20291 9.3422 2.05231 9.5996 1.97579 9.88162C1.89926 10.1636 1.89948 10.4604 1.97643 10.7424L4.23747 18.9663C4.31547 19.248 4.46741 19.5047 4.67811 19.7108C4.8888 19.9168 5.1509 20.065 5.43823 20.1406L13.8275 22.3316C14.115 22.4062 14.4174 22.4055 14.7046 22.3295C14.9917 22.2535 15.2534 22.1048 15.4636 21.8984L21.5924 15.8649C21.802 15.6579 21.9526 15.4005 22.0291 15.1186C22.1056 14.8366 22.1054 14.5398 22.0285 14.2579L19.7675 6.03309C19.6895 5.75148 19.5377 5.49487 19.327 5.28888C19.1164 5.08288 18.8544 4.93471 18.5671 4.85918L10.1778 2.66807C9.89028 2.5935 9.58784 2.59426 9.30069 2.67024C9.01354 2.74623 8.75172 2.8948 8.54137 3.10111L2.41278 9.13476L2.41253 9.13516Z" fill="white"/>
<path d="M13.6149 17.082L14.9729 15.3613L14.279 14.8204L12.8612 16.5796L13.6149 17.082Z" fill="#683B72"/>
<path d="M13.6256 16.2814L13.7747 16.2822C13.7795 16.2403 13.782 16.1981 13.7822 16.1559L13.7829 16.0228C13.7829 15.9846 13.7806 15.9483 13.7793 15.9112L13.6256 16.2814Z" fill="#683B72"/>
<path d="M12.5787 16.8047C12.4396 16.8718 12.2857 16.9041 12.1307 16.8985C12.0328 16.8983 11.9355 16.882 11.8429 16.8505C11.753 16.8203 11.6685 16.7761 11.5929 16.7195C11.5591 16.6958 11.5284 16.6682 11.5014 16.6372C11.4899 16.625 11.4797 16.6115 11.4688 16.5987C11.4627 16.5907 11.4565 16.5827 11.4501 16.5743C11.437 16.5569 11.4221 16.5409 11.4106 16.5223C11.4033 16.5107 11.3996 16.4973 11.3933 16.4852C11.2964 16.2994 11.2477 16.093 11.2517 15.8843C11.245 15.2558 11.6854 15.0593 11.6854 15.0593V15.0648C11.7228 15.044 11.7619 15.0261 11.8023 15.0112C11.898 14.9777 11.9992 14.9614 12.1009 14.9632C12.3222 14.9645 12.488 15.0274 12.5982 15.1521C12.6622 15.2238 12.709 15.3085 12.7354 15.4001C12.7424 15.423 12.7438 15.4472 12.7395 15.4708C12.7352 15.4943 12.7254 15.5166 12.7108 15.5357C12.6962 15.5549 12.6772 15.5704 12.6554 15.5811C12.6336 15.5918 12.6096 15.5973 12.5852 15.5973L12.2439 15.5943C12.204 15.5939 12.1654 15.6086 12.1363 15.6354C12.1071 15.6623 12.0897 15.6991 12.0876 15.7383L12.0667 16.1118C12.0655 16.1324 12.0686 16.153 12.0757 16.1723C12.0829 16.1917 12.094 16.2094 12.1084 16.2245C12.1228 16.2395 12.1401 16.2515 12.1593 16.2597C12.1786 16.268 12.1993 16.2723 12.2203 16.2724L12.8245 16.2774C12.848 16.2776 12.8713 16.2725 12.8926 16.2625C12.9138 16.2526 12.9325 16.238 12.9472 16.2199L13.6244 15.3849L13.6499 15.2333C13.5749 15.0351 13.4614 14.853 13.3156 14.6973C13.1667 14.5408 12.9845 14.4184 12.7821 14.3386C12.5645 14.2535 12.3323 14.2105 12.0981 14.2119C11.8527 14.2084 11.6088 14.25 11.379 14.3344C11.1643 14.4131 10.9677 14.533 10.8008 14.6871C10.6336 14.8446 10.501 15.0341 10.4114 15.2439C10.3125 15.4764 10.2626 15.7261 10.2646 15.978C10.2584 16.2335 10.3066 16.4874 10.4062 16.7235C10.4963 16.9332 10.6318 17.1212 10.8032 17.2745C10.9751 17.426 11.1761 17.5424 11.3943 17.6168C11.6248 17.6964 11.8674 17.737 12.1117 17.7368C12.4235 17.745 12.7332 17.6842 13.0177 17.5588C13.2711 17.4441 13.4886 17.265 13.6477 17.04L12.8775 16.5571C12.7979 16.6604 12.6958 16.745 12.5787 16.8047V16.8047Z" fill="#683B72"/>
<path d="M16.1511 16.8407C16.012 16.9079 15.8581 16.9401 15.7032 16.9346C15.6052 16.9344 15.5079 16.9182 15.4154 16.8866C15.3254 16.8564 15.241 16.8121 15.1654 16.7555C15.1316 16.7319 15.1009 16.7042 15.074 16.6733C15.0623 16.661 15.0523 16.6477 15.0413 16.6347C15.0351 16.6267 15.0291 16.6187 15.0228 16.6107C15.0095 16.5934 14.9947 16.5773 14.9832 16.5587C14.9759 16.547 14.9722 16.5337 14.9658 16.5216C14.8689 16.3358 14.8202 16.1294 14.8242 15.9207C14.8238 15.8861 14.8253 15.8534 14.8275 15.8214L14.0712 16.7962C14.0577 16.8134 14.0495 16.8341 14.0477 16.8558C14.0459 16.8775 14.0506 16.8992 14.0612 16.9183C14.1434 17.0651 14.2497 17.1976 14.3759 17.3103C14.5478 17.4618 14.7488 17.5782 14.9671 17.6526C15.1976 17.7322 15.4402 17.7727 15.6845 17.7726C15.9963 17.7808 16.3059 17.7199 16.5905 17.5946C16.8035 17.4979 16.9917 17.3556 17.1414 17.1782C17.1518 17.1658 17.1595 17.1514 17.1639 17.136C17.1683 17.1205 17.1693 17.1043 17.1668 17.0884C17.1643 17.0726 17.1585 17.0574 17.1496 17.0439C17.1408 17.0304 17.1291 17.0189 17.1154 17.0102L16.5345 16.6459C16.512 16.6319 16.4853 16.626 16.4589 16.6293C16.4324 16.6325 16.408 16.6448 16.3898 16.6638C16.3207 16.7353 16.2401 16.7951 16.1511 16.8407Z" fill="#683B72"/>
<path d="M17.2339 15.3001C17.1589 15.0901 17.0413 14.8972 16.8881 14.733C16.7392 14.5766 16.557 14.4541 16.3545 14.3743C16.137 14.2892 15.9048 14.2462 15.6706 14.2476C15.4252 14.2441 15.1813 14.2857 14.9515 14.3702C14.7368 14.4488 14.5403 14.5687 14.3735 14.7228C14.3402 14.7537 14.3094 14.7868 14.279 14.8205L14.9715 15.3641C15.0383 15.2604 15.1295 15.1739 15.2375 15.1121L15.2579 15.101C15.2954 15.0802 15.3345 15.0622 15.3748 15.0474C15.4706 15.0139 15.5717 14.9976 15.6734 14.9994C15.8947 15.0006 16.0605 15.0636 16.1707 15.1882C16.2491 15.2759 16.3016 15.383 16.3225 15.4978C16.3259 15.5143 16.3255 15.5313 16.3213 15.5477C16.3171 15.564 16.3094 15.5792 16.2985 15.5922C16.2876 15.6052 16.2739 15.6157 16.2584 15.6229C16.2429 15.6301 16.226 15.6338 16.2088 15.6338L15.7777 15.6301C15.7482 15.6298 15.7197 15.6407 15.6982 15.6605C15.6767 15.6804 15.6638 15.7075 15.6622 15.7365L15.6369 16.1894C15.6361 16.2046 15.6384 16.2198 15.6437 16.2342C15.649 16.2485 15.6572 16.2616 15.6678 16.2727C15.6785 16.2838 15.6913 16.2926 15.7055 16.2987C15.7197 16.3048 15.7351 16.308 15.7506 16.3081L17.2388 16.3181C17.2688 16.3185 17.2977 16.3073 17.3193 16.287C17.341 16.2667 17.3536 16.2388 17.3545 16.2094C17.3545 16.2038 17.3545 16.1982 17.3545 16.1925L17.3553 16.0595C17.3611 15.8013 17.32 15.5442 17.2339 15.3001Z" fill="#683B72"/>
<path d="M9.89318 16.3098C9.90089 16.5356 9.84708 16.7593 9.7373 16.9578C9.63665 17.1296 9.49472 17.2747 9.32388 17.3803C9.14366 17.49 8.94513 17.5676 8.73743 17.6096C8.51587 17.6564 8.28984 17.6798 8.0632 17.6794H6.31246C6.29133 17.6794 6.2704 17.6754 6.25087 17.6674C6.23135 17.6595 6.2136 17.6479 6.19865 17.6332C6.18371 17.6186 6.17186 17.6012 6.16377 17.582C6.15568 17.5628 6.15152 17.5423 6.15152 17.5216V13.1284C6.15153 13.1077 6.1557 13.0872 6.16379 13.068C6.17188 13.0489 6.18374 13.0315 6.19868 13.0168C6.21363 13.0022 6.23137 12.9905 6.25089 12.9826C6.27041 12.9747 6.29133 12.9706 6.31246 12.9706H8.06303C8.25422 12.9712 8.4449 12.9902 8.63235 13.0271C8.81835 13.0618 8.99706 13.127 9.16098 13.22C9.31853 13.3103 9.45119 13.437 9.54742 13.589C9.65323 13.7685 9.70496 13.9738 9.69662 14.181C9.70576 14.4157 9.62882 14.6458 9.47976 14.8295C9.32993 15.0036 9.13224 15.1317 8.91027 15.1986V15.212C9.04369 15.2334 9.17294 15.2749 9.29346 15.3349C9.41041 15.3928 9.51597 15.4705 9.60522 15.5645C9.69476 15.6598 9.76597 15.7702 9.81541 15.8904C9.86906 16.0239 9.89548 16.1664 9.89318 16.3098V16.3098ZM8.5783 14.3344C8.58308 14.265 8.56819 14.1956 8.53528 14.134C8.50237 14.0724 8.45273 14.0209 8.39184 13.9853C8.26754 13.9121 8.08339 13.8754 7.8394 13.8754H7.43095C7.3883 13.8755 7.3474 13.8921 7.31725 13.9217C7.2871 13.9513 7.27017 13.9914 7.27017 14.0333V14.6887C7.27017 14.7306 7.2871 14.7707 7.31725 14.8003C7.3474 14.8299 7.3883 14.8465 7.43095 14.8466H7.89369C8.07179 14.857 8.24867 14.8116 8.39869 14.7168C8.45847 14.6726 8.50617 14.6145 8.53752 14.5478C8.56887 14.481 8.58291 14.4077 8.57838 14.3344H8.5783ZM8.73418 16.2034C8.73418 16.0082 8.65958 15.873 8.51038 15.7976C8.32334 15.7146 8.11902 15.6758 7.91392 15.6845H7.43086C7.38822 15.6846 7.34735 15.7012 7.3172 15.7308C7.28706 15.7604 7.27011 15.8005 7.27009 15.8423V16.6041C7.27011 16.6459 7.28706 16.686 7.3172 16.7156C7.34735 16.7452 7.38822 16.7618 7.43086 16.7618H7.92068C8.01496 16.7616 8.10906 16.7538 8.20204 16.7385C8.29408 16.7247 8.38329 16.6966 8.46635 16.6553C8.54459 16.6162 8.61115 16.5578 8.65958 16.4859C8.71236 16.401 8.73822 16.3027 8.73385 16.2034H8.73418Z" fill="#683B72"/>
<path d="M9.61047 12.1081L9.3261 11.403C9.31726 11.3811 9.30191 11.3623 9.28203 11.3491C9.26215 11.3358 9.23868 11.3288 9.21465 11.3288H7.66446C7.64006 11.3288 7.61623 11.3361 7.59617 11.3497C7.57611 11.3634 7.56077 11.3827 7.5522 11.4051L7.28495 12.1061C7.27639 12.1285 7.26105 12.1478 7.24099 12.1615C7.22093 12.1751 7.1971 12.1824 7.17268 12.1825H6.2718C6.25204 12.1824 6.23259 12.1776 6.21518 12.1685C6.19777 12.1593 6.18295 12.146 6.17202 12.1299C6.16109 12.1137 6.15439 12.0952 6.15252 12.0759C6.15066 12.0566 6.15368 12.0371 6.16132 12.0193L7.91957 7.90632C7.92873 7.88498 7.94411 7.86676 7.96378 7.85395C7.98344 7.84114 8.00651 7.83431 8.03012 7.83432H8.90941C8.93311 7.83431 8.95628 7.84119 8.976 7.85409C8.99572 7.86699 9.0111 7.88533 9.0202 7.9068L10.7608 12.0199C10.7683 12.0378 10.7713 12.0572 10.7694 12.0765C10.7674 12.0958 10.7607 12.1143 10.7497 12.1304C10.7388 12.1465 10.7239 12.1597 10.7065 12.1688C10.6891 12.1779 10.6697 12.1827 10.65 12.1827H9.72193C9.69787 12.1827 9.67437 12.1756 9.65449 12.1623C9.63461 12.149 9.61928 12.1301 9.61047 12.1081V12.1081ZM8.33748 9.29623L7.94769 10.3289C7.94098 10.3467 7.93874 10.3659 7.94118 10.3847C7.94362 10.4035 7.95067 10.4215 7.96172 10.437C7.97276 10.4526 7.98747 10.4653 8.00461 10.4741C8.02175 10.4829 8.04079 10.4875 8.06012 10.4875H8.83097C8.85023 10.4875 8.86921 10.483 8.88629 10.4742C8.90337 10.4655 8.91805 10.4529 8.92911 10.4374C8.94017 10.422 8.94728 10.4041 8.94982 10.3854C8.95237 10.3666 8.95028 10.3476 8.94373 10.3298L8.56258 9.29712C8.55421 9.27448 8.53897 9.25491 8.5189 9.24104C8.49884 9.22718 8.47492 9.21969 8.45038 9.21959C8.42584 9.21948 8.40186 9.22678 8.38167 9.24047C8.36148 9.25416 8.34606 9.27359 8.33748 9.29615V9.29623Z" fill="#683B72"/>
<path d="M11.4053 12.0644V7.65643C11.4053 7.62522 11.4179 7.59529 11.4404 7.57322C11.4629 7.55115 11.4934 7.53876 11.5252 7.53876H12.3242C12.356 7.53876 12.3865 7.55115 12.409 7.57322C12.4315 7.59529 12.4441 7.62522 12.4441 7.65643V12.0644C12.4441 12.0956 12.4315 12.1256 12.409 12.1476C12.3865 12.1697 12.356 12.1821 12.3242 12.1821H11.5252C11.4934 12.1821 11.4629 12.1697 11.4404 12.1476C11.4179 12.1256 11.4053 12.0956 11.4053 12.0644V12.0644Z" fill="#683B72"/>
<path d="M14.4504 7.9292C14.4819 7.99771 14.4979 8.07211 14.4973 8.14727C14.4979 8.22241 14.4819 8.29677 14.4504 8.36527C14.4204 8.43085 14.3779 8.49021 14.3252 8.54015C14.271 8.59063 14.2073 8.63029 14.1376 8.65695C14.0651 8.68549 13.9876 8.70008 13.9094 8.69992C13.8319 8.70191 13.7548 8.68851 13.6827 8.66055C13.6107 8.63259 13.5451 8.59063 13.49 8.53719C13.4359 8.4872 13.3929 8.42673 13.3638 8.35962C13.3348 8.2925 13.3202 8.22019 13.321 8.14727C13.3208 8.07441 13.3357 8.00226 13.3649 7.93527C13.3932 7.86877 13.4359 7.80906 13.4899 7.76023C13.5452 7.71029 13.6085 7.66974 13.6774 7.64023C13.7505 7.60905 13.8294 7.59333 13.909 7.59408C13.9872 7.59399 14.0647 7.60859 14.1373 7.63712C14.2069 7.66381 14.2706 7.70344 14.3248 7.75384C14.3777 7.8039 14.4203 7.86342 14.4504 7.9292ZM13.3957 12.0646V9.24143C13.3957 9.21022 13.4084 9.18029 13.4309 9.15822C13.4533 9.13615 13.4838 9.12375 13.5157 9.12375H14.3023C14.3341 9.12375 14.3646 9.13615 14.3871 9.15822C14.4095 9.18029 14.4222 9.21022 14.4222 9.24143V12.0646C14.4222 12.0958 14.4095 12.1258 14.3871 12.1478C14.3646 12.1699 14.3341 12.1823 14.3023 12.1823H13.5157C13.4838 12.1823 13.4533 12.1699 13.4309 12.1478C13.4084 12.1258 13.3957 12.0958 13.3957 12.0646V12.0646Z" fill="#683B72"/>
<path d="M17.3063 8.14634C17.3048 8.1627 17.2998 8.17857 17.2917 8.19294C17.2836 8.20731 17.2725 8.21986 17.2592 8.2298C17.2459 8.23975 17.2306 8.24686 17.2143 8.25068C17.198 8.25451 17.1811 8.25496 17.1646 8.25201H17.1632C17.1136 8.24391 17.0634 8.23982 17.0131 8.23978C16.9328 8.23623 16.853 8.25318 16.7814 8.28897C16.7245 8.32031 16.677 8.36582 16.6437 8.4209C16.6093 8.47874 16.586 8.54222 16.5749 8.60825C16.5624 8.67717 16.5561 8.74704 16.556 8.81705V9.00657C16.556 9.02202 16.5591 9.03733 16.5652 9.0516C16.5712 9.06587 16.58 9.07883 16.5912 9.08975C16.6023 9.10067 16.6155 9.10934 16.6301 9.11524C16.6446 9.12115 16.6602 9.12418 16.676 9.12417H17.1309C17.1627 9.12417 17.1932 9.13657 17.2157 9.15864C17.2382 9.18071 17.2508 9.21064 17.2508 9.24185V9.76185C17.2508 9.79306 17.2382 9.82299 17.2157 9.84506C17.1932 9.86713 17.1627 9.87952 17.1309 9.87952H16.676C16.6602 9.87951 16.6446 9.88255 16.6301 9.88846C16.6155 9.89437 16.6023 9.90303 16.5912 9.91395C16.58 9.92487 16.5712 9.93783 16.5652 9.9521C16.5591 9.96638 16.556 9.98168 16.556 9.99713V12.0651C16.556 12.0963 16.5434 12.1262 16.5209 12.1483C16.4985 12.1704 16.468 12.1828 16.4362 12.1828H15.6496C15.6178 12.1828 15.5873 12.1704 15.5648 12.1483C15.5423 12.1263 15.5297 12.0963 15.5297 12.0651V9.99721C15.5297 9.98176 15.5266 9.96646 15.5205 9.95219C15.5145 9.93792 15.5057 9.92495 15.4945 9.91403C15.4834 9.90311 15.4702 9.89444 15.4556 9.88854C15.4411 9.88263 15.4255 9.8796 15.4097 9.87961H15.0799C15.0481 9.87961 15.0176 9.86721 14.9951 9.84514C14.9726 9.82307 14.96 9.79314 14.96 9.76193V9.24193C14.96 9.21072 14.9726 9.18079 14.9951 9.15872C15.0176 9.13665 15.0481 9.12425 15.0799 9.12425H15.4097C15.4255 9.12426 15.4411 9.12122 15.4556 9.11532C15.4702 9.10941 15.4834 9.10075 15.4945 9.08983C15.5057 9.07891 15.5145 9.06595 15.5205 9.05168C15.5266 9.0374 15.5297 9.0221 15.5297 9.00665V8.82945C15.5288 8.64851 15.5498 8.46811 15.5922 8.29201C15.6306 8.12918 15.7043 7.97639 15.8082 7.84402C15.9177 7.70951 16.0596 7.60395 16.2212 7.5369C16.4267 7.45515 16.6474 7.41642 16.8691 7.42322C16.9559 7.42318 17.0427 7.42834 17.1288 7.43866C17.1745 7.44399 17.218 7.45092 17.2593 7.45946C17.2881 7.46531 17.3137 7.48134 17.3313 7.5045C17.3489 7.52767 17.3572 7.55637 17.3546 7.58514L17.3063 8.14634Z" fill="#683B72"/>
</g>
<defs>
<clipPath id="clip0_15:437">
<rect width="24" height="21" fill="white" transform="translate(0 2)"/>
</clipPath>
</defs>
</svg>
