<svg width="24" height="24" viewBox="0 0 24 24" fill="none" xmlns="http://www.w3.org/2000/svg">
<path fill-rule="evenodd" clip-rule="evenodd" d="M13 11.9999C13 12.3071 12.8857 12.6142 12.6582 12.8482L7.99171 17.6481C7.53556 18.1173 6.79826 18.1173 6.34211 17.6481C5.88596 17.1789 5.88596 16.4205 6.34211 15.9514L10.1978 11.9855L6.48794 8.03397C6.04112 7.55518 6.05396 6.798 6.5171 6.33722C6.98025 5.87643 7.71989 5.88963 8.1667 6.36602L12.6722 11.1659C12.8915 11.3999 13 11.6999 13 11.9999" fill="#683B72"/>
<path fill-rule="evenodd" clip-rule="evenodd" d="M11 12.0001C11 11.6929 11.1143 11.3858 11.3418 11.1518L16.0083 6.35189C16.4644 5.8827 17.2017 5.8827 17.6579 6.35189C18.114 6.82108 18.114 7.57946 17.6579 8.04864L13.8022 12.0145L17.5121 15.966C17.9589 16.4448 17.946 17.202 17.4829 17.6628C17.0197 18.1236 16.2801 18.1104 15.8333 17.634L11.3278 12.8341C11.1085 12.6001 11 12.3001 11 12.0001" fill="#683B72"/>
</svg>
