<svg width="32" height="32" viewBox="0 0 32 32" fill="none" xmlns="http://www.w3.org/2000/svg">
<path d="M31.4482 26.4828H0.551749C0.247062 26.4828 0 26.2357 0 25.931V6.06902C0 5.76433 0.247062 5.51727 0.551749 5.51727H31.4483C31.7529 5.51727 32 5.76433 32 6.06902V25.931C31.9999 26.2358 31.7529 26.4828 31.4482 26.4828Z" fill="#746378"/>
<path d="M11.1541 14.802C11.2152 14.8326 11.2865 14.8753 11.368 14.9303C11.4563 14.9852 11.5411 15.0432 11.6226 15.1043C11.7109 15.1653 11.7923 15.2264 11.867 15.2874C11.9417 15.3424 11.9994 15.3882 12.0402 15.4248C12.1216 15.5042 12.2031 15.5958 12.2846 15.6996C12.3729 15.8034 12.4543 15.9163 12.529 16.0384L11.7957 17.7877C11.5513 17.9648 11.2356 18.1388 10.8486 18.3097C10.4616 18.4807 10.0338 18.6333 9.56531 18.7677C9.10361 18.9081 8.61475 19.018 8.09873 19.0974C7.58272 19.1828 7.07688 19.2256 6.58123 19.2256C5.92263 19.2256 5.37606 19.1462 4.94151 18.9875C4.50697 18.8348 4.1607 18.6333 3.90269 18.383C3.64468 18.1388 3.46136 17.8579 3.35272 17.5404C3.25087 17.229 3.19995 16.9177 3.19995 16.6063C3.19995 16.2338 3.24069 15.8797 3.32217 15.5439C3.41043 15.2081 3.51907 14.8936 3.64807 14.6006C3.78387 14.3014 3.93324 14.0236 4.09619 13.7671C4.25915 13.5107 4.41871 13.2695 4.57487 13.0436L4.88041 13.1535C4.77856 13.3672 4.68011 13.5748 4.58505 13.7763C4.49679 13.9717 4.41871 14.1701 4.35081 14.3716C4.2897 14.567 4.23878 14.7685 4.19804 14.9761C4.1573 15.1836 4.13693 15.4065 4.13693 15.6446C4.13693 15.9865 4.21162 16.2918 4.36099 16.5605C4.51037 16.8291 4.71066 17.055 4.96188 17.2382C5.2131 17.4275 5.50506 17.571 5.83776 17.6686C6.17724 17.7724 6.5371 17.8243 6.91732 17.8243C7.50803 17.8243 8.06479 17.7908 8.58759 17.7236C9.11719 17.6564 9.59587 17.5679 10.0236 17.458C10.4514 17.3481 10.8214 17.2229 11.1337 17.0825C11.4461 16.9482 11.6871 16.8078 11.8568 16.6612C11.8229 16.533 11.7109 16.4017 11.5208 16.2674C11.3306 16.1392 11.0862 16.0201 10.7875 15.9102C10.4955 15.8003 10.156 15.7087 9.76901 15.6355C9.38878 15.5683 8.99158 15.5347 8.57741 15.5347C8.68605 15.2722 8.78789 15.0371 8.88295 14.8295C8.98479 14.6158 9.10022 14.4021 9.22922 14.1884H11.1541V14.802ZM9.0459 21.332L7.81357 20.6726L7.25341 21.332L5.95997 20.6451L6.83585 19.5919L8.058 20.2697L8.62833 19.5919L9.92177 20.3063L9.0459 21.332Z" fill="white"/>
<path d="M11.1643 15.5347C11.0896 15.5347 11.0115 15.5256 10.93 15.5072C10.8418 15.4889 10.7603 15.4645 10.6856 15.434C10.6041 15.3973 10.5396 15.3546 10.4921 15.3058C10.4378 15.2508 10.4106 15.1898 10.4106 15.1226V14.6006C10.4106 14.5273 10.4378 14.4662 10.4921 14.4174C10.5396 14.3624 10.6041 14.3197 10.6856 14.2892C10.7603 14.2525 10.8418 14.2281 10.93 14.2159C11.0115 14.1976 11.0896 14.1884 11.1643 14.1884H13.9956C13.9956 14.0053 13.982 13.8038 13.9549 13.584C13.9277 13.3642 13.87 13.126 13.7817 12.8696C13.7003 12.6071 13.5814 12.3293 13.4253 12.0362C13.2691 11.7431 13.0654 11.4317 12.8142 11.102L13.5373 9.60004C13.7342 9.85647 13.9107 10.1404 14.0669 10.4518C14.2299 10.7571 14.3656 11.0776 14.4743 11.4134C14.5897 11.7492 14.678 12.0911 14.7391 12.4392C14.8002 12.7872 14.8307 13.126 14.8307 13.4558C14.8307 13.6328 14.8138 13.816 14.7798 14.0053C14.7459 14.1884 14.6983 14.3716 14.6372 14.5548C14.5829 14.7318 14.5218 14.9058 14.4539 15.0768C14.3928 15.2417 14.3317 15.3943 14.2706 15.5347H11.1643ZM13.466 21.0023L12.0911 20.2513L12.967 19.1981L14.3419 19.9674L13.466 21.0023Z" fill="white"/>
<path d="M21.135 15.5347C20.9449 15.5347 20.7514 15.5134 20.5545 15.4706C20.3644 15.4218 20.2014 15.3271 20.0656 15.1867L19.9128 15.26C19.8993 15.5714 19.8382 15.8889 19.7295 16.2125C19.6277 16.5422 19.4885 16.8596 19.312 17.1649C19.1354 17.4702 18.9317 17.7572 18.7009 18.0258C18.47 18.3006 18.2222 18.5387 17.9574 18.7402C17.6926 18.9417 17.4176 19.1004 17.1325 19.2164C16.8473 19.3385 16.5655 19.3996 16.2871 19.3996C15.8594 19.3996 15.3909 19.3233 14.8817 19.1706C14.3792 19.0241 13.7715 18.7799 13.0586 18.438L13.1808 18.1632C13.3913 18.2243 13.5712 18.2762 13.7206 18.3189C13.8768 18.3616 14.0194 18.3952 14.1484 18.4196C14.2774 18.4502 14.3962 18.4715 14.5048 18.4838C14.6203 18.496 14.7425 18.5021 14.8715 18.5021C15.2042 18.5021 15.5471 18.4441 15.9001 18.3281C16.26 18.2182 16.6063 18.0716 16.939 17.8885C17.2716 17.7114 17.5874 17.5099 17.8861 17.284C18.1849 17.0581 18.4463 16.8291 18.6703 16.5971C18.8944 16.3712 19.0709 16.1544 19.1999 15.9469C19.3289 15.7454 19.3934 15.5775 19.3934 15.4431C19.3934 15.3882 19.3731 15.321 19.3323 15.2417C19.2984 15.1562 19.2475 15.0646 19.1796 14.9669C19.1185 14.8631 19.0472 14.7593 18.9657 14.6555C18.8842 14.5456 18.7993 14.4357 18.7111 14.3258C18.5685 14.1548 18.4327 13.9839 18.3037 13.8129C18.1747 13.642 18.0457 13.471 17.9167 13.3001L18.5379 11.9904C18.6194 12.1003 18.6941 12.2102 18.762 12.3201C18.8367 12.43 18.9182 12.543 19.0064 12.659C19.1354 12.836 19.2746 13.0161 19.424 13.1993C19.5802 13.3764 19.7465 13.5382 19.923 13.6847C20.1064 13.8312 20.2999 13.9534 20.5036 14.0511C20.7072 14.1426 20.9211 14.1884 21.1452 14.1884H21.7257V15.5347H21.135Z" fill="white"/>
<path d="M29.354 14.8204C29.1503 14.857 28.8821 14.8997 28.5494 14.9486C28.2167 14.9974 27.85 15.0493 27.4494 15.1043C27.0556 15.1531 26.6415 15.205 26.2069 15.26C25.7724 15.3088 25.3548 15.3577 24.9542 15.4065C24.7166 15.437 24.4552 15.4615 24.17 15.4798C23.8848 15.492 23.5963 15.5042 23.3043 15.5164C23.0124 15.5225 22.7306 15.5286 22.459 15.5347C22.1874 15.5347 21.9464 15.5347 21.7359 15.5347C21.6612 15.5347 21.5831 15.5256 21.5016 15.5072C21.4134 15.4889 21.3319 15.4645 21.2572 15.434C21.1757 15.3973 21.1112 15.3546 21.0637 15.3058C21.0094 15.2508 20.9822 15.1898 20.9822 15.1226V14.6006C20.9822 14.5273 21.0094 14.4662 21.0637 14.4174C21.1112 14.3624 21.1757 14.3197 21.2572 14.2892C21.3319 14.2525 21.4134 14.2281 21.5016 14.2159C21.5831 14.1976 21.6612 14.1884 21.7359 14.1884C21.9396 14.1884 22.1569 14.1884 22.3877 14.1884C22.6253 14.1823 22.8528 14.1762 23.0701 14.1701C23.2941 14.1579 23.5012 14.1457 23.6913 14.1335C23.8814 14.1152 24.0376 14.0938 24.1598 14.0694C24.0987 13.99 24.0342 13.9015 23.9663 13.8038C23.8984 13.7 23.8339 13.5901 23.7728 13.4741C23.7185 13.3581 23.671 13.239 23.6302 13.1169C23.5895 12.9887 23.5691 12.8605 23.5691 12.7322C23.5691 12.4697 23.6506 12.1797 23.8135 11.8622C23.9765 11.5447 24.1904 11.2486 24.4552 10.9738C24.72 10.6929 25.0153 10.4609 25.3412 10.2778C25.6739 10.0885 26.0032 9.99385 26.3291 9.99385C26.6075 9.99385 26.8621 10.0427 27.093 10.1404C27.3306 10.2381 27.5445 10.3602 27.7346 10.5067C27.9247 10.6472 28.0911 10.8028 28.2336 10.9738C28.383 11.1448 28.5086 11.3035 28.6105 11.45L28.4475 11.5508C28.2506 11.3981 28.0401 11.2821 27.8161 11.2028C27.592 11.1234 27.351 11.0837 27.093 11.0837C26.9232 11.0837 26.7263 11.099 26.5023 11.1295C26.2782 11.1539 26.0474 11.1936 25.8097 11.2486C25.5721 11.3035 25.3412 11.3768 25.1172 11.4684C24.8931 11.5538 24.6962 11.6607 24.5265 11.7889C24.5944 12.0453 24.7132 12.2926 24.8829 12.5307C25.0595 12.7628 25.253 12.9704 25.4634 13.1535C25.6807 13.3367 25.9014 13.4893 26.1254 13.6114C26.3495 13.7275 26.543 13.8007 26.706 13.8312C26.7399 13.8312 26.835 13.8251 26.9911 13.8129C27.1473 13.7946 27.3374 13.7732 27.5615 13.7488C27.7855 13.7244 28.0266 13.6969 28.2846 13.6664C28.5426 13.6359 28.787 13.6084 29.0179 13.584C29.2555 13.5595 29.4626 13.5382 29.6391 13.5199C29.8224 13.4954 29.9481 13.4802 30.016 13.4741L29.354 14.8204Z" fill="white"/>
</svg>
