<svg xmlns="http://www.w3.org/2000/svg" width="49.75" height="64.869" viewBox="0 0 49.75 64.869">
  <g id="Path_27690" data-name="Path 27690" transform="translate(-474.774 -835.734)" fill="none" stroke-linejoin="round">
    <path d="M499.1,862.389l22.421-3.567v29.818a5.584,5.584,0,0,1-4.8,5.166c-3.209.787-6.314-.54-6.934-2.956s1.489-5.016,4.7-5.8a7.315,7.315,0,0,1,4.077.135V867.211l-16.431,2.949-.077,22.351a5.688,5.688,0,0,1-4.759,4.879c-3.174.787-6.506-.7-6.861-2.917-.608-2.393,1.47-4.96,4.654-5.744a7.154,7.154,0,0,1,4.012.124V862.389Zm-8.429,10.936.08-27.62s6.133-.315,12.132,8.905a11.138,11.138,0,0,0-4.595-8.249c-9.011-6.168-8.987-7.626-8.987-7.626a1.94,1.94,0,0,0-1.894,1.476V869.3a7.884,7.884,0,0,0-4.409-.136c-3.5.848-5.777,3.681-5.113,6.314.394,2.433,4.051,4.067,7.542,3.2a6.256,6.256,0,0,0,5.229-5.352Z" stroke="none"/>
    <path d="M 489.3028869628906 838.7340087890625 C 488.3985900878906 838.73486328125 487.6146545410156 839.346923828125 487.4092102050781 840.21044921875 L 487.4092102050781 869.2953491210938 C 486.6188354492188 869.0381469726562 485.795654296875 868.9090576171875 484.9716186523438 868.9090576171875 C 484.3095703125 868.9090576171875 483.6470336914062 868.9923706054688 483.000244140625 869.1594848632812 C 479.5032958984375 870.0078125 477.2236328125 872.840087890625 477.88720703125 875.4735107421875 C 478.2083129882812 877.4577026367188 480.700927734375 878.9108276367188 483.503662109375 878.9108276367188 C 484.1370239257812 878.9108276367188 484.7858276367188 878.8367309570312 485.429443359375 878.677734375 C 488.1871643066406 878.2249145507812 490.3138122558594 876.0477294921875 490.6585388183594 873.3258666992188 L 490.6731262207031 873.3240966796875 L 490.7530822753906 845.7039794921875 C 490.7530822753906 845.7039794921875 490.7782287597656 845.7026977539062 490.8268737792969 845.7026977539062 C 491.5379028320312 845.7026977539062 497.2705078125 845.9789428710938 502.8848571777344 854.6090698242188 C 502.6622009277344 851.33154296875 500.9816589355469 848.3154296875 498.2901916503906 846.3600463867188 C 489.2788391113281 840.19189453125 489.3028869628906 838.7340087890625 489.3028869628906 838.7340087890625 M 521.52392578125 858.82177734375 L 499.1025085449219 862.3885498046875 L 499.1059875488281 862.3885498046875 L 499.1059875488281 888.8518676757812 C 498.3870849609375 888.6170654296875 497.6383056640625 888.4993286132812 496.8883056640625 888.4993286132812 C 496.2859191894531 888.4993286132812 495.6826782226562 888.5753784179688 495.0941467285156 888.7278442382812 C 491.9101257324219 889.5120239257812 489.8324279785156 892.078857421875 490.4402160644531 894.471923828125 C 490.7297058105469 896.2789306640625 492.998046875 897.6025390625 495.5469665527344 897.6025390625 C 496.1236572265625 897.6025390625 496.7150268554688 897.53466796875 497.3007507324219 897.389404296875 C 499.8143005371094 896.977783203125 501.7510070800781 894.9913330078125 502.0596008300781 892.5106201171875 L 502.1369934082031 870.1595458984375 L 518.5684814453125 867.2108154296875 L 518.5684814453125 885.1796264648438 C 517.832763671875 884.9389038085938 517.0662231445312 884.8182373046875 516.2984008789062 884.8182373046875 C 515.6917724609375 884.8182983398438 515.0843505859375 884.8936157226562 514.4913330078125 885.0447387695312 C 511.2781066894531 885.8331298828125 509.1703186035156 888.43359375 509.7892761230469 890.849365234375 C 510.2879943847656 892.7939453125 512.3955078125 894.0325317382812 514.8717041015625 894.0325317382812 C 515.472900390625 894.0325317382812 516.0960693359375 893.95947265625 516.7230224609375 893.8057861328125 C 519.3680419921875 893.415283203125 521.3726806640625 891.25927734375 521.52392578125 888.639404296875 L 521.52392578125 858.82177734375 M 489.3028869628906 835.7340087890625 C 490.1065673828125 835.7340087890625 490.876708984375 836.0564575195312 491.4406433105469 836.6292724609375 C 491.7213745117188 836.9143676757812 491.9393310546875 837.2496948242188 492.0858459472656 837.6137084960938 C 492.4189453125 838.0341186523438 494.0100402832031 839.7948608398438 499.9847106933594 843.8844604492188 C 500.0078735351562 843.9002685546875 500.0307922363281 843.9164428710938 500.0534973144531 843.9329833984375 C 503.4715881347656 846.416259765625 505.5945129394531 850.2333984375 505.8779602050781 854.40576171875 C 505.9705505371094 855.7686157226562 505.1307678222656 857.0219116210938 503.8351135253906 857.45458984375 C 503.5222473144531 857.55908203125 503.2017822265625 857.6093139648438 502.8853149414062 857.6093139648438 C 501.8910827636719 857.6093139648438 500.9352111816406 857.1135864257812 500.3701782226562 856.2449951171875 C 498.9643859863281 854.0841064453125 496.6770324707031 851.1914672851562 493.74169921875 849.6380004882812 L 493.6731262207031 873.332763671875 C 493.6723937988281 873.5807495117188 493.6414184570312 873.8223266601562 493.5835571289062 874.0535888671875 C 493.2771606445312 875.9052124023438 492.4212036132812 877.5914306640625 491.0947265625 878.9491577148438 C 489.7230834960938 880.3531494140625 487.9756164550781 881.2742309570312 486.034423828125 881.6177978515625 C 485.2088012695312 881.8123168945312 484.3579711914062 881.9108276367188 483.503662109375 881.9108276367188 C 481.5964965820312 881.9108276367188 479.7184448242188 881.4116821289062 478.2155151367188 880.5052490234375 C 476.4349365234375 879.431396484375 475.2793579101562 877.8658447265625 474.94873046875 876.0849609375 C 474.5343017578125 874.3013305664062 474.8607177734375 872.4032592773438 475.8731689453125 870.7255859375 C 477.1836547851562 868.5541381835938 479.5150146484375 866.9234008789062 482.2717895507812 866.2492065429688 C 482.9713745117188 866.0700073242188 483.6879272460938 865.9609375 484.4092407226562 865.923583984375 L 484.4092407226562 840.21044921875 C 484.4092407226562 839.9766235351562 484.4365844726562 839.7435913085938 484.4906616210938 839.5160522460938 C 485.0199584960938 837.2914428710938 486.9976196289062 835.7362060546875 489.300048828125 835.7340087890625 C 489.3009948730469 835.7340087890625 489.3019409179688 835.7340087890625 489.3028869628906 835.7340087890625 Z M 521.5239868164062 855.82177734375 C 522.2327880859375 855.82177734375 522.9246215820312 856.0731201171875 523.4714965820312 856.5399169921875 C 524.1392822265625 857.10986328125 524.52392578125 857.9437866210938 524.52392578125 858.82177734375 L 524.52392578125 888.639404296875 C 524.52392578125 888.6970825195312 524.522216796875 888.7546997070312 524.5189208984375 888.8123168945312 C 524.4056396484375 890.7745971679688 523.60205078125 892.6527709960938 522.256103515625 894.1009521484375 C 520.9547119140625 895.501220703125 519.2008056640625 896.4387817382812 517.3040771484375 896.7512817382812 C 516.4996337890625 896.93798828125 515.6820678710938 897.0325317382812 514.8717041015625 897.0325317382812 C 510.9277648925781 897.0325317382812 507.7174987792969 894.8472290039062 506.8833312988281 891.5946044921875 C 506.4411010742188 889.86865234375 506.7352294921875 888.02099609375 507.7113342285156 886.3914184570312 C 508.9464111328125 884.32958984375 511.1517028808594 882.7785034179688 513.763427734375 882.1343383789062 C 514.3551025390625 881.9844360351562 514.9596557617188 881.8873291015625 515.5684814453125 881.8441162109375 L 515.5684814453125 870.797119140625 L 505.1282958984375 872.670654296875 L 505.0595703125 892.52099609375 C 505.0591735839844 892.641357421875 505.051513671875 892.7615356445312 505.0366516113281 892.8809814453125 C 504.8037109375 894.7535400390625 503.9800415039062 896.4616088867188 502.6547241210938 897.820556640625 C 501.3679809570312 899.139892578125 499.7284240722656 900.0056762695312 497.9065551757812 900.329345703125 C 497.1367797851562 900.5106201171875 496.3436279296875 900.6025390625 495.5469665527344 900.6025390625 C 493.762939453125 900.6025390625 492.0044250488281 900.1338500976562 490.5953674316406 899.2828369140625 C 488.9112243652344 898.2656860351562 487.8172912597656 896.77880859375 487.5018310546875 895.084228515625 C 487.111328125 893.4039916992188 487.4145202636719 891.6177368164062 488.3611145019531 890.0396118164062 C 489.5854187011719 887.9985961914062 491.7713012695312 886.4609985351562 494.3598327636719 885.819091796875 C 494.9322204589844 885.671875 495.5169067382812 885.5750732421875 496.1059875488281 885.529541015625 L 496.1059875488281 862.4920654296875 C 496.0530395507812 860.9862670898438 497.1295166015625 859.6646728515625 498.6311950683594 859.42578125 L 521.0526123046875 855.8590087890625 C 521.2095947265625 855.8340454101562 521.3672485351562 855.82177734375 521.5239868164062 855.82177734375 Z" stroke="none" fill="#683b72"/>
  </g>
</svg>
