<svg xmlns="http://www.w3.org/2000/svg" width="72.516" height="60.737" viewBox="0 0 72.516 60.737">
  <g id="Path_34481" data-name="Path 34481" transform="translate(-83.559 -146.984)">
    <g id="Path_34485" data-name="Path 34485" fill="#6bbd40">
      <path d="M 110.5230026245117 206.2209930419922 C 109.7889785766602 206.2209930419922 108.7429428100586 205.958251953125 104.8062896728516 202.8182220458984 C 102.0665588378906 200.6329040527344 98.91909790039062 197.8400726318359 96.76114654541016 195.8819732666016 C 94.08074951171875 193.4498138427734 91.30136108398438 190.8296051025391 89.13564300537109 188.6932220458984 C 85.51336669921875 185.1199951171875 85.31681823730469 184.6139373779297 85.18675994873047 184.279052734375 C 84.81221008300781 183.3157348632812 85.32398223876953 182.2579345703125 86.20770263671875 180.9661865234375 C 87.45113372802734 179.1486053466797 89.77198028564453 176.4837799072266 92.12032318115234 174.17724609375 C 93.31942749023438 172.9994812011719 94.43887329101562 172.0037078857422 95.35762023925781 171.2975463867188 C 96.67453765869141 170.2853698730469 97.57286834716797 169.853515625 98.36139678955078 169.853515625 C 98.45117950439453 169.853515625 98.54074859619141 169.8592376708984 98.62763214111328 169.8705444335938 C 99.99012756347656 170.048583984375 101.5900726318359 171.6061859130859 105.1859664916992 175.3871154785156 C 106.3632736206055 176.625 107.5806579589844 177.9050445556641 108.6280212402344 178.8948211669922 C 109.5781555175781 179.792724609375 110.123405456543 180.1985626220703 110.4142303466797 180.3811187744141 C 110.7255554199219 180.1654968261719 111.3272476196289 179.6996154785156 112.4098281860352 178.7099914550781 C 113.5570297241211 177.6612854003906 115.0162811279297 176.2390441894531 116.870979309082 174.3619842529297 C 120.3162536621094 170.8751373291016 124.4472885131836 166.5044708251953 128.4423217773438 162.2777099609375 C 131.7129058837891 158.8174133300781 134.8020935058594 155.5490417480469 137.2006378173828 153.1007080078125 C 141.1429138183594 149.0766143798828 141.8060302734375 148.6950073242188 142.4296264648438 148.5447540283203 C 142.5954895019531 148.5047149658203 142.7705688476562 148.4843444824219 142.949462890625 148.4843444824219 C 143.8527069091797 148.4843444824219 144.9176940917969 148.9996032714844 146.4026184082031 150.1549835205078 C 147.7222442626953 151.1817779541016 149.0480651855469 152.4675140380859 149.9279174804688 153.3653259277344 C 151.0797271728516 154.5406341552734 152.1663970947266 155.7620239257812 152.9877471923828 156.8045043945312 C 154.3094787597656 158.4820556640625 154.5749969482422 159.1985931396484 154.5749969482422 159.8110046386719 C 154.5749969482422 160.3869171142578 154.2653045654297 160.8457946777344 153.8277893066406 161.4311828613281 C 153.5250091552734 161.8363342285156 153.0812530517578 162.3908233642578 152.5088653564453 163.0792694091797 C 151.4194183349609 164.3895874023438 149.8763885498047 166.1730499267578 147.9226226806641 168.3801574707031 C 144.0401916503906 172.7660064697266 138.9261322021484 178.3805694580078 133.8917541503906 183.7842407226562 C 129.9369659423828 188.0291137695312 124.2040405273438 194.1062164306641 119.3512115478516 198.9512329101562 C 117.1815185546875 201.1174163818359 115.4179382324219 202.8049774169922 114.1094436645508 203.9670562744141 C 111.9512405395508 205.8837280273438 111.2333831787109 206.2209930419922 110.5230026245117 206.2209930419922 Z" stroke="none"/>
      <path d="M 110.5230026245117 204.7209930419922 C 113.177001953125 204.7209930419922 153.0749969482422 161.1329956054688 153.0749969482422 159.8110046386719 C 153.0749969482422 158.5244293212891 145.2010803222656 149.9843597412109 142.949462890625 149.9843597412109 C 142.8892211914062 149.9843597412109 142.8329467773438 149.990478515625 142.781005859375 150.0030059814453 C 140.7980041503906 150.4808349609375 112.9584350585938 182.0019836425781 110.4666213989258 182.0019836425781 C 110.4553146362305 182.0019836425781 110.4442596435547 182.0013122558594 110.4339981079102 182 C 108.1630020141602 181.7089996337891 100.4390029907227 171.6199951171875 98.43399810791016 171.3580017089844 C 98.41087341308594 171.3549957275391 98.38674163818359 171.353515625 98.36140441894531 171.353515625 C 96.19047546386719 171.353515625 86.02849578857422 182.3046875 86.58499908447266 183.7359924316406 C 87.14700317382812 185.1829986572266 107.8680038452148 204.7209930419922 110.5230026245117 204.7209930419922 M 110.5230026245117 207.7209930419922 C 109.2417221069336 207.7209930419922 107.8021469116211 207.1265563964844 103.8709335327148 203.9908752441406 C 101.1003875732422 201.7809753417969 97.92724609375 198.9655456542969 95.75318145751953 196.9928283691406 C 93.05805206298828 194.5473022460938 90.26210021972656 191.9114379882812 88.08222961425781 189.7610931396484 C 86.99960327148438 188.6930999755859 86.12041473388672 187.7964630126953 85.46910858154297 187.0960388183594 C 84.43247985839844 185.9812622070312 84.02410888671875 185.4287109375 83.78851318359375 184.8221130371094 C 83.14009094238281 183.1543731689453 83.97299194335938 181.5761413574219 84.96970367431641 180.1192016601562 C 86.26331329345703 178.2282867431641 88.65752410888672 175.4758758544922 91.06924438476562 173.1070861816406 C 92.31079864501953 171.8876342773438 93.47760772705078 170.8506622314453 94.44353485107422 170.1082458496094 C 96.04380035400391 168.8782958984375 97.21549224853516 168.353515625 98.36139678955078 168.353515625 C 98.51570129394531 168.353515625 98.67041015625 168.3634643554688 98.82122039794922 168.3831024169922 C 100.7646408081055 168.6370391845703 102.5100631713867 170.3969268798828 106.2728881835938 174.3533935546875 C 107.3477783203125 175.4835815429688 108.4592590332031 176.6522521972656 109.4238815307617 177.5809631347656 C 109.8259124755859 177.968017578125 110.1495513916016 178.2617034912109 110.4069595336914 178.4839019775391 C 111.3214263916016 177.7045593261719 113.0130462646484 176.1413421630859 116.0971908569336 173.010498046875 C 119.4737777709961 169.582763671875 123.4789352416992 165.3453063964844 127.3522109985352 161.2473449707031 C 130.6275329589844 157.7820434570312 133.7212066650391 154.5089111328125 136.129150390625 152.0509948730469 C 137.4409942626953 150.7119293212891 138.4512481689453 149.7150115966797 139.2176513671875 149.0032958984375 C 140.7265319824219 147.6020355224609 141.3648376464844 147.2583923339844 142.0782623291016 147.0864868164062 C 142.3588104248047 147.0187835693359 142.6522369384766 146.9843597412109 142.949462890625 146.9843597412109 C 144.2257690429688 146.9843597412109 145.5339660644531 147.5785369873047 147.3237609863281 148.9711456298828 C 148.7091674804688 150.0491180419922 150.0871734619141 151.384765625 150.9992218017578 152.3154296875 C 152.1876220703125 153.528076171875 153.3122711181641 154.7926483154297 154.1659851074219 155.8761749267578 C 155.5576019287109 157.6424407958984 156.0749969482422 158.7088928222656 156.0749969482422 159.8110046386719 C 156.0749969482422 160.9300079345703 155.4706115722656 161.7386932373047 155.0293121337891 162.3291625976562 C 154.7066040039062 162.7609710693359 154.2594299316406 163.3200073242188 153.6622619628906 164.0382537841797 C 152.5629730224609 165.3604125976562 151.009765625 167.1557464599609 149.0457916259766 169.3743896484375 C 145.1553039550781 173.7693176269531 140.0318908691406 179.3941955566406 134.9892425537109 184.8067321777344 C 131.0260162353516 189.0606842041016 125.2797088623047 195.1518859863281 120.4110107421875 200.0127410888672 C 118.2207565307617 202.199462890625 116.4357147216797 203.9072418212891 115.1054763793945 205.0886077880859 C 114.338981628418 205.7693328857422 113.7177963256836 206.2816009521484 113.2064437866211 206.6546783447266 C 112.4473648071289 207.20849609375 111.5969009399414 207.7209930419922 110.5230026245117 207.7209930419922 Z" stroke="none" fill="#683b72"/>
    </g>
  </g>
</svg>
